<?xml version="1.0" encoding="utf-8"?>
<!-- Generator: Adobe Illustrator 23.0.3, SVG Export Plug-In . SVG Version: 6.00 Build 0)  -->
<svg version="1.1" id="Layer_1" xmlns="http://www.w3.org/2000/svg" xmlns:xlink="http://www.w3.org/1999/xlink" x="0px" y="0px"
	 viewBox="0 0 58 58" style="enable-background:new 0 0 58 58;" xml:space="preserve">
<g>
	<path d="M29,1C13.6,1,1,13.6,1,29c0,15.4,12.6,28,28,28c15.4,0,28-12.6,28-28C57,13.6,44.4,1,29,1z M29,55.6
		C14.3,55.6,2.4,43.7,2.4,29S14.3,2.4,29,2.4S55.6,14.3,55.6,29S43.7,55.6,29,55.6z"/>
	<path d="M25.9,19.1c-0.3-0.3-0.9-0.3-1.2,0c-0.3,0.3-0.3,0.9,0,1.2l8.7,8.7l-8.7,8.7c-0.2,0.2-0.2,0.4-0.2,0.6
		c0,0.2,0.1,0.4,0.2,0.6c0.2,0.2,0.4,0.2,0.6,0.2c0.2,0,0.4-0.1,0.6-0.2l9.3-9.3c0.2-0.2,0.2-0.4,0.3-0.6c0-0.2-0.1-0.4-0.2-0.6
		L25.9,19.1z"/>
</g>
</svg>
