<?xml version="1.0" encoding="utf-8"?>
<!-- Generator: Adobe Illustrator 23.0.3, SVG Export Plug-In . SVG Version: 6.00 Build 0)  -->
<svg version="1.1" id="Layer_1" xmlns="http://www.w3.org/2000/svg" xmlns:xlink="http://www.w3.org/1999/xlink" x="0px" y="0px"
	 viewBox="0 0 44 44" style="enable-background:new 0 0 44 44;" xml:space="preserve">
<path d="M30.2,17.7c0,0-0.4,0.3-0.4,0.4c0,0.1,0,0.3,0,0.4c0,5.3-4,11.4-11.4,11.4c-2.3,0-4.4-0.7-5.3-1.2c0,0-0.9-0.6-0.7-0.6
	c0.2,0,0.5,0,0.8,0c1.9,0,3.6-0.6,4.3-1.2c0,0,0.7-0.5-0.2-0.6s-2.4-1.2-2.6-2c0,0-0.3-0.8-0.1-0.8c0.1,0,0.4,0,0.6,0
	c0.4,0,0.7-0.1,0.9-0.1c0,0,0.2,0-0.7-0.2c-0.9-0.2-2.3-1.8-2.3-3.7v0c0,0,0,0,0.3,0.1c0.3,0.2,0.9,0.3,1.2,0.3c0,0,0.3,0-0.2-0.3
	c-0.5-0.4-1.2-1.6-1.2-3c0-0.7,0.2-1.4,0.4-1.7c0,0,0.2-0.3,1.2,0.9c1,1.2,3.9,2.8,5.6,2.9c0,0,1.7,0.1,1.6-0.1
	c0-0.1-0.1-0.5-0.1-0.8c0-2.2,1.8-4,4-4c1.2,0,2.2,0.5,2.6,0.9c0,0,0.4,0.4,0.8,0.3c0.5-0.1,1.3-0.4,1.7-0.7c0,0,0.4-0.2,0.2,0.2
	c-0.2,0.5-0.8,1.3-1.2,1.5c0,0-0.4,0.2,0,0.2c0.4,0,1.2-0.3,1.5-0.4c0,0,0.4-0.2,0.1,0.2C31.2,16.7,30.6,17.4,30.2,17.7 M22,2.4
	C11.2,2.4,2.4,11.2,2.4,22c0,10.8,8.8,19.6,19.6,19.6S41.6,32.8,41.6,22C41.6,11.2,32.8,2.4,22,2.4"/>
</svg>
