<?xml version="1.0" encoding="utf-8"?>
<!-- Generator: Adobe Illustrator 23.0.3, SVG Export Plug-In . SVG Version: 6.00 Build 0)  -->
<svg version="1.1" id="Layer_1" xmlns="http://www.w3.org/2000/svg" xmlns:xlink="http://www.w3.org/1999/xlink" x="0px" y="0px"
	 viewBox="0 0 65 65" style="enable-background:new 0 0 65 65;" xml:space="preserve">
<g>
	<path style="fill:#9891DA;" d="M50.3,29.5h-6.4c0.6-2.3,0.9-4.6,0.9-6.8c0-2.2-0.3-4.6-0.8-6.8h6.3C52,20.3,52,25,50.3,29.5
		 M39.8,40.3c-0.7,0.3-1.3,0.5-2,0.7c2.4-2.2,4.4-5.9,5.7-9.9h6.1C47.5,35.3,44,38.5,39.8,40.3 M33.3,41.6V31.1h8.4
		C39.8,36.4,36.7,41,33.3,41.6 M33.3,15.8h9c0.6,2.1,0.8,4.4,0.8,6.8c0,2.2-0.3,4.6-1,6.8h-8.8V15.8z M33.3,3.6
		c3.6,0.6,6.8,4.8,8.6,10.5h-8.6V3.6z M49.6,14.2h-6c-1.1-3.9-3-7.5-5.3-9.7C43.1,6,47.2,9.4,49.6,14.2 M31.6,14.2h-8.4
		c1.7-5.6,4.8-9.9,8.4-10.5V14.2z M31.6,41.6c-3.4-0.8-6.4-5.2-8.2-10.4h8.2V41.6z M15.3,31.1h6.4c1.2,4.1,3.3,7.8,5.8,10
		C22.2,39.7,17.7,36.1,15.3,31.1 M14.6,29.5c-1.8-4.6-1.7-9.4-0.1-13.6h0.1h6.4c-0.5,2.2-0.8,4.5-0.8,6.8c0,2.2,0.3,4.6,0.9,6.8
		h-6.5H14.6z M22.8,15.8h8.8v13.5H23c-0.6-2.2-1-4.6-1-6.8C22,20.3,22.3,18,22.8,15.8 M25.1,5c0.6-0.3,1.2-0.5,1.8-0.6
		c-2.4,2.2-4.3,5.8-5.5,9.9h-6.2C17.3,10.2,20.7,6.8,25.1,5 M51.8,14.6C48.5,6.9,40.9,1.8,32.4,1.8c-2.8,0-5.4,0.6-7.9,1.6
		C13.8,7.8,8.8,20,13.2,30.6c3.1,7.5,10.2,12.5,18.4,12.8h1.8c2.4-0.1,4.8-0.6,7.1-1.6c5.1-2.1,9.1-6.1,11.3-11.3
		C53.9,25.5,53.9,19.8,51.8,14.6"/>
	<path d="M23.9,58c0,0.5-0.3,0.8-0.8,0.8c-0.5,0-0.8-0.3-0.8-0.8c0-0.5,0.3-0.8,0.8-0.8C23.6,57.1,23.9,57.5,23.9,58"/>
	<path d="M19,58c0,0.5-0.3,0.8-0.8,0.8c-0.5,0-0.8-0.3-0.8-0.8c0-0.5,0.3-0.8,0.8-0.8C18.6,57.1,19,57.5,19,58"/>
	<path d="M13.8,57.4c0.1,0.1,0.3,0.3,0.3,0.6c0,0.2-0.1,0.4-0.3,0.6c-0.1,0.1-0.3,0.3-0.6,0.3c-0.2,0-0.4-0.1-0.6-0.3
		c-0.1-0.1-0.3-0.3-0.3-0.6c0-0.2,0.1-0.4,0.3-0.6C12.9,57,13.5,57,13.8,57.4"/>
	<path d="M52.2,57.4c0.1,0.1,0.3,0.3,0.3,0.6c0,0.2-0.1,0.4-0.3,0.6c-0.1,0.1-0.3,0.3-0.6,0.3c-0.2,0-0.4-0.1-0.6-0.3
		c-0.1-0.1-0.3-0.3-0.3-0.6c0-0.2,0.1-0.4,0.3-0.6C51.3,57,51.9,57,52.2,57.4"/>
	<path d="M42.6,58c0,0.5-0.3,0.8-0.8,0.8c-0.5,0-0.8-0.3-0.8-0.8c0-0.5,0.3-0.8,0.8-0.8C42.2,57.1,42.6,57.5,42.6,58"/>
	<path d="M47.5,58c0,0.5-0.3,0.8-0.8,0.8c-0.5,0-0.8-0.3-0.8-0.8c0-0.5,0.3-0.8,0.8-0.8C47.1,57.2,47.5,57.5,47.5,58"/>
	<path d="M32.4,61.5c-1.9,0-3.5-1.6-3.5-3.5c0-1.9,1.6-3.5,3.5-3.5C34.4,54.4,36,56,36,58C36,59.9,34.4,61.5,32.4,61.5 M33.4,52.9
		v-4.2v-5.3h-1.8v4.8v4.6c-2.5,0.4-4.4,2.6-4.4,5.1c0,2.9,2.3,5.3,5.3,5.3c2.9,0,5.2-2.3,5.3-5.2C37.7,55.4,35.8,53.3,33.4,52.9"/>
</g>
</svg>
