<?xml version="1.0" encoding="UTF-8" standalone="no"?>
<!-- Generator: Adobe Illustrator 22.0.0, SVG Export Plug-In . SVG Version: 6.00 Build 0)  -->

<svg
   xmlns:osb="http://www.openswatchbook.org/uri/2009/osb"
   xmlns:dc="http://purl.org/dc/elements/1.1/"
   xmlns:cc="http://creativecommons.org/ns#"
   xmlns:rdf="http://www.w3.org/1999/02/22-rdf-syntax-ns#"
   xmlns:svg="http://www.w3.org/2000/svg"
   xmlns="http://www.w3.org/2000/svg"
   xmlns:xlink="http://www.w3.org/1999/xlink"
   xmlns:sodipodi="http://sodipodi.sourceforge.net/DTD/sodipodi-0.dtd"
   xmlns:inkscape="http://www.inkscape.org/namespaces/inkscape"
   version="1.1"
   id="Laag_1"
   x="0px"
   y="0px"
   viewBox="200 200 600 600"
   style="enable-background:new 200 200 600 600;"
   xml:space="preserve"
   inkscape:version="0.48.2 r9819"
   width="100%"
   height="100%"
   sodipodi:docname="locknload--pin.svg"><metadata
   id="metadata4877"><rdf:RDF><cc:Work
       rdf:about=""><dc:format>image/svg+xml</dc:format><dc:type
         rdf:resource="http://purl.org/dc/dcmitype/StillImage" /></cc:Work></rdf:RDF></metadata><defs
   id="defs4875"><linearGradient
     inkscape:collect="always"
     id="linearGradient6845"><stop
       style="stop-color:#000000;stop-opacity:1;"
       offset="0"
       id="stop6847" /><stop
       style="stop-color:#000000;stop-opacity:0;"
       offset="1"
       id="stop6849" /></linearGradient><linearGradient
     id="linearGradient5397"
     osb:paint="solid"><stop
       style="stop-color:#000000;stop-opacity:1;"
       offset="0"
       id="stop5399" /></linearGradient><linearGradient
     inkscape:collect="always"
     xlink:href="#linearGradient6845"
     id="linearGradient6851"
     x1="329.4"
     y1="622.85"
     x2="670.6"
     y2="622.85"
     gradientUnits="userSpaceOnUse" /><linearGradient
     inkscape:collect="always"
     xlink:href="#linearGradient7579"
     id="linearGradient7585"
     x1="361.5"
     y1="670.65002"
     x2="640.59998"
     y2="670.65002"
     gradientUnits="userSpaceOnUse" /><linearGradient
     inkscape:collect="always"
     id="linearGradient7579"><stop
       style="stop-color:#cdd6ff;stop-opacity:1;"
       offset="0"
       id="stop7581" /><stop
       style="stop-color:#cdd6ff;stop-opacity:0;"
       offset="1"
       id="stop7583" /></linearGradient></defs><sodipodi:namedview
   pagecolor="#ffffff"
   bordercolor="#666666"
   borderopacity="1"
   objecttolerance="10"
   gridtolerance="10"
   guidetolerance="10"
   inkscape:pageopacity="0"
   inkscape:pageshadow="2"
   inkscape:window-width="1387"
   inkscape:window-height="901"
   id="namedview4873"
   showgrid="false"
   inkscape:zoom="1.2309635"
   inkscape:cx="227.53967"
   inkscape:cy="352.30487"
   inkscape:window-x="1624"
   inkscape:window-y="7"
   inkscape:window-maximized="0"
   inkscape:current-layer="g4773" />
<style
   type="text/css"
   id="style4769">
	.st0{fill-rule:evenodd;clip-rule:evenodd;fill:#CDD6FF;}
	.st1{opacity:0.5;}
	.st2{fill-rule:evenodd;clip-rule:evenodd;fill:#AEC3FF;}
	.st3{opacity:0.2;fill:#BDCBFF;}
	.st4{fill:#E1EAFF;}
	.st5{opacity:0.5924;fill:url(#SVGID_1_);}
	.st6{opacity:0.3;fill:url(#SVGID_2_);}
	.st7{opacity:0.15;fill:url(#SVGID_3_);}
	.st8{fill:#CDD6FF;}
	.st9{fill:url(#SVGID_4_);}
	.st10{fill:url(#SVGID_5_);}
	.st11{fill:url(#SVGID_6_);}
	.st12{fill:url(#SVGID_7_);}
	.st13{fill:url(#SVGID_8_);}
</style>
<g
   id="g4771">
	<g
   id="g4773"
   style="stroke:#5347c2;stroke-opacity:1;opacity:1">
		<polygon
   class="st0"
   points="465.4,509 338.4,582.5 338.4,625.4 499.9,717.9 647.5,632.5 664,622.9   "
   id="polygon4775"
   style="opacity:1;fill:#ffffff;fill-opacity:1;stroke-width:1;stroke-miterlimit:4;stroke-dasharray:none;stroke:#5347c2;stroke-opacity:1" />
		<g
   class="st1"
   id="g4777"
   style="stroke:none;stroke-opacity:1">
			<polygon
   class="st2"
   points="583.1,613.1 575.8,608.9 496,654.6 503.5,658.9    "
   id="polygon4779"
   style="stroke:none;stroke-opacity:1" />
			<polygon
   class="st2"
   points="490.7,553.3 483.1,549 403.5,594.5 410.9,598.9    "
   id="polygon4781"
   style="stroke:none;stroke-opacity:1" />
			<polygon
   class="st2"
   points="510.5,564.8 503.3,560.5 423.5,606.2 430.9,610.4    "
   id="polygon4783"
   style="stroke:none;stroke-opacity:1" />
			<polygon
   class="st2"
   points="544.2,590.6 536.7,586.5 457,632 464.5,636.4    "
   id="polygon4785"
   style="stroke:none;stroke-opacity:1" />
			<polygon
   class="st2"
   points="563.2,601.6 555.7,597.4 476,642.9 483.5,647.3    "
   id="polygon4787"
   style="stroke:none;stroke-opacity:1" />
			<polygon
   class="st2"
   points="392,587.9 471.6,542.3 464.1,538 384.5,583.5    "
   id="polygon4789"
   style="stroke:none;stroke-opacity:1" />
			<polygon
   class="st2"
   points="602.3,625 595,620.8 515.2,666.4 522.7,670.7    "
   id="polygon4791"
   style="stroke:none;stroke-opacity:1" />
		</g>
		
		<polygon
   class="st4"
   points="338.4,625.4 376.1,604 338.4,582.5   "
   id="polygon4799"
   style="stroke:#5347c2;stroke-opacity:1;opacity:0.5;fill:#cdd6ff;fill-opacity:1" />
	</g>
	<g
   id="g4801"
   transform="matrix(0.89100557,0,0,1,53.712454,0)">
		<g
   id="g4803">
			<linearGradient
   id="SVGID_1_"
   gradientUnits="userSpaceOnUse"
   x1="450.79099"
   y1="612.177"
   x2="534.87048"
   y2="612.177">
				<stop
   offset="0"
   style="stop-color:#5347C2"
   id="stop4806" />
				<stop
   offset="1"
   style="stop-color:#BAB5E7"
   id="stop4808" />
			</linearGradient>
			<path
   class="st5"
   d="m 522.6,595 c -16.4,-9.5 -43,-9.5 -59.5,0 -16.4,9.5 -16.4,24.8 0,34.3 16.4,9.5 43,9.5 59.5,0 16.4,-9.4 16.4,-24.8 0,-34.3 z"
   id="path4810"
   style="opacity:0.59239999;fill:url(#SVGID_1_)"
   inkscape:connector-curvature="0" />
			<linearGradient
   id="SVGID_2_"
   gradientUnits="userSpaceOnUse"
   x1="440.89859"
   y1="612.177"
   x2="544.76282"
   y2="612.177">
				<stop
   offset="0"
   style="stop-color:#5347C2"
   id="stop4813" />
				<stop
   offset="1"
   style="stop-color:#BAB5E7"
   id="stop4815" />
			</linearGradient>
			<path
   class="st6"
   d="m 529.6,589.7 c -20.3,-12.4 -53.2,-12.4 -73.4,0 -20.3,12.4 -20.3,32.6 0,45 20.3,12.4 53.2,12.4 73.4,0 20.2,-12.4 20.2,-32.6 0,-45 z"
   id="path4817"
   style="opacity:0.3;fill:url(#SVGID_2_)"
   inkscape:connector-curvature="0" />
			<linearGradient
   id="SVGID_3_"
   gradientUnits="userSpaceOnUse"
   x1="428.76389"
   y1="612.177"
   x2="556.89758"
   y2="612.177">
				<stop
   offset="0"
   style="stop-color:#5347C2"
   id="stop4820" />
				<stop
   offset="1"
   style="stop-color:#BAB5E7"
   id="stop4822" />
			</linearGradient>
			<path
   class="st7"
   d="m 538.1,584.4 c -25,-15.3 -65.6,-15.3 -90.6,0 -25,15.3 -25,40.2 0,55.5 25,15.3 65.6,15.3 90.6,0 25.1,-15.3 25.1,-40.2 0,-55.5 z"
   id="path4824"
   style="opacity:0.15;fill:url(#SVGID_3_)"
   inkscape:connector-curvature="0" />
		</g>
		<g
   id="g4826">
			<g
   id="g4828">
				<path
   class="st8"
   d="m 492.8,478.1 c -14.7,0 -26.6,-6.9 -26.6,-15.4 v 147.7 c 0,8.5 11.9,15.4 26.6,15.4 14.7,0 26.6,-6.9 26.6,-15.4 V 462.7 c 0,8.5 -11.9,15.4 -26.6,15.4 z"
   id="path4830"
   inkscape:connector-curvature="0"
   style="fill:#cdd6ff" />
				<path
   class="st8"
   d="m 492.8,478.1 c -14.7,0 -26.6,-6.9 -26.6,-15.4 0,-8.5 11.9,-15.4 26.6,-15.4 14.7,0 26.6,6.9 26.6,15.4 0,8.5 -11.9,15.4 -26.6,15.4 z"
   id="path4832"
   inkscape:connector-curvature="0"
   style="fill:#cdd6ff" />
			</g>
			<g
   id="g4834">
				<linearGradient
   id="SVGID_4_"
   gradientUnits="userSpaceOnUse"
   x1="306.97269"
   y1="485.58481"
   x2="530.54413"
   y2="485.58481">
					<stop
   offset="0"
   style="stop-color:#5347C2"
   id="stop4837" />
					<stop
   offset="1"
   style="stop-color:#BAB5E7"
   id="stop4839" />
				</linearGradient>
				<path
   class="st9"
   d="M 492.8,504.6 C 431.1,504.6 381,475.7 381,440.1 v 26.5 c 0,35.6 50,64.5 111.8,64.5 61.7,0 111.8,-28.9 111.8,-64.5 v -26.5 c 0,35.6 -50,64.5 -111.8,64.5 z"
   id="path4841"
   style="fill:url(#SVGID_4_)"
   inkscape:connector-curvature="0" />
				<linearGradient
   id="SVGID_5_"
   gradientUnits="userSpaceOnUse"
   x1="381.04501"
   y1="440.08841"
   x2="604.61639"
   y2="440.08841">
					<stop
   offset="0"
   style="stop-color:#5347C2"
   id="stop4844" />
					<stop
   offset="1"
   style="stop-color:#BAB5E7"
   id="stop4846" />
				</linearGradient>
				<path
   class="st10"
   d="m 492.8,504.6 c -61.7,0 -111.8,-28.9 -111.8,-64.5 0,-35.6 50,-64.5 111.8,-64.5 61.7,0 111.8,28.9 111.8,64.5 0,35.6 -50,64.5 -111.8,64.5 z"
   id="path4848"
   style="fill:url(#SVGID_5_)"
   inkscape:connector-curvature="0" />
			</g>
			<linearGradient
   id="SVGID_6_"
   gradientUnits="userSpaceOnUse"
   x1="434.36249"
   y1="392.75"
   x2="547.54053"
   y2="392.75">
				<stop
   offset="0"
   style="stop-color:#5347C2"
   id="stop4851" />
				<stop
   offset="1"
   style="stop-color:#BAB5E7"
   id="stop4853" />
			</linearGradient>
			<path
   class="st11"
   d="m 434.4,316 c 0,62.7 0,124.5 0,125.1 0,15.7 25.1,28.4 56.5,28.4 31.4,0 56.5,-12.7 56.5,-28.4 0,-0.4 0.1,-62.3 0.2,-125.1 H 434.4 z"
   id="path4855"
   style="fill:url(#SVGID_6_)"
   inkscape:connector-curvature="0" />
			<g
   id="g4857">
				<linearGradient
   id="SVGID_7_"
   gradientUnits="userSpaceOnUse"
   x1="356.3085"
   y1="358.58749"
   x2="542.44171"
   y2="358.58749">
					<stop
   offset="0"
   style="stop-color:#5347C2"
   id="stop4860" />
					<stop
   offset="1"
   style="stop-color:#BAB5E7"
   id="stop4862" />
				</linearGradient>
				<path
   class="st12"
   d="m 490.6,370.7 c -51.4,0 -93.1,-24.1 -93.1,-53.7 v 29.4 c 0,29.7 41.7,53.7 93.1,53.7 51.4,0 93.1,-24.1 93.1,-53.7 V 317 c -0.1,29.7 -41.7,53.7 -93.1,53.7 z"
   id="path4864"
   style="fill:url(#SVGID_7_)"
   inkscape:connector-curvature="0" />
				<linearGradient
   id="SVGID_8_"
   gradientUnits="userSpaceOnUse"
   x1="397.50461"
   y1="317.00769"
   x2="583.6394"
   y2="317.00769">
					<stop
   offset="0"
   style="stop-color:#5347C2"
   id="stop4867" />
					<stop
   offset="1"
   style="stop-color:#BAB5E7"
   id="stop4869" />
				</linearGradient>
				<path
   class="st13"
   d="m 490.6,370.7 c -51.4,0 -93.1,-24.1 -93.1,-53.7 0,-29.7 41.7,-53.7 93.1,-53.7 51.4,0 93.1,24.1 93.1,53.7 -0.1,29.7 -41.7,53.7 -93.1,53.7 z"
   id="path4871"
   style="fill:url(#SVGID_8_)"
   inkscape:connector-curvature="0" />
			</g>
		</g>
	</g>
</g>
</svg>