<?xml version="1.0" encoding="utf-8"?>
<!-- Generator: Adobe Illustrator 22.0.0, SVG Export Plug-In . SVG Version: 6.00 Build 0)  -->
<svg version="1.1" id="Laag_1" xmlns="http://www.w3.org/2000/svg" xmlns:xlink="http://www.w3.org/1999/xlink" x="0px" y="0px"
	 viewBox="200 200 600 600" style="enable-background:new 200 200 600 600;" xml:space="preserve">
<style type="text/css">
	.st0{fill:url(#SVGID_1_);}
	.st1{fill:url(#SVGID_2_);}
	.st2{fill:url(#SVGID_3_);}
	.st3{fill:url(#SVGID_4_);}
	.st4{fill:url(#SVGID_5_);}
	.st5{fill:url(#SVGID_6_);}
	.st6{fill:url(#SVGID_7_);}
	.st7{fill:#CDD6FF;}
	.st8{opacity:0.5;fill:#AEC3FF;}
	.st9{fill:url(#SVGID_8_);}
	.st10{fill:url(#SVGID_9_);}
</style>
<g>
	<g>
		<linearGradient id="SVGID_1_" gradientUnits="userSpaceOnUse" x1="516.2008" y1="562.5767" x2="451.8347" y2="562.5767">
			<stop  offset="0" style="stop-color:#5347C2"/>
			<stop  offset="1" style="stop-color:#BAB5E7"/>
		</linearGradient>
		<polygon class="st0" points="451.9,565.2 451.8,597.3 516.1,560 516.2,527.8 		"/>
		<linearGradient id="SVGID_2_" gradientUnits="userSpaceOnUse" x1="547.9097" y1="587.8144" x2="451.8347" y2="587.8144">
			<stop  offset="0" style="stop-color:#5347C2"/>
			<stop  offset="1" style="stop-color:#BAB5E7"/>
		</linearGradient>
		<polygon class="st1" points="516.1,560 451.8,597.3 483.6,615.7 547.9,578.3 		"/>
		<linearGradient id="SVGID_3_" gradientUnits="userSpaceOnUse" x1="508.3117" y1="524.3834" x2="437.3269" y2="540.787">
			<stop  offset="0" style="stop-color:#5347C2"/>
			<stop  offset="1" style="stop-color:#BAB5E7"/>
		</linearGradient>
		<path class="st2" d="M517,494.6c0,0-65.9,36.5-66,36.5c-11.3,6.6-7,25,0.8,33.8c0.1,0.1,0.1,0.2,0.1,0.3c0,0,64.2-37.3,64.3-37.4
			C515.8,528.1,511.8,497.6,517,494.6z"/>
		
			<linearGradient id="SVGID_4_" gradientUnits="userSpaceOnUse" x1="756.7021" y1="584.7798" x2="194.3197" y2="513.1188" gradientTransform="matrix(1 3.350741e-03 -3.350741e-03 1 1.478 -1.6827)">
			<stop  offset="0" style="stop-color:#5347C2"/>
			<stop  offset="1" style="stop-color:#BAB5E7"/>
		</linearGradient>
		<path class="st3" d="M585.7,485c-19-11.1-119.7-69.7-123.9-72.1c-4.9-2.9-11.9-4.8-17.1-1.7c0,0-64.4,37.1-64.4,37.1
			c1.1-0.6,180.4,135.5,179.1,136.2l3.3-2.3c-0.6,26.5-2.8,110.8-7.3,113.3c0,0,64.3-37.1,64.4-37.1c5.4-3.1,7.1-9.7,7.1-15.5
			c0,0,0.4-105.8,0.4-105.8c0-0.4,0-0.7,0-1.1C626.5,510.1,605.7,496.6,585.7,485z"/>
		<linearGradient id="SVGID_5_" gradientUnits="userSpaceOnUse" x1="527.6177" y1="558.3379" x2="307.9626" y2="608.6589">
			<stop  offset="0" style="stop-color:#5347C2"/>
			<stop  offset="1" style="stop-color:#BAB5E7"/>
		</linearGradient>
		<path class="st4" d="M539.1,532.5L397,450.4c-13.3-7.7-24.1-1.5-24.2,13.8V570c0,15.3,10.4,34,23.7,41.7l142.2,82.1
			c13.3,7.7,24.1,1.5,24.2-13.8V574.1C562.9,558.8,552.4,540.1,539.1,532.5z M483.7,583.6v32.1l-31.9-18.4l0.1-32.1
			c-3.4-6.3-5.5-13.2-5.5-19.5c0-13.6,9.7-19,21.5-12.2c11.8,6.8,21.4,23.3,21.3,36.9C489.3,576.7,487.1,581.2,483.7,583.6z"/>
		<g>
			<linearGradient id="SVGID_6_" gradientUnits="userSpaceOnUse" x1="511.5629" y1="383.6404" x2="544.59" y2="383.6404">
				<stop  offset="0" style="stop-color:#5347C2"/>
				<stop  offset="1" style="stop-color:#BAB5E7"/>
			</linearGradient>
			<path class="st5" d="M532.2,348.8c5.7,3.2,11.9,5.7,12.3,13.1c0.3,4.5-1.1,56.9-1.1,59.8l-31.9-18.5c0,0,0-56.8,0-56.8
				C511.6,345.3,524.4,344.5,532.2,348.8z"/>
			
				<linearGradient id="SVGID_7_" gradientUnits="userSpaceOnUse" x1="1134.0023" y1="385.8707" x2="1260.4198" y2="385.8707" gradientTransform="matrix(-1 0 0 1 1690.5653 0)">
				<stop  offset="0" style="stop-color:#5347C2"/>
				<stop  offset="1" style="stop-color:#BAB5E7"/>
			</linearGradient>
			<path class="st6" d="M430.2,391.7c0.2-8.5,2.3-16.9,5.4-24.9c2.5-6.5,5.8-12.8,9.7-18.6c3.2-4.8,7-9.6,11.1-13.8
				c10.9-11.1,25.9-18,39.3-25.8c0.4-0.3,0.9-0.5,1.3-0.7c6.6-3.6,14.7-6,22.3-4.3c0.8,0.2,1.5,0.4,2.3,0.6c0.1,0,0.1,0.1,0.2,0.1
				c1.1,0.4,2.2,0.9,3.1,1.5c0,0,31.7,18.4,31.8,18.5c-12.2-7.1-94.7,70.6-94.7,87.8v56.8l-31.8-18.5c0,0,0-56.8,0-56.8
				C430.1,392.9,430.2,392.3,430.2,391.7z"/>
			<path class="st7" d="M502.7,341.3l24.7-14.2c22.6-13.1,41-2.5,41.1,23.4v56.8l-25.1,14.5V365c0-10-7.2-14-15.9-9l-24.7,14.2
				c-8.7,5-15.7,17.2-15.7,27.2v56.8l-25.3,14.5V412C461.4,371.1,480.1,354.3,502.7,341.3z"/>
		</g>
	</g>
	<path class="st8" d="M536.8,678.1c-3,0-6.3-1-9.7-2.9l-121-68.6c-11.5-6.5-20.8-22.6-20.7-35.8v-88.5c0-6.5,2.3-11.5,6.5-13.9
		c4.3-2.5,9.8-2,15.7,1.4l121,68.6c11.5,6.5,20.8,22.6,20.7,35.8v88.5c0,6.5-2.3,11.5-6.5,13.9C541,677.6,539,678.1,536.8,678.1z
		 M397.7,469c-1.8,0-3.5,0.4-4.9,1.3c-3.5,2-5.4,6.3-5.4,12v88.5c0,12.5,8.8,27.7,19.6,33.9l121,68.6c5.2,2.9,10,3.4,13.6,1.4
		c3.5-2,5.4-6.3,5.4-12v-88.5c0-12.5-8.8-27.7-19.6-33.9l-121-68.6C403.3,469.9,400.4,469,397.7,469z"/>
	<g>
		<linearGradient id="SVGID_8_" gradientUnits="userSpaceOnUse" x1="532.3571" y1="503.6751" x2="561.9757" y2="503.6751">
			<stop  offset="0" style="stop-color:#5347C2"/>
			<stop  offset="0.7842" style="stop-color:#A49DDF"/>
			<stop  offset="1" style="stop-color:#BAB5E7"/>
		</linearGradient>
		<polygon class="st9" points="552.7,520.8 523.1,503.7 552.7,486.6 		"/>
		<linearGradient id="SVGID_9_" gradientUnits="userSpaceOnUse" x1="563.5371" y1="507.0952" x2="591.3905" y2="542.6736">
			<stop  offset="0" style="stop-color:#5347C2"/>
			<stop  offset="1" style="stop-color:#BAB5E7"/>
		</linearGradient>
		<polygon class="st10" points="552.7,486.6 552.7,520.8 582.4,503.7 		"/>
	</g>
</g>
</svg>
