<?xml version="1.0" encoding="utf-8"?>
<!-- Generator: Adobe Illustrator 23.0.3, SVG Export Plug-In . SVG Version: 6.00 Build 0)  -->
<svg version="1.1" id="Layer_1" xmlns="http://www.w3.org/2000/svg" xmlns:xlink="http://www.w3.org/1999/xlink" x="0px" y="0px"
	 viewBox="0 0 58 58" style="enable-background:new 0 0 58 58;" xml:space="preserve">
<path d="M29,38.5c-1.5,0-2.8-1.3-2.8-2.8s1.3-2.8,2.8-2.8s2.8,1.3,2.8,2.8S30.6,38.5,29,38.5 M29,30.4c-2.9,0-5.2,2.3-5.2,5.2
	c0,2.2,1.3,4.1,3.3,4.9l0.6,0.2v6.9c0,0.7,0.5,1.3,1.2,1.3s1.2-0.5,1.2-1.3v-6.9l0.6-0.2c2-0.8,3.3-2.7,3.3-4.9
	C34.3,32.8,31.9,30.4,29,30.4"/>
<path d="M40.9,13c0-6.6-5.3-11.9-11.9-11.9S17.1,6.4,17.1,13v9.5h-5.8c-2.7,0-4.9,2.2-4.9,4.9V52c0,2.7,2.2,4.9,4.9,4.9h35.3
	c2.7,0,4.9-2.2,4.9-4.9V27.4c0-1.3-0.5-2.6-1.4-3.5c-0.9-1-2.1-1.5-3.4-1.5h-5.8l-2.4,0.1h-19V13c0-5.2,4.3-9.5,9.5-9.5
	s9.5,4.3,9.5,9.5v0c0,0.7,0.5,1.2,1.2,1.2C40.4,14.2,40.9,13.7,40.9,13L40.9,13z M49.2,52c0,1.4-1.1,2.5-2.5,2.5H11.4
	c-1.4,0-2.5-1.1-2.5-2.5V27.4c0-1.4,1.1-2.5,2.5-2.5h35.2c1.4,0,2.5,1.1,2.5,2.5V51h0.1V52z"/>
<path d="M48.4,8.1L45,14c-0.3,0.5-0.9,0.7-1.4,0.4l0,0c-0.5-0.3-0.7-0.9-0.4-1.4l3.4-5.9c0.3-0.5,0.9-0.7,1.4-0.4v0
	C48.6,7,48.7,7.6,48.4,8.1z"/>
<path d="M53.8,20.7h-6.8c-0.6,0-1.1-0.5-1.1-1.1v0c0-0.6,0.5-1.1,1.1-1.1h6.8c0.6,0,1.1,0.5,1.1,1.1v0
	C54.8,20.3,54.3,20.7,53.8,20.7z"/>
<path d="M52.5,13.6l-5.7,3.7c-0.5,0.3-1.1,0.2-1.5-0.3v0c-0.3-0.5-0.2-1.1,0.3-1.5l5.7-3.7c0.5-0.3,1.1-0.2,1.5,0.3v0
	C53.2,12.6,53,13.3,52.5,13.6z"/>
</svg>
