<?xml version="1.0" encoding="UTF-8" standalone="no"?>
<!-- Generator: Adobe Illustrator 23.0.6, SVG Export Plug-In . SVG Version: 6.00 Build 0)  -->

<svg
   xmlns:osb="http://www.openswatchbook.org/uri/2009/osb"
   xmlns:dc="http://purl.org/dc/elements/1.1/"
   xmlns:cc="http://creativecommons.org/ns#"
   xmlns:rdf="http://www.w3.org/1999/02/22-rdf-syntax-ns#"
   xmlns:svg="http://www.w3.org/2000/svg"
   xmlns="http://www.w3.org/2000/svg"
   xmlns:xlink="http://www.w3.org/1999/xlink"
   xmlns:sodipodi="http://sodipodi.sourceforge.net/DTD/sodipodi-0.dtd"
   xmlns:inkscape="http://www.inkscape.org/namespaces/inkscape"
   version="1.1"
   id="Laag_1"
   x="0px"
   y="0px"
   viewBox="150 150 700 700"
   style="enable-background:new 150 150 700 700;"
   xml:space="preserve"
   inkscape:version="0.48.2 r9819"
   width="100%"
   height="100%"
   sodipodi:docname="encrypted-hosting.svg"><metadata
   id="metadata3849"><rdf:RDF><cc:Work
       rdf:about=""><dc:format>image/svg+xml</dc:format><dc:type
         rdf:resource="http://purl.org/dc/dcmitype/StillImage" /></cc:Work></rdf:RDF></metadata><defs
   id="defs3847"><linearGradient
     id="linearGradient4619"
     osb:paint="solid"><stop
       style="stop-color:#5347c2;stop-opacity:1;"
       offset="0"
       id="stop4621" /></linearGradient><linearGradient
     inkscape:collect="always"
     xlink:href="#linearGradient4619"
     id="linearGradient4623"
     x1="450.1"
     y1="366.75"
     x2="533.5"
     y2="366.75"
     gradientUnits="userSpaceOnUse" /></defs><sodipodi:namedview
   pagecolor="#ffffff"
   bordercolor="#666666"
   borderopacity="1"
   objecttolerance="10"
   gridtolerance="10"
   guidetolerance="10"
   inkscape:pageopacity="0"
   inkscape:pageshadow="2"
   inkscape:window-width="1680"
   inkscape:window-height="987"
   id="namedview3845"
   showgrid="false"
   inkscape:zoom="0.8078779"
   inkscape:cx="409.62093"
   inkscape:cy="366.63564"
   inkscape:window-x="1272"
   inkscape:window-y="-8"
   inkscape:window-maximized="1"
   inkscape:current-layer="g3421" />
<style
   type="text/css"
   id="style3419">
	.st0{fill:url(#SVGID_1_);}
	.st1{fill:url(#SVGID_2_);}
	.st2{fill:url(#SVGID_3_);}
	.st3{fill:none;stroke:url(#SVGID_4_);stroke-width:2;stroke-miterlimit:10;}
	.st4{fill:url(#SVGID_5_);}
	.st5{fill:url(#SVGID_6_);}
	.st6{fill:url(#SVGID_7_);}
	.st7{fill:#AEC3FF;}
	.st8{fill:url(#SVGID_8_);}
	.st9{fill:url(#SVGID_9_);}
	.st10{fill:url(#SVGID_10_);}
	.st11{fill:url(#SVGID_11_);}
	.st12{fill:url(#SVGID_12_);}
	.st13{fill:url(#SVGID_13_);}
	.st14{fill:url(#SVGID_14_);}
	.st15{fill:url(#SVGID_15_);}
	.st16{fill:url(#SVGID_16_);}
	.st17{fill:#34317C;}
	.st18{fill:#666666;}
	.st19{fill:url(#path5106_1_);}
	.st20{fill:url(#path5064_1_);}
	.st21{fill:url(#path5052_1_);}
	.st22{fill:#CDD6FF;}
	.st23{fill:#E1EAFF;}
	.st24{fill:#F8F9FC;}
	.st25{fill:#D7E7F7;}
	.st26{fill:#B9D7EF;}
	.st27{fill:url(#path5056_1_);}
	.st28{fill:url(#SVGID_17_);}
	.st29{fill:url(#path5108_2_);}
	.st30{fill:url(#path5110_1_);}
	.st31{fill:url(#path5112_1_);}
	.st32{fill:url(#SVGID_18_);}
	.st33{fill:url(#SVGID_19_);}
	.st34{fill:url(#SVGID_20_);}
	.st35{fill:none;stroke:url(#SVGID_21_);stroke-width:2;stroke-miterlimit:10;}
	.st36{opacity:0.2;}
	.st37{fill:url(#SVGID_22_);}
	.st38{fill:url(#SVGID_23_);}
</style>
<g
   id="g3421">
	<g
   id="g3423">
		<g
   id="g3425">
			<g
   id="g3427">
				<g
   id="g3429">
					
						<linearGradient
   id="SVGID_1_"
   gradientUnits="userSpaceOnUse"
   x1="1207.8862"
   y1="-210.961"
   x2="1379.8977"
   y2="-210.961"
   gradientTransform="matrix(0.866 0.5 -1 0.5774 -925.6691 -136.3844)">
						<stop
   offset="0"
   style="stop-color:#5347C2"
   id="stop3432" />
						<stop
   offset="1"
   style="stop-color:#BAB5E7"
   id="stop3434" />
					</linearGradient>
					<polygon
   class="st0"
   points="406.2,475.5 256.4,389 406.2,302.5 556,389      "
   id="polygon3436" />
					
						<linearGradient
   id="SVGID_2_"
   gradientUnits="userSpaceOnUse"
   x1="2705.7095"
   y1="1296.542"
   x2="2877.7153"
   y2="1296.542"
   gradientTransform="matrix(0.866 -0.5 0 1.1547 -1936.9126 434.5197)">
						<stop
   offset="0"
   style="stop-color:#5347C2"
   id="stop3439" />
						<stop
   offset="1"
   style="stop-color:#BAB5E7"
   id="stop3441" />
					</linearGradient>
					<polygon
   class="st1"
   points="556,595.6 406.2,682.1 406.2,475.5 556,389      "
   id="polygon3443" />
					
						<linearGradient
   id="SVGID_3_"
   gradientUnits="userSpaceOnUse"
   x1="2411.5168"
   y1="3.7025"
   x2="2669.9119"
   y2="3.7025"
   gradientTransform="matrix(0.866 0.5 0 1.1547 -1930.2139 -774.4803)">
						<stop
   offset="0"
   style="stop-color:#5347C2"
   id="stop3446" />
						<stop
   offset="1"
   style="stop-color:#BAB5E7"
   id="stop3448" />
					</linearGradient>
					<polygon
   class="st2"
   points="406.2,682.1 256.4,595.6 256.4,389 406.2,475.5      "
   id="polygon3450" />
					<linearGradient
   id="SVGID_4_"
   gradientUnits="userSpaceOnUse"
   x1="279.0445"
   y1="386.5432"
   x2="532.2552"
   y2="386.5432">
						<stop
   offset="0"
   style="stop-color:#5347C2"
   id="stop3453" />
						<stop
   offset="1"
   style="stop-color:#BAB5E7"
   id="stop3455" />
					</linearGradient>
					<polygon
   class="st3"
   points="405.7,458.5 281,386.5 405.6,314.6 530.3,386.5      "
   id="polygon3457" />
				</g>
			</g>
			<g
   id="g3459">
				<g
   id="g3461">
					<g
   id="g3463">
						
							<linearGradient
   id="SVGID_5_"
   gradientUnits="userSpaceOnUse"
   x1="522.3693"
   y1="510.1855"
   x2="529.5297"
   y2="510.1855"
   gradientTransform="matrix(-1 0 0 1 810.3626 0)">
							<stop
   offset="0"
   style="stop-color:#C4E8FA"
   id="stop3466" />
							<stop
   offset="1"
   style="stop-color:#E3F4FC"
   id="stop3468" />
						</linearGradient>
						<path
   class="st4"
   d="M284.4,506.1c2,1.1,3.6,3.9,3.5,6.2c0,2.3-1.6,3.2-3.6,2c-2-1.2-3.6-3.9-3.6-6.2        C280.8,505.9,282.4,504.9,284.4,506.1z"
   id="path3470" />
					</g>
					<g
   id="g3472">
						
							<linearGradient
   id="SVGID_6_"
   gradientUnits="userSpaceOnUse"
   x1="488.8659"
   y1="529.5193"
   x2="496.0262"
   y2="529.5193"
   gradientTransform="matrix(-1 0 0 1 810.3626 0)">
							<stop
   offset="0"
   style="stop-color:#C4E8FA"
   id="stop3475" />
							<stop
   offset="1"
   style="stop-color:#E3F4FC"
   id="stop3477" />
						</linearGradient>
						<path
   class="st5"
   d="M317.9,525.4c2,1.2,3.6,3.9,3.6,6.2c0,2.3-1.6,3.2-3.6,2c-2-1.1-3.6-3.9-3.5-6.1        C314.3,525.2,315.9,524.2,317.9,525.4z"
   id="path3479" />
					</g>
					<g
   id="g3481">
						
							<linearGradient
   id="SVGID_7_"
   gradientUnits="userSpaceOnUse"
   x1="472.1147"
   y1="539.191"
   x2="479.2744"
   y2="539.191"
   gradientTransform="matrix(-1 0 0 1 810.3626 0)">
							<stop
   offset="0"
   style="stop-color:#C4E8FA"
   id="stop3484" />
							<stop
   offset="1"
   style="stop-color:#E3F4FC"
   id="stop3486" />
						</linearGradient>
						<path
   class="st6"
   d="M334.7,535.1c2,1.2,3.6,3.9,3.6,6.2c0,2.3-1.6,3.2-3.6,2c-2-1.1-3.6-3.9-3.5-6.1        C331.1,534.9,332.7,533.9,334.7,535.1z"
   id="path3488" />
					</g>
				</g>
				<path
   class="st7"
   d="M383.1,586.5c-0.6,0-1.3-0.2-1.9-0.6l-106.6-61.5c-2.3-1.3-4.2-4.8-4.2-7.9v-29.1c0-1.8,0.6-3.2,1.7-3.8      c1-0.6,2.2-0.5,3.3,0.2l106.6,61.5c2.3,1.3,4.2,4.8,4.2,7.9v29.1c0,1.8-0.6,3.2-1.7,3.8C384.1,586.4,383.6,586.5,383.1,586.5z       M382.1,584.3c0.4,0.2,1,0.5,1.5,0.2c0.5-0.3,0.8-1.1,0.8-2.2v-29.1c0-2.4-1.5-5.3-3.2-6.3l-106.6-61.5c-0.4-0.2-1-0.5-1.5-0.2      c-0.5,0.3-0.8,1.1-0.8,2.2v29.1c0,2.4,1.5,5.3,3.2,6.3L382.1,584.3z"
   id="path3490" />
			</g>
			<g
   id="g3492">
				<g
   id="g3494">
					<g
   id="g3496">
						
							<linearGradient
   id="SVGID_8_"
   gradientUnits="userSpaceOnUse"
   x1="522.3693"
   y1="454.0489"
   x2="529.5297"
   y2="454.0489"
   gradientTransform="matrix(-1 0 0 1 810.3626 0)">
							<stop
   offset="0"
   style="stop-color:#C4E8FA"
   id="stop3499" />
							<stop
   offset="1"
   style="stop-color:#E3F4FC"
   id="stop3501" />
						</linearGradient>
						<path
   class="st8"
   d="M284.4,449.9c2,1.1,3.6,3.9,3.5,6.2c0,2.3-1.6,3.2-3.6,2c-2-1.2-3.6-3.9-3.6-6.2        C280.8,449.7,282.4,448.8,284.4,449.9z"
   id="path3503" />
					</g>
					<g
   id="g3505">
						
							<linearGradient
   id="SVGID_9_"
   gradientUnits="userSpaceOnUse"
   x1="488.8659"
   y1="473.3828"
   x2="496.0262"
   y2="473.3828"
   gradientTransform="matrix(-1 0 0 1 810.3626 0)">
							<stop
   offset="0"
   style="stop-color:#C4E8FA"
   id="stop3508" />
							<stop
   offset="1"
   style="stop-color:#E3F4FC"
   id="stop3510" />
						</linearGradient>
						<path
   class="st9"
   d="M317.9,469.3c2,1.2,3.6,3.9,3.6,6.2c0,2.3-1.6,3.2-3.6,2c-2-1.1-3.6-3.9-3.5-6.1        C314.3,469.1,315.9,468.1,317.9,469.3z"
   id="path3512" />
					</g>
					<g
   id="g3514">
						
							<linearGradient
   id="SVGID_10_"
   gradientUnits="userSpaceOnUse"
   x1="472.1147"
   y1="483.0544"
   x2="479.2744"
   y2="483.0544"
   gradientTransform="matrix(-1 0 0 1 810.3626 0)">
							<stop
   offset="0"
   style="stop-color:#C4E8FA"
   id="stop3517" />
							<stop
   offset="1"
   style="stop-color:#E3F4FC"
   id="stop3519" />
						</linearGradient>
						<path
   class="st10"
   d="M334.7,478.9c2,1.2,3.6,3.9,3.6,6.2c0,2.3-1.6,3.2-3.6,2c-2-1.1-3.6-3.9-3.5-6.1        C331.1,478.7,332.7,477.8,334.7,478.9z"
   id="path3521" />
					</g>
				</g>
				<path
   class="st7"
   d="M383.1,530.3c-0.6,0-1.3-0.2-1.9-0.6l-106.6-61.5c-2.3-1.3-4.2-4.8-4.2-7.9v-29.1c0-1.8,0.6-3.2,1.7-3.8      c1-0.6,2.2-0.5,3.3,0.2l106.6,61.5c2.3,1.3,4.2,4.8,4.2,7.9v29.1c0,1.8-0.6,3.2-1.7,3.8C384.1,530.2,383.6,530.3,383.1,530.3z       M382.1,528.2c0.4,0.2,1,0.5,1.5,0.2c0.5-0.3,0.8-1.1,0.8-2.2V497c0-2.4-1.5-5.3-3.2-6.3l-106.6-61.5c-0.4-0.2-1-0.5-1.5-0.2      c-0.5,0.3-0.8,1.1-0.8,2.2v29.1c0,2.4,1.5,5.3,3.2,6.3L382.1,528.2z"
   id="path3523" />
			</g>
			<g
   id="g3525">
				<g
   id="g3527">
					<g
   id="g3529">
						
							<linearGradient
   id="SVGID_11_"
   gradientUnits="userSpaceOnUse"
   x1="522.3693"
   y1="569.6508"
   x2="529.5297"
   y2="569.6508"
   gradientTransform="matrix(-1 0 0 1 810.3626 0)">
							<stop
   offset="0"
   style="stop-color:#C4E8FA"
   id="stop3532" />
							<stop
   offset="1"
   style="stop-color:#E3F4FC"
   id="stop3534" />
						</linearGradient>
						<path
   class="st11"
   d="M284.4,565.5c2,1.1,3.6,3.9,3.5,6.2c0,2.3-1.6,3.2-3.6,2c-2-1.2-3.6-3.9-3.6-6.2        C280.8,565.3,282.4,564.4,284.4,565.5z"
   id="path3536" />
					</g>
					<g
   id="g3538">
						
							<linearGradient
   id="SVGID_12_"
   gradientUnits="userSpaceOnUse"
   x1="488.8659"
   y1="588.9847"
   x2="496.0262"
   y2="588.9847"
   gradientTransform="matrix(-1 0 0 1 810.3626 0)">
							<stop
   offset="0"
   style="stop-color:#C4E8FA"
   id="stop3541" />
							<stop
   offset="1"
   style="stop-color:#E3F4FC"
   id="stop3543" />
						</linearGradient>
						<path
   class="st12"
   d="M317.9,584.9c2,1.2,3.6,3.9,3.6,6.2c0,2.3-1.6,3.2-3.6,2c-2-1.1-3.6-3.9-3.5-6.1        C314.3,584.7,315.9,583.7,317.9,584.9z"
   id="path3545" />
					</g>
					<g
   id="g3547">
						
							<linearGradient
   id="SVGID_13_"
   gradientUnits="userSpaceOnUse"
   x1="472.1147"
   y1="598.6563"
   x2="479.2744"
   y2="598.6563"
   gradientTransform="matrix(-1 0 0 1 810.3626 0)">
							<stop
   offset="0"
   style="stop-color:#C4E8FA"
   id="stop3550" />
							<stop
   offset="1"
   style="stop-color:#E3F4FC"
   id="stop3552" />
						</linearGradient>
						<path
   class="st13"
   d="M334.7,594.5c2,1.2,3.6,3.9,3.6,6.2c0,2.3-1.6,3.2-3.6,2c-2-1.1-3.6-3.9-3.5-6.1        C331.1,594.3,332.7,593.4,334.7,594.5z"
   id="path3554" />
					</g>
				</g>
				<path
   class="st7"
   d="M383.1,645.9c-0.6,0-1.3-0.2-1.9-0.6l-106.6-61.5c-2.3-1.3-4.2-4.8-4.2-7.9v-29.1c0-1.8,0.6-3.2,1.7-3.8      c1-0.6,2.2-0.5,3.3,0.2l106.6,61.5c2.3,1.3,4.2,4.8,4.2,7.9v29.1c0,1.8-0.6,3.2-1.7,3.8C384.1,645.8,383.6,645.9,383.1,645.9z       M382.1,643.8c0.4,0.2,1,0.5,1.5,0.2c0.5-0.3,0.8-1.1,0.8-2.2v-29.1c0-2.4-1.5-5.3-3.2-6.3l-106.6-61.5c-0.4-0.2-1-0.5-1.5-0.2      c-0.5,0.3-0.8,1.1-0.8,2.2V576c0,2.4,1.5,5.3,3.2,6.3L382.1,643.8z"
   id="path3556" />
			</g>
		</g>
	</g>
	<g
   id="g3558">
		<g
   id="g3560">
			<g
   id="g3562">
				
					<linearGradient
   id="SVGID_14_"
   gradientUnits="userSpaceOnUse"
   x1="1396"
   y1="-211.7525"
   x2="1569.4467"
   y2="-211.7525"
   gradientTransform="matrix(0.866 0.5 -1 0.5774 -925.6691 -136.3844)">
					<stop
   offset="0"
   style="stop-color:#5347C2"
   id="stop3565" />
					<stop
   offset="1"
   style="stop-color:#BAB5E7"
   id="stop3567" />
				</linearGradient>
				<polygon
   class="st14"
   points="570.6,570.2 419.5,483 570.6,395.7 721.6,483     "
   id="polygon3569" />
				
					<linearGradient
   id="SVGID_15_"
   gradientUnits="userSpaceOnUse"
   x1="2895.459"
   y1="1461.4497"
   x2="3068.8999"
   y2="1461.4497"
   gradientTransform="matrix(0.866 -0.5 0 1.1547 -1936.9126 434.5197)">
					<stop
   offset="0"
   style="stop-color:#5347C2"
   id="stop3572" />
					<stop
   offset="1"
   style="stop-color:#BAB5E7"
   id="stop3574" />
				</linearGradient>
				<polygon
   class="st15"
   points="721.6,691.3 570.6,778.5 570.6,570.2 721.6,483     "
   id="polygon3576" />
				
					<linearGradient
   id="SVGID_16_"
   gradientUnits="userSpaceOnUse"
   x1="2598.8762"
   y1="4.2822"
   x2="2859.427"
   y2="4.2822"
   gradientTransform="matrix(0.866 0.5 0 1.1547 -1930.2139 -774.4803)">
					<stop
   offset="0"
   style="stop-color:#5347C2"
   id="stop3579" />
					<stop
   offset="1"
   style="stop-color:#BAB5E7"
   id="stop3581" />
				</linearGradient>
				<polygon
   class="st16"
   points="570.6,778.5 419.5,691.3 419.5,483 570.6,570.2     "
   id="polygon3583" />
			</g>
		</g>
		<path
   id="path5108_4_"
   class="st17"
   d="M570.7,602.4l-149.9-86.5v98.9l149.9,86.5V602.4z" />
		<path
   id="path5042_2_"
   class="st18"
   d="M422.6,663.9l86.7-50.1l61.9,35.8v100.1L422.6,663.9z" />
		
			<linearGradient
   id="path5106_1_"
   gradientUnits="userSpaceOnUse"
   x1="438.8157"
   y1="642.4206"
   x2="562.9683"
   y2="642.4206"
   gradientTransform="matrix(-1 0 0 1 998.0006 0)">
			<stop
   offset="0"
   style="stop-color:#5347C2"
   id="stop3588" />
			<stop
   offset="1"
   style="stop-color:#BAB5E7"
   id="stop3590" />
		</linearGradient>
		<path
   id="path5106_2_"
   class="st19"
   d="M497.1,606.7l62.1,35.8l-62.1,35.8L435,642.4L497.1,606.7z" />
		<linearGradient
   id="path5064_1_"
   gradientUnits="userSpaceOnUse"
   x1="373.11"
   y1="606.6698"
   x2="496.9545"
   y2="606.6698">
			<stop
   offset="0"
   style="stop-color:#5347C2"
   id="stop3594" />
			<stop
   offset="1"
   style="stop-color:#BAB5E7"
   id="stop3596" />
		</linearGradient>
		<path
   id="path5064_2_"
   class="st20"
   d="M435,570.9l61.9,35.8L435,642.4l-61.9-35.8L435,570.9z" />
		
			<linearGradient
   id="path5052_1_"
   gradientUnits="userSpaceOnUse"
   x1="562.9683"
   y1="588.7944"
   x2="649.6595"
   y2="588.7944"
   gradientTransform="matrix(-1 0 0 1 998.0006 0)">
			<stop
   offset="0"
   style="stop-color:#5347C2"
   id="stop3600" />
			<stop
   offset="1"
   style="stop-color:#BAB5E7"
   id="stop3602" />
		</linearGradient>
		<path
   id="path5052_2_"
   class="st21"
   d="M422.6,563.8l-74.3,42.9l12.4,7.2l74.3-42.9L422.6,563.8z" />
		<g
   id="g3605">
			<polygon
   class="st22"
   points="405.6,570.4 465.1,604.7 465.1,534.2 445.3,492.6 405.6,469.6    "
   id="polygon3607" />
			<polygon
   class="st23"
   points="465.1,534.2 465.1,534.2 445.3,492.6 445.3,522.8    "
   id="polygon3609" />
			<g
   id="g3611">
				<g
   id="g3613">
					<polygon
   class="st7"
   points="417.8,545.5 417.8,549.6 456.1,571.7 456.2,567.7      "
   id="polygon3615" />
				</g>
				<g
   id="g3617">
					<polygon
   class="st7"
   points="417.9,528.4 417.9,532.4 456.2,554.5 456.2,550.5      "
   id="polygon3619" />
				</g>
				<g
   id="g3621">
					<polygon
   class="st7"
   points="430.3,527 430.3,531 456.2,546 456.2,541.9      "
   id="polygon3623" />
				</g>
				<g
   id="g3625">
					<polygon
   class="st7"
   points="417.9,537 417.8,541 456.2,563.1 456.2,559.1      "
   id="polygon3627" />
				</g>
				<g
   id="g3629">
					<polygon
   class="st7"
   points="417.8,562.7 417.8,566.7 456.1,588.8 456.1,584.8      "
   id="polygon3631" />
				</g>
				<g
   id="g3633">
					<polygon
   class="st7"
   points="417.8,554.1 417.8,558.1 456.1,580.3 456.1,576.2      "
   id="polygon3635" />
				</g>
			</g>
		</g>
		<g
   id="g3637">
			<g
   id="g3639">
				<polygon
   class="st24"
   points="480.6,679.9 540.1,714.1 540.1,643.6 520.3,602.1 480.6,579     "
   id="polygon3641" />
				<polygon
   class="st23"
   points="540.1,643.6 540.1,643.6 520.3,602.1 520.3,632.3     "
   id="polygon3643" />
			</g>
			<g
   id="g3645">
				<polygon
   class="st25"
   points="475.3,683.8 534.8,718 534.8,647.5 515,606 475.3,582.9     "
   id="polygon3647" />
				<polygon
   class="st26"
   points="534.8,647.5 534.8,647.5 515,606 515,636.1     "
   id="polygon3649" />
			</g>
			<g
   id="g3651">
				<polygon
   class="st24"
   points="469.5,687.3 529.1,721.5 529.1,651 509.3,609.4 469.5,586.4     "
   id="polygon3653" />
				<polygon
   class="st23"
   points="529.1,651 529.1,651 509.3,609.4 509.3,639.6     "
   id="polygon3655" />
			</g>
			<g
   id="g3657">
				<polygon
   class="st25"
   points="464.2,691.2 523.8,725.4 523.8,654.9 504,613.3 464.2,590.3     "
   id="polygon3659" />
				<polygon
   class="st26"
   points="523.8,654.9 523.8,654.9 504,613.3 504,643.5     "
   id="polygon3661" />
			</g>
			<g
   id="g3663">
				<polygon
   class="st24"
   points="458.5,694.6 518,728.9 518,658.4 498.2,616.8 458.5,593.8     "
   id="polygon3665" />
				<polygon
   class="st23"
   points="518,658.4 518,658.4 498.2,616.8 498.2,647     "
   id="polygon3667" />
			</g>
		</g>
		
			<linearGradient
   id="path5056_1_"
   gradientUnits="userSpaceOnUse"
   x1="426.7393"
   y1="721.0725"
   x2="501.0461"
   y2="721.0725"
   gradientTransform="matrix(-1 0 0 1 998.0006 0)">
			<stop
   offset="0"
   style="stop-color:#5347C2"
   id="stop3670" />
			<stop
   offset="1"
   style="stop-color:#BAB5E7"
   id="stop3672" />
		</linearGradient>
		<path
   id="path5056_2_"
   class="st27"
   d="M571.3,649.6v100.1L497,792.6V692.5L571.3,649.6z" />
		<g
   id="g3675">
			<g
   id="g3677">
				<polygon
   class="st24"
   points="395.2,635.7 454.8,669.9 454.8,599.4 435,557.9 395.2,534.8     "
   id="polygon3679" />
				<polygon
   class="st23"
   points="454.8,599.4 454.8,599.4 435,557.9 435,588     "
   id="polygon3681" />
			</g>
			<g
   id="g3683">
				<polygon
   class="st25"
   points="389.9,639.6 449.5,673.8 449.5,603.3 429.7,561.7 389.9,538.7     "
   id="polygon3685" />
				<polygon
   class="st26"
   points="449.5,603.3 449.5,603.3 429.7,561.7 429.7,591.9     "
   id="polygon3687" />
			</g>
			<g
   id="g3689">
				<polygon
   class="st24"
   points="384.2,643 443.7,677.3 443.7,606.8 423.9,565.2 384.2,542.2     "
   id="polygon3691" />
				<polygon
   class="st23"
   points="443.7,606.8 443.7,606.8 423.9,565.2 423.9,595.4     "
   id="polygon3693" />
			</g>
			<g
   id="g3695">
				<polygon
   class="st25"
   points="378.8,646.9 438.4,681.2 438.4,610.7 418.6,569.1 378.8,546.1     "
   id="polygon3697" />
				<polygon
   class="st26"
   points="438.4,610.7 438.4,610.7 418.6,569.1 418.6,599.3     "
   id="polygon3699" />
			</g>
			<g
   id="g3701">
				<polygon
   class="st24"
   points="373.1,650.4 432.7,684.7 432.7,614.2 412.9,572.6 373.1,549.5     "
   id="polygon3703" />
				<polygon
   class="st23"
   points="432.7,614.2 432.7,614.2 412.9,572.6 412.9,602.8     "
   id="polygon3705" />
			</g>
		</g>
		<linearGradient
   id="SVGID_17_"
   gradientUnits="userSpaceOnUse"
   x1="509.3652"
   y1="657.0009"
   x2="570.7506"
   y2="657.0009">
			<stop
   offset="0"
   style="stop-color:#5347C2"
   id="stop3708" />
			<stop
   offset="1"
   style="stop-color:#BAB5E7"
   id="stop3710" />
		</linearGradient>
		<polygon
   class="st28"
   points="509.4,671.1 570.8,635.8 570.8,649.9 521.7,678.2   "
   id="polygon3712" />
		<g
   id="g5114_2_"
   transform="translate(-207.8461,40)">
			
				<linearGradient
   id="path5108_2_"
   gradientUnits="userSpaceOnUse"
   x1="696.5077"
   y1="652.4719"
   x2="869.89"
   y2="652.4719"
   gradientTransform="matrix(-1 0 0 1 1413.6929 0)">
				<stop
   offset="0"
   style="stop-color:#5347C2"
   id="stop3716" />
				<stop
   offset="1"
   style="stop-color:#BAB5E7"
   id="stop3718" />
			</linearGradient>
			<path
   id="path5108_1_"
   class="st29"
   d="M717.2,645.3L543.8,545.2v114.4l173.4,100.1V645.3z" />
			
				<linearGradient
   id="path5110_1_"
   gradientUnits="userSpaceOnUse"
   x1="684.1232"
   y1="591.6954"
   x2="869.89"
   y2="591.6954"
   gradientTransform="matrix(-1 0 0 1 1413.6929 0)">
				<stop
   offset="0"
   style="stop-color:#5347C2"
   id="stop3722" />
				<stop
   offset="1"
   style="stop-color:#BAB5E7"
   id="stop3724" />
			</linearGradient>
			<path
   id="path5110_2_"
   class="st30"
   d="M729.6,638.2L556.2,538.1l-12.4,7.2l173.4,100.1L729.6,638.2z" />
			
				<linearGradient
   id="path5112_1_"
   gradientUnits="userSpaceOnUse"
   x1="714.4927"
   y1="656.3356"
   x2="649.562"
   y2="770.7759"
   gradientTransform="matrix(-1 0 0 1 1413.6929 0)">
				<stop
   offset="0"
   style="stop-color:#5347C2"
   id="stop3728" />
				<stop
   offset="1"
   style="stop-color:#BAB5E7"
   id="stop3730" />
			</linearGradient>
			<path
   id="path5112_2_"
   class="st31"
   d="M729.6,638.2v114.4l-12.4,7.2V645.3L729.6,638.2z" />
		</g>
		<g
   id="g3733">
			<g
   id="g3735">
				<g
   id="g3737">
					
						<linearGradient
   id="SVGID_18_"
   gradientUnits="userSpaceOnUse"
   x1="435.8144"
   y1="662.679"
   x2="444.0518"
   y2="662.679"
   gradientTransform="matrix(-1 0 0 1 810.3626 0)">
						<stop
   offset="0"
   style="stop-color:#C4E8FA"
   id="stop3740" />
						<stop
   offset="1"
   style="stop-color:#E3F4FC"
   id="stop3742" />
					</linearGradient>
					<path
   class="st32"
   d="M370.5,657.9c2.3,1.3,4.1,4.5,4.1,7.1c0,2.6-1.8,3.7-4.1,2.3c-2.3-1.3-4.1-4.5-4.1-7.1       C366.3,657.7,368.1,656.6,370.5,657.9z"
   id="path3744" />
				</g>
				<g
   id="g3746">
					
						<linearGradient
   id="SVGID_19_"
   gradientUnits="userSpaceOnUse"
   x1="397.2713"
   y1="684.9211"
   x2="405.5086"
   y2="684.9211"
   gradientTransform="matrix(-1 0 0 1 810.3626 0)">
						<stop
   offset="0"
   style="stop-color:#C4E8FA"
   id="stop3749" />
						<stop
   offset="1"
   style="stop-color:#E3F4FC"
   id="stop3751" />
					</linearGradient>
					<path
   class="st33"
   d="M409,680.2c2.3,1.3,4.1,4.5,4.1,7.2c0,2.6-1.8,3.7-4.2,2.3c-2.3-1.3-4.1-4.4-4.1-7.1       C404.9,680,406.7,678.9,409,680.2z"
   id="path3753" />
				</g>
				<g
   id="g3755">
					
						<linearGradient
   id="SVGID_20_"
   gradientUnits="userSpaceOnUse"
   x1="378.0003"
   y1="696.0477"
   x2="386.2371"
   y2="696.0477"
   gradientTransform="matrix(-1 0 0 1 810.3626 0)">
						<stop
   offset="0"
   style="stop-color:#C4E8FA"
   id="stop3758" />
						<stop
   offset="1"
   style="stop-color:#E3F4FC"
   id="stop3760" />
					</linearGradient>
					<path
   class="st34"
   d="M428.2,691.3c2.3,1.3,4.1,4.5,4.1,7.2c0,2.6-1.8,3.7-4.2,2.3c-2.3-1.3-4.1-4.4-4.1-7.1       C424.1,691.1,426,690,428.2,691.3z"
   id="path3762" />
				</g>
			</g>
			<path
   class="st7"
   d="M484,750.5c-0.7,0-1.5-0.2-2.2-0.7L359.2,679c-2.7-1.5-4.8-5.5-4.8-9.1v-33.5c0-2,0.7-3.6,2-4.4     c1.1-0.6,2.5-0.6,3.8,0.2l122.6,70.8c2.7,1.6,4.8,5.5,4.8,9.1v33.5c0,2-0.7,3.6-2,4.4C485.1,750.3,484.6,750.5,484,750.5z      M482.8,748c0.5,0.3,1.2,0.5,1.7,0.2c0.6-0.3,0.9-1.3,0.9-2.5v-33.5c0-2.7-1.7-6.1-3.7-7.2l-122.6-70.8c-0.5-0.3-1.2-0.5-1.7-0.2     c-0.6,0.3-0.9,1.3-0.9,2.5V670c0,2.7,1.7,6.1,3.7,7.2L482.8,748z"
   id="path3764" />
		</g>
	</g>
	<linearGradient
   id="SVGID_21_"
   gradientUnits="userSpaceOnUse"
   x1="445.0632"
   y1="480.6205"
   x2="698.274"
   y2="480.6205">
		<stop
   offset="0"
   style="stop-color:#5347C2"
   id="stop3767" />
		<stop
   offset="1"
   style="stop-color:#BAB5E7"
   id="stop3769" />
	</linearGradient>
	<polygon
   class="st35"
   points="571.7,552.6 447.1,480.6 571.7,408.7 696.3,480.6  "
   id="polygon3771" />
	<g
   id="g3773">
		<g
   id="g3775">
			<polygon
   class="st22"
   points="450.1,417 533.5,465 533.5,366.2 505.8,308 450.1,275.7    "
   id="polygon3777" />
			<polygon
   class="st23"
   points="533.5,366.2 533.5,366.2 505.8,308 505.8,350.3    "
   id="polygon3779" />
			<g
   class="st36"
   id="g3781">
				<g
   id="g3783">
					<polygon
   class="st7"
   points="467.3,382.2 467.3,387.8 521,418.8 521,413.2      "
   id="polygon3785" />
				</g>
				<g
   id="g3787">
					<polygon
   class="st7"
   points="467.4,358.1 467.4,363.8 521,394.8 521.1,389.1      "
   id="polygon3789" />
				</g>
				<g
   id="g3791">
					<polygon
   class="st7"
   points="484.8,356.2 484.8,361.8 521.1,382.8 521.1,377.1      "
   id="polygon3793" />
				</g>
				<g
   id="g3795">
					<polygon
   class="st7"
   points="467.3,370.2 467.3,375.8 521,406.8 521,401.2      "
   id="polygon3797" />
				</g>
				<g
   id="g3799">
					<polygon
   class="st7"
   points="467.2,406.2 467.2,411.8 520.9,442.8 520.9,437.2      "
   id="polygon3801" />
				</g>
				<g
   id="g3803">
					<polygon
   class="st7"
   points="467.3,394.2 467.3,399.8 520.9,430.8 521,425.2      "
   id="polygon3805" />
				</g>
			</g>
		</g>
		<linearGradient
   id="SVGID_22_"
   gradientUnits="userSpaceOnUse"
   x1="448.3677"
   y1="326.3339"
   x2="485.5536"
   y2="320.8249">
			<stop
   offset="0"
   style="stop-color:#5347C2"
   id="stop3808" />
			<stop
   offset="1"
   style="stop-color:#BAB5E7"
   id="stop3810" />
		</linearGradient>
		<path
   class="st37"
   d="M483.3,321.7l-1.5-0.9l0-7.3c0-2.8-1.9-6.1-4.3-7.5l-5.7-3.3c-2.4-1.4-4.4-0.3-4.4,2.5l0,7.3l-1.5-0.9    c-1.6-0.9-3-0.2-3,1.7l0,13.1c0,1.9,1.3,4.2,3,5.1l17.5,10.1c1.6,0.9,3,0.2,3-1.7l0-13.1C486.2,324.9,484.9,322.6,483.3,321.7z     M476,328.3l0,3.5l-3.1-1.8l0-3.5c-0.8-1.1-1.4-2.4-1.4-3.6c0-1.8,1.3-2.6,2.9-1.6c1.6,0.9,2.9,3.2,2.9,5    C477.4,327.4,476.8,328.1,476,328.3z M477.5,318.4l-6-3.4l0-7.3l0.1-0.1l5.7,3.3l0.1,0.2L477.5,318.4z"
   id="path3812" />
		<rect
   x="505.1"
   y="374.6"
   class="st7"
   width="1.6"
   height="47.2"
   id="rect3814"
   style="fill:#5347c2;fill-opacity:1" />
		<polygon
   class="st7"
   points="450.1,341.9 450.1,343.7 533.5,391.6 533.5,389.8   "
   id="polygon3816"
   style="stroke:none;stroke-opacity:1;fill:url(#linearGradient4623);fill-opacity:1" />
		<polygon
   class="st7"
   points="450.1,389.1 450.1,390.9 533.5,438.8 533.5,437.1   "
   id="polygon3818"
   style="fill:#5347c2;fill-opacity:1" />
		<polygon
   class="st7"
   points="468.8,427.7 468.8,400.1 467.3,400.1 467.3,426.8   "
   id="polygon3820"
   style="fill:#5347c2;fill-opacity:1" />
		<linearGradient
   id="SVGID_23_"
   gradientUnits="userSpaceOnUse"
   x1="402.5952"
   y1="504.3148"
   x2="430.067"
   y2="500.2449">
			<stop
   offset="0"
   style="stop-color:#5347C2"
   id="stop3823" />
			<stop
   offset="1"
   style="stop-color:#BAB5E7"
   id="stop3825" />
		</linearGradient>
		<path
   class="st38"
   d="M428.4,500.9l-1.1-0.7l0-5.4c0-2-1.4-4.5-3.2-5.6l-4.2-2.4c-1.8-1-3.2-0.2-3.2,1.8l0,5.4l-1.1-0.7    c-1.2-0.7-2.2-0.1-2.2,1.3l0,9.7c0,1.4,1,3.1,2.2,3.8l12.9,7.5c1.2,0.7,2.2,0.1,2.2-1.3l0-9.7    C430.6,503.3,429.6,501.6,428.4,500.9z M423,505.7l0,2.6l-2.3-1.3l0-2.6c-0.6-0.8-1-1.8-1-2.7c0-1.4,1-1.9,2.2-1.2    c1.2,0.7,2.1,2.3,2.1,3.7C424,505.1,423.6,505.7,423,505.7z M424.1,498.4l-4.4-2.5l0-5.4l0.1-0.1l4.2,2.4l0.1,0.2L424.1,498.4z"
   id="path3827" />
	</g>
	<polygon
   class="st22"
   points="619.5,309.1 583.4,288.3 583.4,318.1 619.5,338.9  "
   id="polygon3829" />
	<polygon
   class="st22"
   points="635.4,379.9 635.4,397 646.6,403.5 646.6,386.4  "
   id="polygon3831" />
	<polygon
   class="st22"
   points="269.5,350.1 269.5,350.1 269.4,350.1  "
   id="polygon3833" />
	<polygon
   class="st22"
   points="622.9,465.8 622.9,465.8 605.3,455.7 605.3,485.5 622.9,495.6 622.9,495.6  "
   id="polygon3835" />
	<polygon
   class="st22"
   points="421.3,259.7 403.1,221.5 366.5,200.3 366.5,243.7 421.2,275.2 421.3,275.2  "
   id="polygon3837" />
	<polygon
   class="st22"
   points="412.7,372.5 370.3,348.1 370.3,365.2 412.8,389.6 412.8,372.4  "
   id="polygon3839" />
	<polygon
   class="st22"
   points="743.6,401.5 725.4,363.3 688.8,342.1 688.8,385.5 743.5,417 743.6,417.1  "
   id="polygon3841" />
	<polygon
   class="st22"
   points="298.2,294.9 262.1,274.1 262.1,303.9 298.2,324.7  "
   id="polygon3843" />
<polygon
   transform="matrix(0.64590275,0,0,0.67780872,76.633429,11.830098)"
   class="st23"
   points="505.8,350.3 533.5,366.2 533.5,366.2 505.8,308 "
   id="polygon3779-7"
   style="fill:#e1eaff" /><polygon
   transform="matrix(0.64057282,0,0,0.6653843,402.07649,158.19835)"
   class="st23"
   points="533.5,366.2 505.8,308 505.8,350.3 533.5,366.2 "
   id="polygon3779-4"
   style="fill:#e1eaff" /></g>
</svg>