<?xml version="1.0" encoding="utf-8"?>
<!-- Generator: Adobe Illustrator 23.0.6, SVG Export Plug-In . SVG Version: 6.00 Build 0)  -->
<svg version="1.1" id="Layer_1" xmlns="http://www.w3.org/2000/svg" xmlns:xlink="http://www.w3.org/1999/xlink" x="0px" y="0px"
	 viewBox="0 0 65 65" style="enable-background:new 0 0 65 65;" xml:space="preserve">
<g>
	<path d="M32.5,7.1c-0.6,0-1.2,0.5-1.2,1.2s0.5,1.2,1.2,1.2c13.8,0,25,11.2,25,25c0,13.8-11.2,25-25,25c-13.8,0-25-11.2-25-25
		c0-6.5,2.8-12.9,7.6-17.7l0.8-0.8v3.9c0,0.7,0.5,1.2,1.1,1.2c0.7,0,1.2-0.5,1.2-1.2v-6.5c0-0.6-0.6-1.2-1.2-1.2h-6.5
		c-0.6,0-1.2,0.5-1.2,1.2c0,0.6,0.5,1.1,1.2,1.1h3.6l-0.8,0.8c-5.2,5.2-8.1,12.2-8.1,19.2c0,15.1,12.3,27.3,27.3,27.3
		c15.1,0,27.3-12.3,27.3-27.3S47.6,7.1,32.5,7.1z"/>
	<path d="M24.4,14.5c2.7,0,4.8-2.2,4.8-4.8c0-2.7-2.2-4.8-4.8-4.8S19.6,7,19.6,9.7C19.6,12.3,21.7,14.5,24.4,14.5z M21.3,9.7
		c0-1.7,1.4-3.1,3.1-3.1c1.7,0,3.1,1.4,3.1,3.1c0,1.7-1.4,3.1-3.1,3.1C22.7,12.7,21.3,11.3,21.3,9.7z"/>
</g>
</svg>
