<?xml version="1.0" encoding="utf-8"?>
<!-- Generator: Adobe Illustrator 23.0.3, SVG Export Plug-In . SVG Version: 6.00 Build 0)  -->
<svg version="1.1" id="Layer_1" xmlns="http://www.w3.org/2000/svg" xmlns:xlink="http://www.w3.org/1999/xlink" x="0px" y="0px"
	 viewBox="0 0 68 68" style="enable-background:new 0 0 68 68;" xml:space="preserve">
<path d="M56.6,21.6c-1.4,0-2.5-1.1-2.5-2.5s1.1-2.5,2.5-2.5s2.5,1.1,2.5,2.5S58,21.6,56.6,21.6 M37.4,55c-0.9-0.9-2.1-1.5-3.4-1.5
	c-1.3,0-2.6,0.6-3.4,1.5l-18-10.4V23.8c2.1-0.5,3.6-2.4,3.6-4.6c0-0.5-0.1-0.9-0.2-1.3L34,7.4l18,10.4c-0.1,0.4-0.2,0.9-0.2,1.3
	c0,2.2,1.5,4.1,3.6,4.6v20.8L37.4,55z M34,60.8c-1.4,0-2.5-1.1-2.5-2.5s1.1-2.5,2.5-2.5s2.5,1.1,2.5,2.5S35.4,60.8,34,60.8
	 M8.9,19.1c0-1.4,1.1-2.5,2.5-2.5s2.5,1.1,2.5,2.5s-1.1,2.5-2.5,2.5S8.9,20.5,8.9,19.1 M61.4,19.1c0-2.6-2.1-4.8-4.8-4.8
	c-1.3,0-2.6,0.6-3.4,1.5L34.6,5.1c-0.4-0.2-0.8-0.2-1.1,0L14.8,15.8c-0.9-0.9-2.1-1.5-3.4-1.5c-2.6,0-4.8,2.1-4.8,4.8
	c0,2.2,1.5,4.1,3.6,4.6v21.5c0,0.4,0.2,0.8,0.6,1l18.6,10.7c-0.1,0.4-0.2,0.9-0.2,1.3c0,2.6,2.1,4.8,4.8,4.8s4.8-2.1,4.8-4.8
	c0-0.5-0.1-0.9-0.2-1.3l18.6-10.7c0.4-0.2,0.6-0.6,0.6-1V23.8C59.8,23.3,61.4,21.4,61.4,19.1"/>
<path d="M35.1,47.5v-5.1c0-0.6-0.5-1.1-1.1-1.1c-0.6,0-1.1,0.5-1.1,1.1v5.1l-12.7-7.3V25.5l13.3,7.7c0.2,0.1,0.4,0.2,0.6,0.2
	c0.2,0,0.4-0.1,0.6-0.2L48,25.5v14.7L35.1,47.5z M34,16.2l12.7,7.3L34,30.9l-12.7-7.3L34,16.2z M49.5,22.6l-15-8.6
	c-0.4-0.2-0.8-0.2-1.1,0l-15,8.6c-0.4,0.2-0.6,0.6-0.6,1v17.3c0,0.4,0.2,0.8,0.6,1l15,8.6c0.2,0.1,0.4,0.2,0.6,0.2s0.4-0.1,0.6-0.2
	l15-8.6c0.4-0.2,0.6-0.6,0.6-1V23.5C50.1,23.1,49.9,22.8,49.5,22.6"/>
<path d="M34,36.2c-0.3,0-0.6,0.1-0.8,0.3s-0.3,0.5-0.3,0.8s0.1,0.6,0.3,0.8s0.5,0.3,0.8,0.3s0.6-0.1,0.8-0.3s0.3-0.5,0.3-0.8
	s-0.1-0.6-0.3-0.8S34.3,36.2,34,36.2"/>
</svg>
