<?xml version="1.0" encoding="utf-8"?>
<!-- Generator: Adobe Illustrator 23.0.3, SVG Export Plug-In . SVG Version: 6.00 Build 0)  -->
<svg version="1.1" id="Layer_1" xmlns="http://www.w3.org/2000/svg" xmlns:xlink="http://www.w3.org/1999/xlink" x="0px" y="0px"
	 viewBox="0 0 58 58" style="enable-background:new 0 0 58 58;" xml:space="preserve">
<path d="M43.2,19c-0.5-2.9-1.9-5.5-4.1-7.5C36.7,9.2,33.5,8,30.3,8c-2.5,0-5,0.7-7.1,2.1c-1.8,1.1-3.2,2.7-4.3,4.5
	c-0.4-0.1-0.9-0.1-1.4-0.1c-4,0-7.2,3.2-7.2,7.2c0,0.5,0.1,1,0.2,1.5C7.8,25,6.3,28,6.3,31.2c0,2.6,1,5.1,2.7,7.1
	c1.8,2,4.2,3.2,6.7,3.4h8.1c0.7,0,1.3-0.6,1.3-1.3c0-0.7-0.6-1.3-1.3-1.3h-8c-3.8-0.2-7-3.9-7-8c0-2.6,1.4-5.1,3.7-6.4
	c0.5-0.3,0.8-1,0.6-1.5c-0.2-0.5-0.3-1-0.3-1.6c0-2.6,2.1-4.7,4.7-4.7c0.6,0,1.1,0.1,1.6,0.3c0.6,0.2,1.3-0.1,1.6-0.6
	c1.7-3.7,5.5-6.1,9.6-6.1c5.5,0,10.1,4.1,10.6,9.6c0.1,0.6,0.5,1,1,1.1c4.2,0.7,7.3,4.5,7.3,8.9c0,4.6-3.7,8.7-8.2,9h-6.9
	c-0.7,0-1.3,0.6-1.3,1.3s0.6,1.3,1.3,1.3h7c2.8-0.2,5.5-1.5,7.5-3.7c2-2.2,3-5,3-7.8C51.7,24.9,48.1,20.3,43.2,19"/>
<path d="M36.6,32.4c0.5-0.5,0.5-1.3,0-1.8L29.9,24c-0.2-0.2-0.6-0.4-0.9-0.4c-0.3,0-0.7,0.1-0.9,0.4l-6.7,6.7
	c-0.5,0.5-0.5,1.3,0,1.8c0.2,0.2,0.6,0.4,0.9,0.4c0.3,0,0.6-0.1,0.9-0.4l4.5-4.5v20.8c0,0.7,0.6,1.3,1.3,1.3c0.7,0,1.3-0.6,1.3-1.3
	V27.9l4.5,4.5C35.3,32.9,36.1,32.9,36.6,32.4"/>
</svg>
