<?xml version="1.0" encoding="utf-8"?>
<!-- Generator: Adobe Illustrator 22.0.0, SVG Export Plug-In . SVG Version: 6.00 Build 0)  -->
<svg version="1.1" id="Laag_1" xmlns="http://www.w3.org/2000/svg" xmlns:xlink="http://www.w3.org/1999/xlink" x="0px" y="0px"
	 viewBox="0 0 1000 1000" style="enable-background:new 0 0 1000 1000;" xml:space="preserve">
<style type="text/css">
	.st0{opacity:0.5924;fill:url(#SVGID_1_);}
	.st1{opacity:0.3;fill:url(#SVGID_2_);}
	.st2{opacity:0.15;fill:url(#SVGID_3_);}
	.st3{fill:#CDD6FF;}
	.st4{fill:url(#SVGID_4_);}
	.st5{fill:url(#SVGID_5_);}
	.st6{fill:url(#SVGID_6_);}
	.st7{fill:url(#SVGID_7_);}
	.st8{fill:url(#SVGID_8_);}
</style>
<g>
	<g>
		<linearGradient id="SVGID_1_" gradientUnits="userSpaceOnUse" x1="414.9122" y1="711.6453" x2="589.0696" y2="711.6453">
			<stop  offset="0" style="stop-color:#5347C2"/>
			<stop  offset="1" style="stop-color:#BAB5E7"/>
		</linearGradient>
		<path class="st0" d="M563.6,676.1c-34-19.6-89.1-19.6-123.2,0c-34,19.6-34,51.4,0,71.1c34,19.6,89.1,19.6,123.1,0
			C597.6,727.6,597.6,695.7,563.6,676.1z"/>
		<linearGradient id="SVGID_2_" gradientUnits="userSpaceOnUse" x1="394.4217" y1="711.6453" x2="609.5601" y2="711.6453">
			<stop  offset="0" style="stop-color:#5347C2"/>
			<stop  offset="1" style="stop-color:#BAB5E7"/>
		</linearGradient>
		<path class="st1" d="M578.1,665c-42-25.8-110.1-25.8-152.1,0c-42,25.8-42,67.5,0,93.3c42,25.8,110.1,25.8,152.1,0
			C620.1,732.5,620.1,690.8,578.1,665z"/>
		<linearGradient id="SVGID_3_" gradientUnits="userSpaceOnUse" x1="369.2865" y1="711.6453" x2="634.6953" y2="711.6453">
			<stop  offset="0" style="stop-color:#5347C2"/>
			<stop  offset="1" style="stop-color:#BAB5E7"/>
		</linearGradient>
		<path class="st2" d="M595.8,654.1c-51.8-31.8-135.8-31.8-187.7,0c-51.8,31.8-51.8,83.3,0,115.1c51.8,31.8,135.8,31.8,187.7,0
			C647.6,737.4,647.7,685.9,595.8,654.1z"/>
	</g>
	<g>
		<g>
			<path class="st3" d="M500,533.3c-19.1,0-34.6-8.9-34.6-20v192.1c0,11,15.5,20,34.6,20c19.1,0,34.6-8.9,34.6-20V513.4
				C534.6,524.4,519.1,533.3,500,533.3z"/>
			<path class="st3" d="M500,533.3c-19.1,0-34.6-8.9-34.6-20c0-11,15.5-20,34.6-20c19.1,0,34.6,8.9,34.6,20
				C534.6,524.4,519.1,533.3,500,533.3z"/>
		</g>
		<g>
			<linearGradient id="SVGID_4_" gradientUnits="userSpaceOnUse" x1="162.6159" y1="551.311" x2="568.4602" y2="551.311">
				<stop  offset="0" style="stop-color:#5347C2"/>
				<stop  offset="1" style="stop-color:#BAB5E7"/>
			</linearGradient>
			<path class="st4" d="M500,585.9c-112.1,0-202.9-52.5-202.9-117.2v48c0,64.7,90.9,117.2,202.9,117.2
				c112.1,0,202.9-52.5,202.9-117.2v-48C702.9,533.4,612.1,585.9,500,585.9z"/>
			<linearGradient id="SVGID_5_" gradientUnits="userSpaceOnUse" x1="297.0779" y1="468.7224" x2="702.9222" y2="468.7224">
				<stop  offset="0" style="stop-color:#5347C2"/>
				<stop  offset="1" style="stop-color:#BAB5E7"/>
			</linearGradient>
			<path class="st5" d="M500,585.9c-112.1,0-202.9-52.5-202.9-117.2S387.9,351.6,500,351.6c112.1,0,202.9,52.5,202.9,117.2
				C702.9,533.4,612.1,585.9,500,585.9z"/>
		</g>
		<linearGradient id="SVGID_6_" gradientUnits="userSpaceOnUse" x1="301.9356" y1="405.0749" x2="542.5903" y2="405.0749">
			<stop  offset="0" style="stop-color:#5347C2"/>
			<stop  offset="1" style="stop-color:#BAB5E7"/>
		</linearGradient>
		<path class="st6" d="M500,352.1c-66.5,0-120.3-31.1-120.3-69.5v175.4c0,38.4,53.9,69.5,120.3,69.5s120.3-31.1,120.3-69.5V282.6
			C620.3,321,566.5,352.1,500,352.1z"/>
		<g>
			<linearGradient id="SVGID_7_" gradientUnits="userSpaceOnUse" x1="280.8857" y1="362.5463" x2="584.6499" y2="362.5463">
				<stop  offset="0" style="stop-color:#5347C2"/>
				<stop  offset="1" style="stop-color:#BAB5E7"/>
			</linearGradient>
			<path class="st7" d="M500,382.4c-83.9,0-151.9-39.3-151.9-87.7v48c0,48.4,68,87.7,151.9,87.7s151.9-39.3,151.9-87.7v-48
				C651.9,343.1,583.9,382.4,500,382.4z"/>
			<linearGradient id="SVGID_8_" gradientUnits="userSpaceOnUse" x1="348.1166" y1="294.6892" x2="651.8834" y2="294.6892">
				<stop  offset="0" style="stop-color:#5347C2"/>
				<stop  offset="1" style="stop-color:#BAB5E7"/>
			</linearGradient>
			<path class="st8" d="M500,382.4c-83.9,0-151.9-39.3-151.9-87.7c0-48.4,68-87.7,151.9-87.7c83.9,0,151.9,39.3,151.9,87.7
				C651.9,343.1,583.9,382.4,500,382.4z"/>
		</g>
	</g>
</g>
</svg>
