<?xml version="1.0" encoding="utf-8"?>
<!-- Generator: Adobe Illustrator 22.0.0, SVG Export Plug-In . SVG Version: 6.00 Build 0)  -->
<svg version="1.1" id="Laag_1" xmlns="http://www.w3.org/2000/svg" xmlns:xlink="http://www.w3.org/1999/xlink" x="0px" y="0px"
	 viewBox="0 0 1000 1000" style="enable-background:new 0 0 1000 1000;" xml:space="preserve">
<style type="text/css">
	.st0{opacity:0.15;fill:url(#SVGID_1_);}
	.st1{fill:#CDD6FF;}
	.st2{fill:#AEC3FF;}
	.st3{fill:url(#SVGID_2_);}
	.st4{fill:url(#SVGID_3_);}
	.st5{fill:url(#SVGID_4_);}
	.st6{fill:url(#SVGID_5_);}
	.st7{fill:url(#SVGID_6_);}
</style>
<g>
	<linearGradient id="SVGID_1_" gradientUnits="userSpaceOnUse" x1="368.0662" y1="755.5491" x2="633.7888" y2="755.5491">
		<stop  offset="0" style="stop-color:#5347C2"/>
		<stop  offset="1" style="stop-color:#BAB5E7"/>
	</linearGradient>
	<path class="st0" d="M594.9,698c-51.9-31.8-136-31.8-187.9,0c-51.9,31.8-51.9,83.4,0,115.2c51.9,31.8,136,31.8,187.9,0
		C646.8,781.3,646.8,729.8,594.9,698z"/>
	<g>
		<g>
			<path class="st1" d="M529.6,662c1.7-1.3,3.4-2.7,5-4.3v-188c0,11-15.5,20-34.6,20c-19.1,0-34.6-9-34.6-20v188.2
				c1.2,1.1,2.9,2.6,4.9,4.1L529.6,662z"/>
			<path class="st1" d="M500,489.7c19.1,0,34.6-9,34.6-20c0-11-15.5-20-34.6-20c-19.1,0-34.6,9-34.6,20
				C465.4,480.8,480.9,489.7,500,489.7z"/>
			<path class="st1" d="M500,682c-14.3,0-26.6-5-31.9-12.1L500,760l31.9-90.1C526.6,677,514.3,682,500,682z"/>
			<path class="st1" d="M500.2,677.4c-0.5,0-1.1,0-1.6,0c-14.4-0.5-25.8-7.7-32.5-13.2l2,5.7c5.3,7.1,17.6,12.1,31.9,12.1
				c14.3,0,26.6-5,31.9-12.1l2.1-6C523.2,672.9,511.8,677.4,500.2,677.4z"/>
			<path class="st1" d="M498.8,673.2c10.5,0.4,20.9-3.4,30.8-11.1l-59.3,0C476.6,666.9,486.6,672.7,498.8,673.2z"/>
			<path class="st2" d="M534.6,662v-4.3c-1.7,1.5-3.3,3-5,4.3H534.6z"/>
			<path class="st2" d="M470.3,662c-2-1.6-3.7-3-4.9-4.1v4.1H470.3z"/>
			<path class="st2" d="M500.2,677.4c11.6,0,23-4.5,33.8-13.5l0.7-1.9h-5c-10,7.8-20.3,11.5-30.8,11.1c-12.1-0.4-22.2-6.3-28.5-11.1
				h-4.9l0.8,2.2c6.6,5.4,18.1,12.6,32.5,13.2C499.1,677.4,499.7,677.4,500.2,677.4z"/>
		</g>
		<g>
			<linearGradient id="SVGID_2_" gradientUnits="userSpaceOnUse" x1="162.2171" y1="507.718" x2="568.5411" y2="507.718">
				<stop  offset="0" style="stop-color:#5347C2"/>
				<stop  offset="1" style="stop-color:#BAB5E7"/>
			</linearGradient>
			<path class="st3" d="M500,542.3c-112.2,0-203.2-52.5-203.2-117.3v48.1c0,64.8,91,117.3,203.2,117.3
				c112.2,0,203.2-52.5,203.2-117.3V425C703.2,489.8,612.2,542.3,500,542.3z"/>
			<linearGradient id="SVGID_3_" gradientUnits="userSpaceOnUse" x1="296.838" y1="425.0317" x2="703.162" y2="425.0317">
				<stop  offset="0" style="stop-color:#5347C2"/>
				<stop  offset="1" style="stop-color:#BAB5E7"/>
			</linearGradient>
			<path class="st4" d="M500,542.3c-112.2,0-203.2-52.5-203.2-117.3s91-117.3,203.2-117.3c112.2,0,203.2,52.5,203.2,117.3
				C703.2,489.8,612.2,542.3,500,542.3z"/>
		</g>
		<linearGradient id="SVGID_4_" gradientUnits="userSpaceOnUse" x1="301.7015" y1="361.309" x2="542.6406" y2="361.309">
			<stop  offset="0" style="stop-color:#5347C2"/>
			<stop  offset="1" style="stop-color:#BAB5E7"/>
		</linearGradient>
		<path class="st5" d="M500,308.3c-66.5,0-120.5-31.1-120.5-69.6v175.7c0,38.4,53.9,69.6,120.5,69.6s120.5-31.1,120.5-69.6V238.7
			C620.5,277.1,566.5,308.3,500,308.3z"/>
		<g>
			<linearGradient id="SVGID_5_" gradientUnits="userSpaceOnUse" x1="280.6266" y1="318.7302" x2="584.7499" y2="318.7302">
				<stop  offset="0" style="stop-color:#5347C2"/>
				<stop  offset="1" style="stop-color:#BAB5E7"/>
			</linearGradient>
			<path class="st6" d="M500,338.6c-84,0-152.1-39.3-152.1-87.8v48.1c0,48.5,68.1,87.8,152.1,87.8s152.1-39.3,152.1-87.8v-48.1
				C652.1,299.3,584,338.6,500,338.6z"/>
			<linearGradient id="SVGID_6_" gradientUnits="userSpaceOnUse" x1="347.9371" y1="250.7929" x2="652.0629" y2="250.7929">
				<stop  offset="0" style="stop-color:#5347C2"/>
				<stop  offset="1" style="stop-color:#BAB5E7"/>
			</linearGradient>
			<path class="st7" d="M500,338.6c-84,0-152.1-39.3-152.1-87.8c0-48.5,68.1-87.8,152.1-87.8c84,0,152.1,39.3,152.1,87.8
				C652.1,299.3,584,338.6,500,338.6z"/>
		</g>
	</g>
</g>
</svg>
