<?xml version="1.0" encoding="utf-8"?>
<!-- Generator: Adobe Illustrator 22.0.0, SVG Export Plug-In . SVG Version: 6.00 Build 0)  -->
<svg version="1.1" id="Laag_1" xmlns="http://www.w3.org/2000/svg" xmlns:xlink="http://www.w3.org/1999/xlink" x="0px" y="0px"
	 viewBox="0 0 1000 1000" style="enable-background:new 0 0 1000 1000;" xml:space="preserve">
<style type="text/css">
	.st0{fill:url(#SVGID_1_);}
	.st1{fill:url(#SVGID_2_);}
	.st2{fill:url(#SVGID_3_);}
	.st3{fill:url(#SVGID_4_);}
	.st4{fill:url(#SVGID_5_);}
	.st5{fill:url(#SVGID_6_);}
	.st6{fill:url(#SVGID_7_);}
	.st7{fill:url(#SVGID_8_);}
	.st8{fill:url(#SVGID_9_);}
	.st9{fill:#CDD6FF;}
	.st10{fill:url(#SVGID_10_);}
</style>
<g>
	<g>
		<g>
			<linearGradient id="SVGID_1_" gradientUnits="userSpaceOnUse" x1="20.0675" y1="343.7779" x2="1108.0786" y2="349.3862">
				<stop  offset="0" style="stop-color:#5347C2"/>
				<stop  offset="1" style="stop-color:#BAB5E7"/>
			</linearGradient>
			<path class="st0" d="M209.7,331.1l-35.5,20.6c12-7,28.5-6,46.8,4.6c3.4,2,6.8,4.2,10,6.7l35.5-20.6c-3.3-2.5-6.6-4.7-10-6.7
				C238.3,325.1,221.7,324.2,209.7,331.1z"/>
			<linearGradient id="SVGID_2_" gradientUnits="userSpaceOnUse" x1="20.4832" y1="263.1299" x2="1108.4944" y2="268.7382">
				<stop  offset="0" style="stop-color:#5347C2"/>
				<stop  offset="1" style="stop-color:#BAB5E7"/>
			</linearGradient>
			<path class="st1" d="M375.8,244.4c-31.2-18-59.5-19.7-79.9-7.8l-35.5,20.7c20.4-11.9,48.7-10.2,79.9,7.8
				c15.6,9,30.5,21.3,44,35.7l35.5-20.7C406.4,265.6,391.5,253.4,375.8,244.4z"/>
			<linearGradient id="SVGID_3_" gradientUnits="userSpaceOnUse" x1="19.2993" y1="492.8132" x2="1107.3104" y2="498.4215">
				<stop  offset="0" style="stop-color:#5347C2"/>
				<stop  offset="1" style="stop-color:#BAB5E7"/>
			</linearGradient>
			<path class="st2" d="M732.5,490c-4-98.5-73-214.8-157.6-263.7c-44-25.4-83.8-27.8-112.6-11L426.8,236
				c28.8-16.7,68.6-14.4,112.6,11C624,295.9,693,412.2,697,510.7c62.8,39.5,112.7,127.9,112.5,200.9c-0.1,37.3-13.3,63.5-34.5,75.8
				l35.5-20.6c21.2-12.3,34.4-38.6,34.5-75.8C845.2,617.9,795.3,529.5,732.5,490z"/>
		</g>
		<linearGradient id="SVGID_4_" gradientUnits="userSpaceOnUse" x1="845.2643" y1="661.2933" x2="-146.8686" y2="55.7046">
			<stop  offset="0" style="stop-color:#5347C2"/>
			<stop  offset="1" style="stop-color:#BAB5E7"/>
		</linearGradient>
		<path class="st3" d="M539.4,247C624,295.9,693,412.2,697,510.7c62.8,39.5,112.7,127.9,112.5,200.9c-0.2,75-53.3,105.3-118.6,67.6
			L227.2,511.4c-2.2-1.4-4.4-2.5-6.6-3.8c-36.4-21-65.7-71.9-65.6-113.7c0.1-41.7,29.6-58.6,66-37.6c3.4,2,6.8,4.2,10,6.7
			c-2.2-11.5-3.4-22.9-3.4-33.9c0.2-71.2,50.6-100,112.6-64.2c15.6,9,30.5,21.3,44,35.7C400.1,227.9,463.6,203.2,539.4,247z"/>
		<g>
			<g>
				<linearGradient id="SVGID_5_" gradientUnits="userSpaceOnUse" x1="239.4329" y1="401.3131" x2="783.5225" y2="404.1177">
					<stop  offset="0" style="stop-color:#5347C2"/>
					<stop  offset="1" style="stop-color:#BAB5E7"/>
				</linearGradient>
				<path class="st4" d="M334.3,395l-17.8,10.3c6-3.5,14.3-3,23.4,2.3c1.7,1,3.4,2.1,5,3.3l17.8-10.3c-1.6-1.2-3.3-2.4-5-3.3
					C348.5,392,340.3,391.5,334.3,395z"/>
				<linearGradient id="SVGID_6_" gradientUnits="userSpaceOnUse" x1="239.6408" y1="360.9828" x2="783.7303" y2="363.7874">
					<stop  offset="0" style="stop-color:#5347C2"/>
					<stop  offset="1" style="stop-color:#BAB5E7"/>
				</linearGradient>
				<path class="st5" d="M417.3,351.6c-15.6-9-29.7-9.8-39.9-3.9L359.6,358c10.2-5.9,24.3-5.1,39.9,3.9c7.8,4.5,15.3,10.6,22,17.9
					l17.8-10.3C432.6,362.2,425.2,356.1,417.3,351.6z"/>
				<linearGradient id="SVGID_7_" gradientUnits="userSpaceOnUse" x1="239.0487" y1="475.8423" x2="783.1383" y2="478.6469">
					<stop  offset="0" style="stop-color:#5347C2"/>
					<stop  offset="1" style="stop-color:#BAB5E7"/>
				</linearGradient>
				<path class="st6" d="M595.7,474.5c-2-49.3-36.5-107.4-78.8-131.9c-22-12.7-41.9-13.9-56.3-5.5l-17.8,10.3
					c14.4-8.4,34.3-7.2,56.3,5.5c42.3,24.4,76.8,82.6,78.8,131.9c31.4,19.7,56.3,63.9,56.2,100.4c-0.1,18.6-6.6,31.8-17.2,37.9
					l17.8-10.3c10.6-6.2,17.2-19.3,17.2-37.9C652.1,538.4,627.1,494.2,595.7,474.5z"/>
			</g>
			<linearGradient id="SVGID_8_" gradientUnits="userSpaceOnUse" x1="652.095" y1="560.0953" x2="155.952" y2="257.2542">
				<stop  offset="0" style="stop-color:#5347C2"/>
				<stop  offset="1" style="stop-color:#BAB5E7"/>
			</linearGradient>
			<path class="st7" d="M499.1,352.9c42.3,24.4,76.8,82.6,78.8,131.9c31.4,19.7,56.3,63.9,56.2,100.4c-0.1,37.5-26.7,52.7-59.3,33.8
				L343,485.2c-1.1-0.7-2.2-1.3-3.3-1.9c-18.2-10.5-32.9-35.9-32.8-56.8c0.1-20.9,14.8-29.3,33-18.8c1.7,1,3.4,2.1,5,3.3
				c-1.1-5.8-1.7-11.4-1.7-16.9c0.1-35.6,25.3-50,56.3-32.1c7.8,4.5,15.3,10.6,22,17.9C429.5,343.4,461.2,331,499.1,352.9z"/>
		</g>
	</g>
	<g>
		
			<linearGradient id="SVGID_9_" gradientUnits="userSpaceOnUse" x1="2281.3599" y1="743.4327" x2="2068.7881" y2="753.8032" gradientTransform="matrix(-1.0151 -6.627972e-02 -1.507240e-02 0.9842 2692.2986 56.2653)">
			<stop  offset="0" style="stop-color:#5347C2"/>
			<stop  offset="1" style="stop-color:#BAB5E7"/>
		</linearGradient>
		<polygon class="st8" points="501.8,688.9 446.7,720.5 448.8,600.8 504.6,577.8 504.8,577.9 		"/>
		<path class="st9" d="M511.6,637.3l-88.5-214.6l-106,104.1c0.3,0.7,30,17.7,66.1,38.1l-1.9,118.4l65.5,36.9l2.1-118.3
			C483.6,621.5,511.6,637.3,511.6,637.3z"/>
		
			<linearGradient id="SVGID_10_" gradientUnits="userSpaceOnUse" x1="2345.0852" y1="691.009" x2="2061.1016" y2="580.9656" gradientTransform="matrix(-1.0151 -6.627972e-02 -1.507240e-02 0.9842 2692.2986 56.2653)">
			<stop  offset="0" style="stop-color:#5347C2"/>
			<stop  offset="1" style="stop-color:#BAB5E7"/>
		</linearGradient>
		<polygon class="st10" points="511.6,637.3 567.2,614.2 477.9,405.2 423.1,422.6 		"/>
	</g>
</g>
</svg>
