<?xml version="1.0" encoding="UTF-8" standalone="no"?>
<!-- Generator: Adobe Illustrator 22.0.0, SVG Export Plug-In . SVG Version: 6.00 Build 0)  -->

<svg
   xmlns:dc="http://purl.org/dc/elements/1.1/"
   xmlns:cc="http://creativecommons.org/ns#"
   xmlns:rdf="http://www.w3.org/1999/02/22-rdf-syntax-ns#"
   xmlns:svg="http://www.w3.org/2000/svg"
   xmlns="http://www.w3.org/2000/svg"
   xmlns:sodipodi="http://sodipodi.sourceforge.net/DTD/sodipodi-0.dtd"
   xmlns:inkscape="http://www.inkscape.org/namespaces/inkscape"
   version="1.1"
   id="Laag_1"
   x="0px"
   y="0px"
   viewBox="100 100 800 800"
   style="enable-background:new 100 100 800 800;"
   xml:space="preserve"
   inkscape:version="0.48.2 r9819"
   width="100%"
   height="100%"
   sodipodi:docname="phoenix.svg"><metadata
   id="metadata15293"><rdf:RDF><cc:Work
       rdf:about=""><dc:format>image/svg+xml</dc:format><dc:type
         rdf:resource="http://purl.org/dc/dcmitype/StillImage" /></cc:Work></rdf:RDF></metadata><defs
   id="defs15291" /><sodipodi:namedview
   pagecolor="#ffffff"
   bordercolor="#666666"
   borderopacity="1"
   objecttolerance="10"
   gridtolerance="10"
   guidetolerance="10"
   inkscape:pageopacity="0"
   inkscape:pageshadow="2"
   inkscape:window-width="1446"
   inkscape:window-height="843"
   id="namedview15289"
   showgrid="false"
   inkscape:zoom="1.1432889"
   inkscape:cx="460.02451"
   inkscape:cy="525.48204"
   inkscape:window-x="1328"
   inkscape:window-y="1"
   inkscape:window-maximized="0"
   inkscape:current-layer="Laag_1" />
<style
   type="text/css"
   id="style15092">
	.st0{fill:none;stroke:#AEC3FF;stroke-width:2;stroke-miterlimit:10;}
	.st1{fill:none;stroke:#AEC3FF;stroke-width:2;stroke-miterlimit:10;stroke-dasharray:11.8902,11.8902;}
	.st2{fill:url(#SVGID_1_);}
	.st3{fill:url(#SVGID_2_);}
	.st4{fill:url(#SVGID_3_);}
	.st5{fill:#AEC3FF;}
	.st6{fill:url(#SVGID_4_);}
	.st7{fill:url(#SVGID_5_);}
	.st8{fill:url(#SVGID_6_);}
	.st9{fill:#CDD6FF;}
	.st10{fill:url(#SVGID_7_);}
	.st11{fill:url(#SVGID_8_);}
	.st12{fill:url(#SVGID_9_);}
	.st13{fill:url(#SVGID_10_);}
	.st14{fill:#393D44;}
	.st15{fill:url(#SVGID_11_);}
</style>
<g
   id="g15094">
	<g
   id="g15096">
		<g
   id="g15098">
			<line
   class="st0"
   x1="438.5"
   y1="408"
   x2="444.5"
   y2="408"
   id="line15100" />
			<line
   class="st1"
   x1="456.3"
   y1="408"
   x2="616.9"
   y2="408"
   id="line15102" />
			<line
   class="st0"
   x1="622.8"
   y1="408"
   x2="628.8"
   y2="408"
   id="line15104" />
		</g>
	</g>
	<g
   id="g15106">
		<g
   id="g15108">
			<line
   class="st0"
   x1="438.5"
   y1="526.7"
   x2="444.5"
   y2="526.7"
   id="line15110" />
			<line
   class="st1"
   x1="456.3"
   y1="526.7"
   x2="616.9"
   y2="526.7"
   id="line15112" />
			<line
   class="st0"
   x1="622.8"
   y1="526.7"
   x2="628.8"
   y2="526.7"
   id="line15114" />
		</g>
	</g>
	<g
   id="g15116">
		<g
   id="g15118">
			<line
   class="st0"
   x1="438.5"
   y1="594.7"
   x2="444.5"
   y2="594.7"
   id="line15120" />
			<line
   class="st1"
   x1="456.3"
   y1="594.7"
   x2="616.9"
   y2="594.7"
   id="line15122" />
			<line
   class="st0"
   x1="622.8"
   y1="594.7"
   x2="628.8"
   y2="594.7"
   id="line15124" />
		</g>
	</g>
	<linearGradient
   id="SVGID_1_"
   gradientUnits="userSpaceOnUse"
   x1="365.5061"
   y1="230.6071"
   x2="365.5061"
   y2="841.51">
		<stop
   offset="0"
   style="stop-color:#5347C2"
   id="stop15127" />
		<stop
   offset="1"
   style="stop-color:#BAB5E7"
   id="stop15129" />
	</linearGradient>
	<polygon
   class="st2"
   points="440.5,579.2 440.5,607 290.6,693.5 290.6,665.8  "
   id="polygon15131" />
	<linearGradient
   id="SVGID_2_"
   gradientUnits="userSpaceOnUse"
   x1="215.6204"
   y1="233.4382"
   x2="215.6204"
   y2="845.9821">
		<stop
   offset="0"
   style="stop-color:#5347C2"
   id="stop15134" />
		<stop
   offset="1"
   style="stop-color:#BAB5E7"
   id="stop15136" />
	</linearGradient>
	<polygon
   class="st3"
   points="290.6,665.7 290.6,693.5 265.1,678.8 215.6,650.2 166.1,621.6 152.8,614 140.7,607 140.7,579.2    190.2,607.8 239.7,636.3 289.1,664.9  "
   id="polygon15138" />
	<linearGradient
   id="SVGID_3_"
   gradientUnits="userSpaceOnUse"
   x1="140.6743"
   y1="579.2027"
   x2="440.4535"
   y2="579.2027">
		<stop
   offset="0"
   style="stop-color:#5347C2"
   id="stop15141" />
		<stop
   offset="1"
   style="stop-color:#BAB5E7"
   id="stop15143" />
	</linearGradient>
	<polygon
   class="st4"
   points="440.5,579.2 290.6,665.8 140.7,579.2 290.6,492.7  "
   id="polygon15145" />
	<path
   class="st5"
   d="M291.1,649.9l-126-72.8l126-72.8l126,72.8L291.1,649.9z M170.1,577.1l121,69.9l121-69.9l-121-69.9L170.1,577.1   z"
   id="path15147" />
	<linearGradient
   id="SVGID_4_"
   gradientUnits="userSpaceOnUse"
   x1="365.5061"
   y1="163.1423"
   x2="365.5061"
   y2="774.0452">
		<stop
   offset="0"
   style="stop-color:#5347C2"
   id="stop15150" />
		<stop
   offset="1"
   style="stop-color:#BAB5E7"
   id="stop15152" />
	</linearGradient>
	<polygon
   class="st6"
   points="440.5,511.7 440.5,539.5 290.6,626 290.6,598.3  "
   id="polygon15154" />
	<linearGradient
   id="SVGID_5_"
   gradientUnits="userSpaceOnUse"
   x1="215.6204"
   y1="165.9734"
   x2="215.6204"
   y2="778.5173">
		<stop
   offset="0"
   style="stop-color:#5347C2"
   id="stop15157" />
		<stop
   offset="1"
   style="stop-color:#BAB5E7"
   id="stop15159" />
	</linearGradient>
	<polygon
   class="st7"
   points="290.6,598.3 290.6,626 265.1,611.3 215.6,582.8 166.1,554.2 152.8,546.5 140.7,539.5 140.7,511.7    190.2,540.3 239.7,568.9 289.1,597.4  "
   id="polygon15161" />
	<linearGradient
   id="SVGID_6_"
   gradientUnits="userSpaceOnUse"
   x1="140.6743"
   y1="511.7379"
   x2="440.4535"
   y2="511.7379">
		<stop
   offset="0"
   style="stop-color:#6647c2;stop-opacity:1;"
   id="stop15164" />
		<stop
   offset="1"
   style="stop-color:#BAB5E7"
   id="stop15166" />
	</linearGradient>
	<polygon
   class="st8"
   points="440.5,511.7 290.6,598.3 140.7,511.7 290.6,425.2  "
   id="polygon15168" />
	<path
   class="st5"
   d="M291.1,582.4l-126-72.8l126-72.8l126,72.8L291.1,582.4z M170.1,509.6l121,69.9l121-69.9l-121-69.9L170.1,509.6   z"
   id="path15170" />
	<g
   id="g15172"
   style="opacity:1">
		<path
   class="st5"
   d="M283.5,548.3l-65.1-37.6c-4-2.3-3.5-6.3,1.1-9l62.9-36.3c4.6-2.7,11.6-3,15.6-0.6l65.1,37.6    c4,2.3,3.5,6.3-1.1,9l-62.9,36.3C294.5,550.4,287.5,550.6,283.5,548.3z"
   id="path15174"
   style="opacity:0.2" />
		<path
   class="st9"
   d="M289.8,516.9l-9-5.2c-0.6-0.3-0.5-0.9,0.2-1.2l8.7-5c0.6-0.4,1.6-0.4,2.2-0.1l9,5.2c0.6,0.3,0.5,0.9-0.2,1.2    l-8.7,5C291.3,517.1,290.3,517.2,289.8,516.9z"
   id="path15176" />
		<linearGradient
   id="SVGID_7_"
   gradientUnits="userSpaceOnUse"
   x1="215.7263"
   y1="487.0427"
   x2="365.7955"
   y2="487.0427">
			<stop
   offset="0"
   style="stop-color:#5347C2"
   id="stop15179" />
			<stop
   offset="1"
   style="stop-color:#BAB5E7"
   id="stop15181" />
		</linearGradient>
		<path
   class="st10"
   d="M218.4,510.7l0.2,0.1c0.3-0.2,0.6-0.4,0.9-0.6l62.9-36.3c4.6-2.7,11.6-3,15.6-0.6l64.9,37.5    c3.7-2.6,3.9-6.2,0.2-8.4L298,464.8c-4-2.3-11-2-15.6,0.6l-62.9,36.3C214.9,504.4,214.4,508.4,218.4,510.7z"
   id="path15183" />
	</g>
	<linearGradient
   id="SVGID_8_"
   gradientUnits="userSpaceOnUse"
   x1="365.5061"
   y1="44.4543"
   x2="365.5061"
   y2="655.3572">
		<stop
   offset="0"
   style="stop-color:#5347C2"
   id="stop15186" />
		<stop
   offset="1"
   style="stop-color:#BAB5E7"
   id="stop15188" />
	</linearGradient>
	<polygon
   class="st11"
   points="440.5,393 440.5,420.8 290.6,507.3 290.6,479.6  "
   id="polygon15190" />
	<linearGradient
   id="SVGID_9_"
   gradientUnits="userSpaceOnUse"
   x1="215.6204"
   y1="47.2854"
   x2="215.6204"
   y2="659.8292">
		<stop
   offset="0"
   style="stop-color:#5347C2"
   id="stop15193" />
		<stop
   offset="1"
   style="stop-color:#BAB5E7"
   id="stop15195" />
	</linearGradient>
	<polygon
   class="st12"
   points="290.6,479.6 290.6,507.3 265.1,492.7 215.6,464.1 166.1,435.5 152.8,427.8 140.7,420.8 140.7,393    190.2,421.6 239.7,450.2 289.1,478.8  "
   id="polygon15197" />
	<linearGradient
   id="SVGID_10_"
   gradientUnits="userSpaceOnUse"
   x1="140.6743"
   y1="393.0498"
   x2="440.4535"
   y2="393.0498">
		<stop
   offset="0"
   style="stop-color:#5347C2"
   id="stop15200" />
		<stop
   offset="1"
   style="stop-color:#BAB5E7"
   id="stop15202" />
	</linearGradient>
	<polygon
   class="st13"
   points="440.5,393 290.6,479.6 140.7,393 290.6,306.5  "
   id="polygon15204" />
	<path
   class="st5"
   d="m 289.35066,464.05066 -126,-72.8 126,-72.8 126,72.8 -126,72.8 z m -121,-72.8 121,69.9 121,-69.9 -121,-69.9 -121,69.9 z"
   id="path15206"
   inkscape:connector-curvature="0"
   style="fill:#aec3ff" />
	<g
   id="g15208">
		<path
   class="st14"
   d="M664.4,410H661v5.9h-4.1v-20.4h7.5c4.8,0,7.3,2.4,7.3,7.1c0,2.4-0.6,4.2-1.8,5.5    C668.5,409.4,666.7,410,664.4,410z M661,406.5h3.3c2.1,0,3.1-1.3,3.1-3.8c0-1.3-0.2-2.2-0.8-2.7c-0.5-0.5-1.3-0.8-2.3-0.8H661    V406.5z"
   id="path15210" />
		<path
   class="st14"
   d="M678.2,415.9h-4v-21h4v6.7c1.4-0.7,2.6-1.1,3.7-1.1c2,0,3.4,0.6,4.1,1.8c0.8,1.2,1.1,3,1.1,5.5v8.1h-4v-8    c0-1.3-0.2-2.2-0.5-2.8s-0.9-0.9-1.8-0.9c-0.8,0-1.6,0.1-2.3,0.4l-0.4,0.1V415.9z"
   id="path15212" />
		<path
   class="st14"
   d="M691.6,402.6c1.1-1.4,2.8-2.1,5.3-2.1c2.5,0,4.2,0.7,5.3,2.1c1.1,1.4,1.6,3.3,1.6,5.8c0,5.3-2.3,7.9-6.9,7.9    c-4.6,0-6.9-2.6-6.9-7.9C690,405.9,690.5,404,691.6,402.6z M694.7,411.8c0.4,0.7,1.1,1.1,2.2,1.1c1.1,0,1.8-0.4,2.2-1.1    c0.4-0.7,0.6-1.8,0.6-3.4c0-1.5-0.2-2.7-0.6-3.4c-0.4-0.7-1.1-1.1-2.2-1.1c-1.1,0-1.8,0.4-2.2,1.1c-0.4,0.7-0.6,1.8-0.6,3.4    C694.1,410,694.3,411.1,694.7,411.8z"
   id="path15214" />
		<path
   class="st14"
   d="M710.8,412.2c0.5,0.4,1.1,0.6,2,0.6c1.9,0,3.5-0.1,5-0.2l0.8-0.1l0.1,3c-2.3,0.6-4.4,0.8-6.2,0.8    c-2.3,0-3.9-0.6-4.9-1.8c-1-1.2-1.5-3.1-1.5-5.8c0-5.4,2.2-8.1,6.6-8.1c4.4,0,6.5,2.3,6.5,6.8l-0.3,2.8H710    C710,411.1,710.3,411.7,710.8,412.2z M715.2,407.1c0-1.2-0.2-2-0.6-2.5c-0.4-0.5-1-0.7-2-0.7s-1.6,0.2-2,0.7    c-0.4,0.5-0.6,1.3-0.6,2.5H715.2z"
   id="path15216" />
		<path
   class="st14"
   d="M726,415.9h-4v-15h4v0.8c1.4-0.8,2.6-1.2,3.8-1.2c2,0,3.4,0.6,4.1,1.8c0.8,1.2,1.1,3,1.1,5.5v8.1h-4v-8    c0-1.3-0.2-2.2-0.5-2.8s-0.9-0.9-1.8-0.9c-0.8,0-1.6,0.1-2.4,0.4l-0.4,0.1V415.9z"
   id="path15218" />
		<path
   class="st14"
   d="M738.6,399v-4.1h4v4.1H738.6z M738.6,415.9v-15h4v15H738.6z"
   id="path15220" />
		<path
   class="st14"
   d="M744.9,400.9h4.3l2.4,4.7l2.4-4.7h4.3l-4.3,7.3l4.3,7.7H754l-2.4-4.6l-2.4,4.6h-4.3l4.1-7.5L744.9,400.9z"
   id="path15222" />
		<path
   class="st14"
   d="M759.7,409.8v-3.7h8.9v3.7H759.7z"
   id="path15224" />
		<path
   class="st14"
   d="M777.7,400.6c1,0,2.4,0.2,4,0.5l0.8,0.2l-0.1,3.2c-1.6-0.2-2.8-0.2-3.5-0.2c-1.4,0-2.3,0.3-2.7,0.9    s-0.7,1.7-0.7,3.3c0,1.6,0.2,2.8,0.7,3.4c0.5,0.6,1.4,0.9,2.8,0.9l3.5-0.2l0.1,3.2c-2.1,0.4-3.8,0.6-4.9,0.6    c-2.2,0-3.8-0.6-4.8-1.9c-1-1.2-1.5-3.3-1.5-6c0-2.8,0.5-4.8,1.5-6C773.9,401.2,775.5,400.6,777.7,400.6z"
   id="path15226" />
		<path
   class="st14"
   d="M786.2,402.6c1.1-1.4,2.8-2.1,5.3-2.1c2.5,0,4.2,0.7,5.3,2.1c1.1,1.4,1.6,3.3,1.6,5.8c0,5.3-2.3,7.9-6.9,7.9    c-4.6,0-6.9-2.6-6.9-7.9C784.6,405.9,785.1,404,786.2,402.6z M789.3,411.8c0.4,0.7,1.1,1.1,2.2,1.1c1.1,0,1.8-0.4,2.2-1.1    c0.4-0.7,0.6-1.8,0.6-3.4c0-1.5-0.2-2.7-0.6-3.4c-0.4-0.7-1.1-1.1-2.2-1.1c-1.1,0-1.8,0.4-2.2,1.1c-0.4,0.7-0.6,1.8-0.6,3.4    C788.6,410,788.9,411.1,789.3,411.8z"
   id="path15228" />
		<path
   class="st14"
   d="M801.3,415.9v-15h4v1.6c1.7-1,3.3-1.6,4.8-2v4.1c-1.6,0.3-3,0.7-4.2,1l-0.6,0.2v10H801.3z"
   id="path15230" />
		<path
   class="st14"
   d="M816.5,412.2c0.5,0.4,1.1,0.6,2,0.6c1.9,0,3.5-0.1,5-0.2l0.8-0.1l0.1,3c-2.3,0.6-4.4,0.8-6.2,0.8    c-2.3,0-3.9-0.6-4.9-1.8c-1-1.2-1.5-3.1-1.5-5.8c0-5.4,2.2-8.1,6.6-8.1c4.4,0,6.5,2.3,6.5,6.8l-0.3,2.8h-8.8    C815.8,411.1,816,411.7,816.5,412.2z M820.9,407.1c0-1.2-0.2-2-0.6-2.5c-0.4-0.5-1-0.7-2-0.7c-1,0-1.6,0.2-2,0.7    c-0.4,0.5-0.6,1.3-0.6,2.5H820.9z"
   id="path15232" />
	</g>
	<g
   id="g15234">
		<path
   class="st14"
   d="M664.4,528.5H661v5.9h-4.1V514h7.5c4.8,0,7.3,2.4,7.3,7.1c0,2.4-0.6,4.2-1.8,5.5    C668.5,527.9,666.7,528.5,664.4,528.5z M661,525h3.3c2.1,0,3.1-1.3,3.1-3.8c0-1.3-0.2-2.2-0.8-2.7c-0.5-0.5-1.3-0.8-2.3-0.8H661    V525z"
   id="path15236" />
		<path
   class="st14"
   d="M678.2,534.4h-4v-21h4v6.7c1.4-0.7,2.6-1.1,3.7-1.1c2,0,3.4,0.6,4.1,1.8c0.8,1.2,1.1,3,1.1,5.5v8.1h-4v-8    c0-1.3-0.2-2.2-0.5-2.8s-0.9-0.9-1.8-0.9c-0.8,0-1.6,0.1-2.3,0.4l-0.4,0.1V534.4z"
   id="path15238" />
		<path
   class="st14"
   d="M691.6,521.1c1.1-1.4,2.8-2.1,5.3-2.1c2.5,0,4.2,0.7,5.3,2.1c1.1,1.4,1.6,3.3,1.6,5.8c0,5.3-2.3,7.9-6.9,7.9    c-4.6,0-6.9-2.6-6.9-7.9C690,524.4,690.5,522.5,691.6,521.1z M694.7,530.3c0.4,0.7,1.1,1.1,2.2,1.1c1.1,0,1.8-0.4,2.2-1.1    c0.4-0.7,0.6-1.8,0.6-3.4c0-1.5-0.2-2.7-0.6-3.4c-0.4-0.7-1.1-1.1-2.2-1.1c-1.1,0-1.8,0.4-2.2,1.1c-0.4,0.7-0.6,1.8-0.6,3.4    C694.1,528.5,694.3,529.6,694.7,530.3z"
   id="path15240" />
		<path
   class="st14"
   d="M710.8,530.6c0.5,0.4,1.1,0.6,2,0.6c1.9,0,3.5-0.1,5-0.2l0.8-0.1l0.1,3c-2.3,0.6-4.4,0.8-6.2,0.8    c-2.3,0-3.9-0.6-4.9-1.8c-1-1.2-1.5-3.1-1.5-5.8c0-5.4,2.2-8.1,6.6-8.1c4.4,0,6.5,2.3,6.5,6.8l-0.3,2.8H710    C710,529.6,710.3,530.2,710.8,530.6z M715.2,525.6c0-1.2-0.2-2-0.6-2.5c-0.4-0.5-1-0.7-2-0.7s-1.6,0.2-2,0.7    c-0.4,0.5-0.6,1.3-0.6,2.5H715.2z"
   id="path15242" />
		<path
   class="st14"
   d="M726,534.4h-4v-15h4v0.8c1.4-0.8,2.6-1.2,3.8-1.2c2,0,3.4,0.6,4.1,1.8c0.8,1.2,1.1,3,1.1,5.5v8.1h-4v-8    c0-1.3-0.2-2.2-0.5-2.8s-0.9-0.9-1.8-0.9c-0.8,0-1.6,0.1-2.4,0.4l-0.4,0.1V534.4z"
   id="path15244" />
		<path
   class="st14"
   d="M738.6,517.5v-4.1h4v4.1H738.6z M738.6,534.4v-15h4v15H738.6z"
   id="path15246" />
		<path
   class="st14"
   d="M744.9,519.4h4.3l2.4,4.7l2.4-4.7h4.3l-4.3,7.3l4.3,7.7H754l-2.4-4.6l-2.4,4.6h-4.3l4.1-7.5L744.9,519.4z"
   id="path15248" />
		<path
   class="st14"
   d="M759.7,528.3v-3.7h8.9v3.7H759.7z"
   id="path15250" />
		<path
   class="st14"
   d="M777.7,519.1c1,0,2.4,0.2,4,0.5l0.8,0.2l-0.1,3.2c-1.6-0.2-2.8-0.2-3.5-0.2c-1.4,0-2.3,0.3-2.7,0.9    s-0.7,1.7-0.7,3.3c0,1.6,0.2,2.8,0.7,3.4c0.5,0.6,1.4,0.9,2.8,0.9l3.5-0.2l0.1,3.2c-2.1,0.4-3.8,0.6-4.9,0.6    c-2.2,0-3.8-0.6-4.8-1.9c-1-1.2-1.5-3.3-1.5-6c0-2.8,0.5-4.8,1.5-6C773.9,519.7,775.5,519.1,777.7,519.1z"
   id="path15252" />
		<path
   class="st14"
   d="M785.6,534.4v-21h4v21H785.6z"
   id="path15254" />
		<path
   class="st14"
   d="M802.4,519.4h4v15h-4v-0.8c-1.4,0.8-2.7,1.2-3.8,1.2c-2.1,0-3.5-0.6-4.2-1.7c-0.7-1.1-1.1-3.1-1.1-5.8v-7.9    h4v7.9c0,1.5,0.1,2.5,0.4,3s0.8,0.8,1.7,0.8c0.9,0,1.7-0.1,2.5-0.4l0.4-0.1V519.4z"
   id="path15256" />
		<path
   class="st14"
   d="M820.9,523.2c-2.5-0.3-4.2-0.5-5.2-0.5s-1.6,0.1-1.9,0.3s-0.4,0.5-0.4,0.9c0,0.4,0.2,0.7,0.6,0.8    c0.4,0.2,1.4,0.4,3,0.7c1.6,0.3,2.8,0.8,3.4,1.4c0.7,0.7,1,1.7,1,3.2c0,3.2-2,4.9-6,4.9c-1.3,0-2.9-0.2-4.8-0.5l-1-0.2l0.1-3.4    c2.5,0.3,4.2,0.5,5.2,0.5c1,0,1.6-0.1,2-0.3c0.3-0.2,0.5-0.5,0.5-0.9s-0.2-0.7-0.6-0.8c-0.4-0.2-1.3-0.4-2.9-0.7s-2.7-0.7-3.5-1.3    c-0.8-0.6-1.1-1.7-1.1-3.3c0-1.6,0.5-2.8,1.6-3.6c1.1-0.8,2.5-1.2,4.2-1.2c1.2,0,2.8,0.2,4.8,0.6l1,0.2L820.9,523.2z"
   id="path15258" />
		<path
   class="st14"
   d="M832.6,522.9h-3.7v6.2c0,0.6,0,1,0,1.3c0,0.3,0.1,0.5,0.3,0.6c0.2,0.2,0.5,0.3,0.9,0.3l2.3-0.1l0.2,3.2    c-1.3,0.3-2.4,0.5-3.1,0.5c-1.8,0-3-0.4-3.7-1.2c-0.7-0.8-1-2.3-1-4.5v-6.2h-1.8v-3.4h1.8v-4.2h4v4.2h3.7V522.9z"
   id="path15260" />
		<path
   class="st14"
   d="M839.3,530.6c0.5,0.4,1.1,0.6,2,0.6c1.9,0,3.5-0.1,5-0.2l0.8-0.1l0.1,3c-2.3,0.6-4.4,0.8-6.2,0.8    c-2.3,0-3.9-0.6-4.9-1.8c-1-1.2-1.5-3.1-1.5-5.8c0-5.4,2.2-8.1,6.6-8.1c4.4,0,6.5,2.3,6.5,6.8l-0.3,2.8h-8.8    C838.6,529.6,838.8,530.2,839.3,530.6z M843.7,525.6c0-1.2-0.2-2-0.6-2.5c-0.4-0.5-1-0.7-2-0.7s-1.6,0.2-2,0.7    c-0.4,0.5-0.6,1.3-0.6,2.5H843.7z"
   id="path15262" />
		<path
   class="st14"
   d="M850.5,534.4v-15h4v1.6c1.7-1,3.3-1.6,4.8-2v4.1c-1.6,0.3-3,0.7-4.2,1l-0.6,0.2v10H850.5z"
   id="path15264" />
	</g>
	<g
   id="g15266">
		<path
   class="st14"
   d="M656.9,603.4V583h4.1v20.4H656.9z"
   id="path15268" />
		<path
   class="st14"
   d="M672.9,597.5h-3.4v5.9h-4.1V583h7.5c4.8,0,7.3,2.4,7.3,7.1c0,2.4-0.6,4.2-1.8,5.5    C677.1,596.9,675.3,597.5,672.9,597.5z M669.6,594h3.3c2.1,0,3.1-1.3,3.1-3.8c0-1.3-0.2-2.2-0.8-2.7c-0.5-0.5-1.3-0.8-2.3-0.8    h-3.3V594z"
   id="path15270" />
		<path
   class="st14"
   d="M683.1,603.4V583h13v3.6h-8.9v6h7.3v3.6h-7.3v7.2H683.1z"
   id="path15272" />
		<path
   class="st14"
   d="M705.3,586.3c-2.2,0-3.3,0.7-3.3,2.2c0,0.6,0.3,1.1,0.8,1.5c0.5,0.3,1.8,0.8,3.8,1.5c2,0.6,3.4,1.4,4.2,2.2    c0.8,0.8,1.2,2.1,1.2,3.7c0,2.1-0.6,3.8-2,4.9c-1.3,1.1-3,1.7-5.1,1.7c-1.6,0-3.5-0.2-5.7-0.7l-1.1-0.2l0.4-3.2    c2.7,0.4,4.7,0.5,6.1,0.5c2.1,0,3.2-0.9,3.2-2.6c0-0.6-0.2-1.1-0.7-1.5s-1.5-0.8-2.9-1.2c-2.3-0.7-4-1.4-4.9-2.4    c-1-0.9-1.4-2.2-1.4-3.8c0-2,0.6-3.6,1.9-4.6c1.2-1,2.9-1.5,5.1-1.5c1.5,0,3.4,0.2,5.6,0.6l1.1,0.2l-0.3,3.3    C708.5,586.4,706.5,586.3,705.3,586.3z"
   id="path15274" />
	</g>
	<g
   id="g15276">
		<path
   class="st5"
   d="M282.5,432.3l-65.1-37.6c-4-2.3-3.5-6.3,1.1-9l62.9-36.3c4.6-2.7,11.6-3,15.6-0.6l65.1,37.6    c4,2.3,3.5,6.3-1.1,9l-62.9,36.3C293.5,434.4,286.5,434.6,282.5,432.3z"
   id="path15278"
   style="opacity:0.5" />
		<path
   class="st9"
   d="M288.8,400.9l-9-5.2c-0.6-0.3-0.5-0.9,0.2-1.2l8.7-5c0.6-0.4,1.6-0.4,2.2-0.1l9,5.2c0.6,0.3,0.5,0.9-0.2,1.2    l-8.7,5C290.3,401.1,289.3,401.2,288.8,400.9z"
   id="path15280" />
		<linearGradient
   id="SVGID_11_"
   gradientUnits="userSpaceOnUse"
   x1="214.7263"
   y1="371.0427"
   x2="364.7955"
   y2="371.0427">
			<stop
   offset="0"
   style="stop-color:#5347C2"
   id="stop15283" />
			<stop
   offset="1"
   style="stop-color:#BAB5E7"
   id="stop15285" />
		</linearGradient>
		<path
   class="st15"
   d="M217.4,394.7l0.2,0.1c0.3-0.2,0.6-0.4,0.9-0.6l62.9-36.3c4.6-2.7,11.6-3,15.6-0.6l64.9,37.5    c3.7-2.6,3.9-6.2,0.2-8.4L297,348.8c-4-2.3-11-2-15.6,0.6l-62.9,36.3C213.9,388.4,213.4,392.4,217.4,394.7z"
   id="path15287" />
	</g>
</g>
</svg>