<?xml version="1.0" encoding="utf-8"?>
<!-- Generator: Adobe Illustrator 22.0.0, SVG Export Plug-In . SVG Version: 6.00 Build 0)  -->
<svg version="1.1" id="Laag_1" xmlns="http://www.w3.org/2000/svg" xmlns:xlink="http://www.w3.org/1999/xlink" x="0px" y="0px"
	 viewBox="200 100 700 700" style="enable-background:new 200 100 700 700;" xml:space="preserve">
<style type="text/css">
	.st0{fill:url(#SVGID_1_);}
	.st1{fill:url(#SVGID_2_);}
	.st2{fill:url(#SVGID_3_);}
	.st3{fill:url(#SVGID_4_);}
	.st4{fill:url(#SVGID_5_);}
	.st5{fill:url(#SVGID_6_);}
	.st6{fill:url(#SVGID_7_);}
	.st7{fill:url(#SVGID_8_);}
	.st8{fill:url(#SVGID_9_);}
	.st9{fill:url(#SVGID_10_);}
	.st10{fill:url(#SVGID_11_);}
	.st11{fill:#CDD6FF;}
	.st12{fill:#E1EAFF;}
	.st13{fill:#BAB5E7;}
	.st14{opacity:0.6;}
	.st15{opacity:0.4;fill:url(#SVGID_12_);}
	.st16{opacity:0.4;fill:url(#SVGID_13_);}
	.st17{opacity:0.4;fill:url(#SVGID_14_);}
	.st18{fill:url(#SVGID_15_);}
	.st19{fill:url(#SVGID_16_);}
	.st20{fill:url(#SVGID_17_);}
	.st21{opacity:0.4;fill:url(#SVGID_18_);}
	.st22{opacity:0.4;fill:url(#SVGID_19_);}
	.st23{opacity:0.4;fill:url(#SVGID_20_);}
	.st24{fill:url(#SVGID_21_);}
	.st25{fill:url(#SVGID_22_);}
	.st26{fill:url(#SVGID_23_);}
	.st27{opacity:0.6;fill:url(#SVGID_24_);}
	.st28{opacity:0.6;fill:url(#SVGID_25_);}
	.st29{opacity:0.6;fill:url(#SVGID_26_);}
	.st30{fill:url(#SVGID_27_);}
	.st31{fill:url(#SVGID_28_);}
	.st32{fill:url(#SVGID_29_);}
</style>
<g>
	<g>
		<g>
			<linearGradient id="SVGID_1_" gradientUnits="userSpaceOnUse" x1="142.9891" y1="463.9296" x2="424.4177" y2="463.9296">
				<stop  offset="0" style="stop-color:#5347C2"/>
				<stop  offset="1" style="stop-color:#BAB5E7"/>
			</linearGradient>
			<polygon class="st0" points="423.2,546 143,384 144.2,381.8 424.4,543.9 			"/>
		</g>
		<linearGradient id="SVGID_2_" gradientUnits="userSpaceOnUse" x1="231.9145" y1="437.6631" x2="245.8338" y2="437.6631">
			<stop  offset="0" style="stop-color:#5347C2"/>
			<stop  offset="1" style="stop-color:#BAB5E7"/>
		</linearGradient>
		<path class="st1" d="M243.8,434.8c-2.7-1.6-7.1-1.6-9.8,0c-2.7,1.6-2.7,4.1,0,5.7c2.7,1.6,7.1,1.6,9.8,0
			C246.5,438.9,246.5,436.4,243.8,434.8z"/>
	</g>
	<g>
		<g>
			<linearGradient id="SVGID_3_" gradientUnits="userSpaceOnUse" x1="575.5823" y1="567.6994" x2="857.0109" y2="567.6994">
				<stop  offset="0" style="stop-color:#5347C2"/>
				<stop  offset="1" style="stop-color:#BAB5E7"/>
			</linearGradient>
			<polygon class="st2" points="576.8,649.8 575.6,647.7 855.8,485.6 857,487.7 			"/>
		</g>
		<linearGradient id="SVGID_4_" gradientUnits="userSpaceOnUse" x1="783.302" y1="524.3918" x2="797.2213" y2="524.3918">
			<stop  offset="0" style="stop-color:#5347C2"/>
			<stop  offset="1" style="stop-color:#BAB5E7"/>
		</linearGradient>
		<path class="st3" d="M785.3,521.6c2.7-1.6,7.1-1.6,9.8,0c2.7,1.6,2.7,4.1,0,5.7c-2.7,1.6-7.1,1.6-9.8,0
			C782.6,525.7,782.6,523.1,785.3,521.6z"/>
	</g>
	<g>
		<g>
			<linearGradient id="SVGID_5_" gradientUnits="userSpaceOnUse" x1="146.7963" y1="713.6187" x2="428.2249" y2="713.6187">
				<stop  offset="0" style="stop-color:#5347C2"/>
				<stop  offset="1" style="stop-color:#BAB5E7"/>
			</linearGradient>
			<polygon class="st4" points="148,795.7 146.8,793.6 427,631.5 428.2,633.7 			"/>
		</g>
		<linearGradient id="SVGID_6_" gradientUnits="userSpaceOnUse" x1="287.4502" y1="708.7911" x2="301.3695" y2="708.7911">
			<stop  offset="0" style="stop-color:#5347C2"/>
			<stop  offset="1" style="stop-color:#BAB5E7"/>
		</linearGradient>
		<path class="st5" d="M289.5,706c2.7-1.6,7.1-1.6,9.8,0c2.7,1.6,2.7,4.1,0,5.7c-2.7,1.6-7.1,1.6-9.8,0
			C286.8,710.1,286.8,707.5,289.5,706z"/>
	</g>
	<g>
		<g>
			<linearGradient id="SVGID_7_" gradientUnits="userSpaceOnUse" x1="568.4682" y1="701.9561" x2="849.8969" y2="701.9561">
				<stop  offset="0" style="stop-color:#5347C2"/>
				<stop  offset="1" style="stop-color:#BAB5E7"/>
			</linearGradient>
			<polygon class="st6" points="848.7,784.1 568.5,622 569.7,619.9 849.9,781.9 			"/>
		</g>
		<linearGradient id="SVGID_8_" gradientUnits="userSpaceOnUse" x1="716.7628" y1="709.7719" x2="730.6821" y2="709.7719">
			<stop  offset="0" style="stop-color:#5347C2"/>
			<stop  offset="1" style="stop-color:#BAB5E7"/>
		</linearGradient>
		<path class="st7" d="M728.6,706.9c-2.7-1.6-7.1-1.6-9.8,0c-2.7,1.6-2.7,4.1,0,5.7c2.7,1.6,7.1,1.6,9.8,0
			C731.4,711,731.4,708.5,728.6,706.9z"/>
	</g>
	<g>
		<g>
			<g>
				<linearGradient id="SVGID_9_" gradientUnits="userSpaceOnUse" x1="74.2329" y1="558.7325" x2="747.4313" y2="558.7325">
					<stop  offset="0" style="stop-color:#5347C2"/>
					<stop  offset="1" style="stop-color:#BAB5E7"/>
				</linearGradient>
				<polygon class="st8" points="733.1,558.7 553.3,662.5 373.6,558.7 553.3,454.9 				"/>
				<linearGradient id="SVGID_10_" gradientUnits="userSpaceOnUse" x1="373.5307" y1="632.6697" x2="553.2922" y2="632.6697">
					<stop  offset="0" style="stop-color:#5347C2"/>
					<stop  offset="1" style="stop-color:#BAB5E7"/>
				</linearGradient>
				<polygon class="st9" points="373.5,602.8 373.5,558.7 553.3,662.5 553.3,706.6 				"/>
				<linearGradient id="SVGID_11_" gradientUnits="userSpaceOnUse" x1="922.9123" y1="352.9299" x2="543.5653" y2="732.2769">
					<stop  offset="0" style="stop-color:#5347C2"/>
					<stop  offset="1" style="stop-color:#BAB5E7"/>
				</linearGradient>
				<polygon class="st10" points="553.3,706.6 553.3,662.5 733.1,558.7 733.1,602.8 				"/>
				<polygon class="st11" points="672.7,538.2 531.9,620.2 437.7,565.7 578.5,483.7 				"/>
				<polygon class="st12" points="437.7,575.6 437.7,565.7 531.9,620.2 531.9,630 				"/>
				<polygon class="st12" points="531.9,630 531.9,620.2 672.7,538.2 672.7,548 				"/>
				<g>
					<g>
						<polygon class="st13" points="582.8,655.3 564.3,666 564.3,655.9 582.8,645.2 						"/>
						<path class="st13" d="M582.8,645.2l-18.5,10.7l-12.6-7.3c-5.1-2.9-5.1-7.7,0-10.7l0,0c5.1-2.9,13.4-2.9,18.5,0L582.8,645.2z"
							/>
					</g>
					<g>
						<polygon class="st13" points="611.4,638.9 592.9,649.5 592.9,639.5 611.4,628.8 						"/>
						<path class="st13" d="M611.4,628.8l-18.5,10.7l-12.6-7.3c-5.1-2.9-5.1-7.7,0-10.7l0,0c5.1-2.9,13.4-2.9,18.5,0L611.4,628.8z"
							/>
					</g>
					<g>
						<polygon class="st13" points="640,622.5 621.5,633.1 621.5,623.1 640,612.4 						"/>
						<path class="st13" d="M640,612.4l-18.5,10.7l-12.6-7.3c-5.1-2.9-5.1-7.7,0-10.7l0,0c5.1-2.9,13.4-2.9,18.5,0L640,612.4z"/>
					</g>
					<g>
						<polygon class="st13" points="668.5,606.1 650,616.7 650,606.6 668.5,596 						"/>
						<path class="st13" d="M668.5,596L650,606.6l-12.6-7.3c-5.1-3-5.1-7.7,0-10.7l0,0c5.1-2.9,13.4-2.9,18.5,0L668.5,596z"/>
					</g>
					<g>
						<polygon class="st13" points="697.1,589.6 678.6,600.3 678.6,590.2 697.1,579.6 						"/>
						<path class="st13" d="M697.1,579.6l-18.5,10.7L666,583c-5.1-2.9-5.1-7.7,0-10.7l0,0c5.1-3,13.4-3,18.5,0L697.1,579.6z"/>
					</g>
					<g>
						<polygon class="st13" points="725.6,573.2 707.1,583.9 707.1,573.8 725.6,563.1 						"/>
						<path class="st13" d="M725.6,563.1l-18.5,10.7l-12.6-7.3c-5.1-2.9-5.1-7.7,0-10.7l0,0c5.1-2.9,13.4-2.9,18.5,0L725.6,563.1z"
							/>
					</g>
				</g>
				<g>
					<g>
						<path class="st13" d="M558.2,477.5c-2.6,1.5-5.9,2.2-9.3,2.2c-3.3,0-6.7-0.7-9.2-2.2l-12.6-7.3l18.5-10.7l12.6,7.3
							C563.3,469.8,563.3,474.6,558.2,477.5z"/>
					</g>
					<g>
						<path class="st13" d="M529.7,494c-2.6,1.5-5.9,2.2-9.3,2.2c-3.3,0-6.7-0.7-9.2-2.2l-12.6-7.3l18.5-10.7l12.6,7.3
							C534.8,486.2,534.8,491,529.7,494z"/>
					</g>
					<g>
						<path class="st13" d="M501.1,510.4c-2.6,1.5-5.9,2.2-9.3,2.2c-3.3,0-6.7-0.7-9.2-2.2l-12.6-7.3l18.5-10.7l12.6,7.3
							C506.2,502.6,506.2,507.4,501.1,510.4z"/>
					</g>
					<g>
						<path class="st13" d="M472.5,526.8c-2.6,1.5-5.9,2.2-9.3,2.2c-3.3,0-6.7-0.7-9.2-2.2l-12.6-7.3l18.5-10.7l12.6,7.3
							C477.6,519,477.6,523.8,472.5,526.8z"/>
					</g>
					<g>
						<path class="st13" d="M444,543.2c-2.6,1.5-5.9,2.2-9.2,2.2c-3.4,0-6.7-0.7-9.3-2.2l-12.6-7.3l18.5-10.7h0l12.6,7.3
							C449.1,535.4,449.1,540.2,444,543.2z"/>
					</g>
					<g>
						<path class="st13" d="M415.4,559.6c-2.6,1.5-5.9,2.2-9.3,2.2c-3.3,0-6.7-0.7-9.2-2.2l-12.6-7.3l18.5-10.7l12.6,7.3
							C420.5,551.9,420.5,556.6,415.4,559.6z"/>
					</g>
				</g>
			</g>
			<g class="st14">
				<linearGradient id="SVGID_12_" gradientUnits="userSpaceOnUse" x1="470.0324" y1="533.5638" x2="470.0324" y2="451.123">
					<stop  offset="0" style="stop-color:#5347C2"/>
					<stop  offset="1" style="stop-color:#BAB5E7"/>
				</linearGradient>
				<polygon class="st15" points="386.8,520 386.8,558.6 553.2,462.5 553.2,423.9 				"/>
				<linearGradient id="SVGID_13_" gradientUnits="userSpaceOnUse" x1="636.5959" y1="629.6265" x2="636.5959" y2="547.1857">
					<stop  offset="0" style="stop-color:#5347C2"/>
					<stop  offset="1" style="stop-color:#BAB5E7"/>
				</linearGradient>
				<polygon class="st16" points="553.4,616.1 553.4,654.7 719.8,558.6 719.8,519.9 				"/>
				
					<linearGradient id="SVGID_14_" gradientUnits="userSpaceOnUse" x1="2745.5562" y1="629.6265" x2="2745.5562" y2="547.1857" gradientTransform="matrix(-1 0 0 1 3215.5886 0)">
					<stop  offset="0" style="stop-color:#5347C2"/>
					<stop  offset="1" style="stop-color:#BAB5E7"/>
				</linearGradient>
				<polygon class="st17" points="553.2,616.1 553.2,654.7 386.8,558.6 386.8,519.9 				"/>
			</g>
		</g>
		<g>
			<g>
				<linearGradient id="SVGID_15_" gradientUnits="userSpaceOnUse" x1="74.2329" y1="472.977" x2="747.4313" y2="472.977">
					<stop  offset="0" style="stop-color:#5347C2"/>
					<stop  offset="1" style="stop-color:#BAB5E7"/>
				</linearGradient>
				<polygon class="st18" points="733.1,473 553.3,576.8 373.6,473 553.3,369.2 				"/>
				<linearGradient id="SVGID_16_" gradientUnits="userSpaceOnUse" x1="373.5307" y1="546.9142" x2="553.2922" y2="546.9142">
					<stop  offset="0" style="stop-color:#5347C2"/>
					<stop  offset="1" style="stop-color:#BAB5E7"/>
				</linearGradient>
				<polygon class="st19" points="373.5,517.1 373.5,473 553.3,576.8 553.3,620.9 				"/>
				<linearGradient id="SVGID_17_" gradientUnits="userSpaceOnUse" x1="922.9123" y1="267.1744" x2="543.5653" y2="646.5214">
					<stop  offset="0" style="stop-color:#5347C2"/>
					<stop  offset="1" style="stop-color:#BAB5E7"/>
				</linearGradient>
				<polygon class="st20" points="553.3,620.9 553.3,576.8 733.1,473 733.1,517.1 				"/>
				<polygon class="st11" points="672.7,452.4 531.9,534.4 437.7,480 578.5,398 				"/>
				<polygon class="st12" points="437.7,489.8 437.7,480 531.9,534.4 531.9,544.2 				"/>
				<polygon class="st12" points="531.9,544.2 531.9,534.4 672.7,452.4 672.7,462.2 				"/>
				<g>
					<g>
						<polygon class="st13" points="582.8,569.5 564.3,580.2 564.3,570.1 582.8,559.4 						"/>
						<path class="st13" d="M582.8,559.4l-18.5,10.7l-12.6-7.3c-5.1-2.9-5.1-7.7,0-10.7l0,0c5.1-2.9,13.4-2.9,18.5,0L582.8,559.4z"
							/>
					</g>
					<g>
						<polygon class="st13" points="611.4,553.1 592.9,563.8 592.9,553.7 611.4,543 						"/>
						<path class="st13" d="M611.4,543l-18.5,10.7l-12.6-7.3c-5.1-2.9-5.1-7.7,0-10.7l0,0c5.1-2.9,13.4-2.9,18.5,0L611.4,543z"/>
					</g>
					<g>
						<polygon class="st13" points="640,536.7 621.5,547.4 621.5,537.3 640,526.6 						"/>
						<path class="st13" d="M640,526.6l-18.5,10.7l-12.6-7.3c-5.1-2.9-5.1-7.7,0-10.7l0,0c5.1-2.9,13.4-2.9,18.5,0L640,526.6z"/>
					</g>
					<g>
						<polygon class="st13" points="668.5,520.3 650,531 650,520.9 668.5,510.2 						"/>
						<path class="st13" d="M668.5,510.2L650,520.9l-12.6-7.3c-5.1-3-5.1-7.7,0-10.7l0,0c5.1-2.9,13.4-2.9,18.5,0L668.5,510.2z"/>
					</g>
					<g>
						<polygon class="st13" points="697.1,503.9 678.6,514.6 678.6,504.5 697.1,493.8 						"/>
						<path class="st13" d="M697.1,493.8l-18.5,10.7l-12.6-7.3c-5.1-2.9-5.1-7.7,0-10.7l0,0c5.1-3,13.4-3,18.5,0L697.1,493.8z"/>
					</g>
					<g>
						<polygon class="st13" points="725.6,487.5 707.1,498.2 707.1,488.1 725.6,477.4 						"/>
						<path class="st13" d="M725.6,477.4l-18.5,10.7l-12.6-7.3c-5.1-2.9-5.1-7.7,0-10.7l0,0c5.1-2.9,13.4-2.9,18.5,0L725.6,477.4z"
							/>
					</g>
				</g>
				<g>
					<g>
						<path class="st13" d="M558.2,391.8c-2.6,1.5-5.9,2.2-9.3,2.2c-3.3,0-6.7-0.7-9.2-2.2l-12.6-7.3l18.5-10.7l12.6,7.3
							C563.3,384.1,563.3,388.8,558.2,391.8z"/>
					</g>
					<g>
						<path class="st13" d="M529.7,408.2c-2.6,1.5-5.9,2.2-9.3,2.2c-3.3,0-6.7-0.7-9.2-2.2l-12.6-7.3l18.5-10.7l12.6,7.3
							C534.8,400.5,534.8,405.2,529.7,408.2z"/>
					</g>
					<g>
						<path class="st13" d="M501.1,424.6c-2.6,1.5-5.9,2.2-9.3,2.2c-3.3,0-6.7-0.7-9.2-2.2l-12.6-7.3l18.5-10.7l12.6,7.3
							C506.2,416.9,506.2,421.7,501.1,424.6z"/>
					</g>
					<g>
						<path class="st13" d="M472.5,441c-2.6,1.5-5.9,2.2-9.3,2.2c-3.3,0-6.7-0.7-9.2-2.2l-12.6-7.3l18.5-10.7l12.6,7.3
							C477.6,433.3,477.6,438.1,472.5,441z"/>
					</g>
					<g>
						<path class="st13" d="M444,457.4c-2.6,1.5-5.9,2.2-9.2,2.2c-3.4,0-6.7-0.7-9.3-2.2l-12.6-7.3l18.5-10.7h0l12.6,7.3
							C449.1,449.7,449.1,454.5,444,457.4z"/>
					</g>
					<g>
						<path class="st13" d="M415.4,473.8c-2.6,1.5-5.9,2.2-9.3,2.2c-3.3,0-6.7-0.7-9.2-2.2l-12.6-7.3l18.5-10.7l12.6,7.3
							C420.5,466.1,420.5,470.9,415.4,473.8z"/>
					</g>
				</g>
			</g>
			<g class="st14">
				<linearGradient id="SVGID_18_" gradientUnits="userSpaceOnUse" x1="470.0324" y1="447.8083" x2="470.0324" y2="365.3676">
					<stop  offset="0" style="stop-color:#5347C2"/>
					<stop  offset="1" style="stop-color:#BAB5E7"/>
				</linearGradient>
				<polygon class="st21" points="386.8,434.3 386.8,472.8 553.2,376.8 553.2,338.1 				"/>
				<linearGradient id="SVGID_19_" gradientUnits="userSpaceOnUse" x1="636.5959" y1="543.871" x2="636.5959" y2="461.4302">
					<stop  offset="0" style="stop-color:#5347C2"/>
					<stop  offset="1" style="stop-color:#BAB5E7"/>
				</linearGradient>
				<polygon class="st22" points="553.4,530.3 553.4,568.9 719.8,472.8 719.8,434.2 				"/>
				
					<linearGradient id="SVGID_20_" gradientUnits="userSpaceOnUse" x1="2745.5562" y1="543.871" x2="2745.5562" y2="461.4302" gradientTransform="matrix(-1 0 0 1 3215.5886 0)">
					<stop  offset="0" style="stop-color:#5347C2"/>
					<stop  offset="1" style="stop-color:#BAB5E7"/>
				</linearGradient>
				<polygon class="st23" points="553.2,530.3 553.2,568.9 386.8,472.8 386.8,434.2 				"/>
			</g>
		</g>
		<g>
			<g>
				<linearGradient id="SVGID_21_" gradientUnits="userSpaceOnUse" x1="74.2329" y1="389.6952" x2="747.4313" y2="389.6952">
					<stop  offset="0" style="stop-color:#5347C2"/>
					<stop  offset="1" style="stop-color:#BAB5E7"/>
				</linearGradient>
				<polygon class="st24" points="733.1,389.7 553.3,493.5 373.6,389.7 553.3,285.9 				"/>
				<linearGradient id="SVGID_22_" gradientUnits="userSpaceOnUse" x1="373.5307" y1="463.6324" x2="553.2922" y2="463.6324">
					<stop  offset="0" style="stop-color:#5347C2"/>
					<stop  offset="1" style="stop-color:#BAB5E7"/>
				</linearGradient>
				<polygon class="st25" points="373.5,433.8 373.5,389.7 553.3,493.5 553.3,537.6 				"/>
				<linearGradient id="SVGID_23_" gradientUnits="userSpaceOnUse" x1="922.9123" y1="183.8926" x2="543.5653" y2="563.2396">
					<stop  offset="0" style="stop-color:#5347C2"/>
					<stop  offset="1" style="stop-color:#BAB5E7"/>
				</linearGradient>
				<polygon class="st26" points="553.3,537.6 553.3,493.5 733.1,389.7 733.1,433.8 				"/>
				<polygon class="st11" points="672.7,369.1 531.9,451.1 437.7,396.7 578.5,314.7 				"/>
				<polygon class="st12" points="437.7,406.5 437.7,396.7 531.9,451.1 531.9,461 				"/>
				<polygon class="st12" points="531.9,461 531.9,451.1 672.7,369.1 672.7,378.9 				"/>
				<g>
					<g>
						<polygon class="st13" points="582.8,486.2 564.3,496.9 564.3,486.8 582.8,476.2 						"/>
						<path class="st13" d="M582.8,476.2l-18.5,10.7l-12.6-7.3c-5.1-2.9-5.1-7.7,0-10.7l0,0c5.1-2.9,13.4-2.9,18.5,0L582.8,476.2z"
							/>
					</g>
					<g>
						<polygon class="st13" points="611.4,469.8 592.9,480.5 592.9,470.4 611.4,459.7 						"/>
						<path class="st13" d="M611.4,459.7l-18.5,10.7l-12.6-7.3c-5.1-2.9-5.1-7.7,0-10.7l0,0c5.1-2.9,13.4-2.9,18.5,0L611.4,459.7z"
							/>
					</g>
					<g>
						<polygon class="st13" points="640,453.4 621.5,464.1 621.5,454 640,443.3 						"/>
						<path class="st13" d="M640,443.3L621.5,454l-12.6-7.3c-5.1-2.9-5.1-7.7,0-10.7l0,0c5.1-2.9,13.4-2.9,18.5,0L640,443.3z"/>
					</g>
					<g>
						<polygon class="st13" points="668.5,437 650,447.7 650,437.6 668.5,426.9 						"/>
						<path class="st13" d="M668.5,426.9L650,437.6l-12.6-7.3c-5.1-3-5.1-7.7,0-10.7l0,0c5.1-2.9,13.4-2.9,18.5,0L668.5,426.9z"/>
					</g>
					<g>
						<polygon class="st13" points="697.1,420.6 678.6,431.3 678.6,421.2 697.1,410.5 						"/>
						<path class="st13" d="M697.1,410.5l-18.5,10.7l-12.6-7.3c-5.1-2.9-5.1-7.7,0-10.7l0,0c5.1-3,13.4-3,18.5,0L697.1,410.5z"/>
					</g>
					<g>
						<polygon class="st13" points="725.6,404.2 707.1,414.9 707.1,404.8 725.6,394.1 						"/>
						<path class="st13" d="M725.6,394.1l-18.5,10.7l-12.6-7.3c-5.1-2.9-5.1-7.7,0-10.7l0,0c5.1-2.9,13.4-2.9,18.5,0L725.6,394.1z"
							/>
					</g>
				</g>
				<g>
					<g>
						<path class="st13" d="M558.2,308.5c-2.6,1.5-5.9,2.2-9.3,2.2c-3.3,0-6.7-0.7-9.2-2.2l-12.6-7.3l18.5-10.7l12.6,7.3
							C563.3,300.8,563.3,305.6,558.2,308.5z"/>
					</g>
					<g>
						<path class="st13" d="M529.7,324.9c-2.6,1.5-5.9,2.2-9.3,2.2c-3.3,0-6.7-0.7-9.2-2.2l-12.6-7.3l18.5-10.7l12.6,7.3
							C534.8,317.2,534.8,322,529.7,324.9z"/>
					</g>
					<g>
						<path class="st13" d="M501.1,341.3c-2.6,1.5-5.9,2.2-9.3,2.2c-3.3,0-6.7-0.7-9.2-2.2l-12.6-7.3l18.5-10.7l12.6,7.3
							C506.2,333.6,506.2,338.4,501.1,341.3z"/>
					</g>
					<g>
						<path class="st13" d="M472.5,357.7c-2.6,1.5-5.9,2.2-9.3,2.2c-3.3,0-6.7-0.7-9.2-2.2l-12.6-7.3l18.5-10.7l12.6,7.3
							C477.6,350,477.6,354.8,472.5,357.7z"/>
					</g>
					<g>
						<path class="st13" d="M444,374.1c-2.6,1.5-5.9,2.2-9.2,2.2c-3.4,0-6.7-0.7-9.3-2.2l-12.6-7.3l18.5-10.7h0l12.6,7.3
							C449.1,366.4,449.1,371.2,444,374.1z"/>
					</g>
					<g>
						<path class="st13" d="M415.4,390.5c-2.6,1.5-5.9,2.2-9.3,2.2c-3.3,0-6.7-0.7-9.2-2.2l-12.6-7.3l18.5-10.7l12.6,7.3
							C420.5,382.8,420.5,387.6,415.4,390.5z"/>
					</g>
				</g>
			</g>
			<g>
				<linearGradient id="SVGID_24_" gradientUnits="userSpaceOnUse" x1="470.0324" y1="364.5266" x2="470.0324" y2="282.0858">
					<stop  offset="0" style="stop-color:#5347C2"/>
					<stop  offset="1" style="stop-color:#BAB5E7"/>
				</linearGradient>
				<polygon class="st27" points="386.8,351 386.8,389.6 553.2,293.5 553.2,254.8 				"/>
				<linearGradient id="SVGID_25_" gradientUnits="userSpaceOnUse" x1="636.5959" y1="460.5892" x2="636.5959" y2="378.1484">
					<stop  offset="0" style="stop-color:#5347C2"/>
					<stop  offset="1" style="stop-color:#BAB5E7"/>
				</linearGradient>
				<polygon class="st28" points="553.4,447.1 553.4,485.6 719.8,389.5 719.8,350.9 				"/>
				
					<linearGradient id="SVGID_26_" gradientUnits="userSpaceOnUse" x1="2745.5562" y1="460.5892" x2="2745.5562" y2="378.1484" gradientTransform="matrix(-1 0 0 1 3215.5886 0)">
					<stop  offset="0" style="stop-color:#5347C2"/>
					<stop  offset="1" style="stop-color:#BAB5E7"/>
				</linearGradient>
				<polygon class="st29" points="553.2,447.1 553.2,485.6 386.8,389.5 386.8,350.9 				"/>
			</g>
		</g>
		<g>
			<linearGradient id="SVGID_27_" gradientUnits="userSpaceOnUse" x1="74.2329" y1="308.0626" x2="747.4313" y2="308.0626">
				<stop  offset="0" style="stop-color:#5347C2"/>
				<stop  offset="1" style="stop-color:#BAB5E7"/>
			</linearGradient>
			<polygon class="st30" points="733.1,308.1 553.3,411.8 373.6,308.1 553.3,204.3 			"/>
			<linearGradient id="SVGID_28_" gradientUnits="userSpaceOnUse" x1="373.5307" y1="381.9998" x2="553.2922" y2="381.9998">
				<stop  offset="0" style="stop-color:#5347C2"/>
				<stop  offset="1" style="stop-color:#BAB5E7"/>
			</linearGradient>
			<polygon class="st31" points="373.5,352.2 373.5,308.1 553.3,411.8 553.3,455.9 			"/>
			<linearGradient id="SVGID_29_" gradientUnits="userSpaceOnUse" x1="922.9123" y1="102.26" x2="543.5653" y2="481.607">
				<stop  offset="0" style="stop-color:#5347C2"/>
				<stop  offset="1" style="stop-color:#BAB5E7"/>
			</linearGradient>
			<polygon class="st32" points="553.3,455.9 553.3,411.8 733.1,308.1 733.1,352.2 			"/>
			<polygon class="st11" points="672.7,287.5 531.9,369.5 437.7,315.1 578.5,233.1 			"/>
			<polygon class="st12" points="437.7,324.9 437.7,315.1 531.9,369.5 531.9,379.3 			"/>
			<polygon class="st12" points="531.9,379.3 531.9,369.5 672.7,287.5 672.7,297.3 			"/>
			<g>
				<g>
					<polygon class="st13" points="582.8,404.6 564.3,415.3 564.3,405.2 582.8,394.5 					"/>
					<path class="st13" d="M582.8,394.5l-18.5,10.7l-12.6-7.3c-5.1-2.9-5.1-7.7,0-10.7l0,0c5.1-2.9,13.4-2.9,18.5,0L582.8,394.5z"/>
				</g>
				<g>
					<polygon class="st13" points="611.4,388.2 592.9,398.9 592.9,388.8 611.4,378.1 					"/>
					<path class="st13" d="M611.4,378.1l-18.5,10.7l-12.6-7.3c-5.1-2.9-5.1-7.7,0-10.7l0,0c5.1-2.9,13.4-2.9,18.5,0L611.4,378.1z"/>
				</g>
				<g>
					<polygon class="st13" points="640,371.8 621.5,382.5 621.5,372.4 640,361.7 					"/>
					<path class="st13" d="M640,361.7l-18.5,10.7l-12.6-7.3c-5.1-2.9-5.1-7.7,0-10.7l0,0c5.1-2.9,13.4-2.9,18.5,0L640,361.7z"/>
				</g>
				<g>
					<polygon class="st13" points="668.5,355.4 650,366.1 650,356 668.5,345.3 					"/>
					<path class="st13" d="M668.5,345.3L650,356l-12.6-7.3c-5.1-3-5.1-7.7,0-10.7l0,0c5.1-2.9,13.4-2.9,18.5,0L668.5,345.3z"/>
				</g>
				<g>
					<polygon class="st13" points="697.1,339 678.6,349.6 678.6,339.6 697.1,328.9 					"/>
					<path class="st13" d="M697.1,328.9l-18.5,10.7l-12.6-7.3c-5.1-2.9-5.1-7.7,0-10.7l0,0c5.1-3,13.4-3,18.5,0L697.1,328.9z"/>
				</g>
				<g>
					<polygon class="st13" points="725.6,322.6 707.1,333.2 707.1,323.2 725.6,312.5 					"/>
					<path class="st13" d="M725.6,312.5l-18.5,10.7l-12.6-7.3c-5.1-2.9-5.1-7.7,0-10.7l0,0c5.1-2.9,13.4-2.9,18.5,0L725.6,312.5z"/>
				</g>
			</g>
			<g>
				<g>
					<path class="st13" d="M558.2,226.9c-2.6,1.5-5.9,2.2-9.3,2.2c-3.3,0-6.7-0.7-9.2-2.2l-12.6-7.3l18.5-10.7l12.6,7.3
						C563.3,219.1,563.3,223.9,558.2,226.9z"/>
				</g>
				<g>
					<path class="st13" d="M529.7,243.3c-2.6,1.5-5.9,2.2-9.3,2.2c-3.3,0-6.7-0.7-9.2-2.2l-12.6-7.3l18.5-10.7l12.6,7.3
						C534.8,235.5,534.8,240.3,529.7,243.3z"/>
				</g>
				<g>
					<path class="st13" d="M501.1,259.7c-2.6,1.5-5.9,2.2-9.3,2.2c-3.3,0-6.7-0.7-9.2-2.2l-12.6-7.3l18.5-10.7l12.6,7.3
						C506.2,252,506.2,256.7,501.1,259.7z"/>
				</g>
				<g>
					<path class="st13" d="M472.5,276.1c-2.6,1.5-5.9,2.2-9.3,2.2c-3.3,0-6.7-0.7-9.2-2.2l-12.6-7.3l18.5-10.7l12.6,7.3
						C477.6,268.4,477.6,273.1,472.5,276.1z"/>
				</g>
				<g>
					<path class="st13" d="M444,292.5c-2.6,1.5-5.9,2.2-9.2,2.2c-3.4,0-6.7-0.7-9.3-2.2l-12.6-7.3l18.5-10.7h0l12.6,7.3
						C449.1,284.8,449.1,289.6,444,292.5z"/>
				</g>
				<g>
					<path class="st13" d="M415.4,308.9c-2.6,1.5-5.9,2.2-9.3,2.2c-3.3,0-6.7-0.7-9.2-2.2l-12.6-7.3l18.5-10.7l12.6,7.3
						C420.5,301.2,420.5,306,415.4,308.9z"/>
				</g>
			</g>
		</g>
	</g>
</g>
</svg>
