<?xml version="1.0" encoding="utf-8"?>
<!-- Generator: Adobe Illustrator 23.0.6, SVG Export Plug-In . SVG Version: 6.00 Build 0)  -->
<svg version="1.1" id="Laag_1" xmlns="http://www.w3.org/2000/svg" xmlns:xlink="http://www.w3.org/1999/xlink" x="0px" y="0px"
	 viewBox="150 150 700 700" style="enable-background:new 150 150 700 700;" xml:space="preserve">
<style type="text/css">
	.st0{fill:url(#SVGID_1_);}
	.st1{fill:url(#SVGID_2_);}
	.st2{fill:url(#SVGID_3_);}
	.st3{fill:#34317C;}
	.st4{fill:#666666;}
	.st5{fill:url(#path5106_2_);}
	.st6{fill:url(#path5064_2_);}
	.st7{fill:url(#path5052_2_);}
	.st8{opacity:0.5;fill:url(#SVGID_4_);}
	.st9{opacity:0.5;fill:url(#SVGID_5_);}
	.st10{opacity:0.5;fill:url(#SVGID_6_);}
	.st11{fill:url(#SVGID_7_);}
	.st12{fill:url(#SVGID_8_);}
	.st13{fill:url(#SVGID_9_);}
	.st14{fill:none;stroke:url(#SVGID_10_);stroke-width:2;stroke-miterlimit:10;}
	.st15{fill:url(#SVGID_11_);}
	.st16{fill:url(#SVGID_12_);}
	.st17{fill:url(#SVGID_13_);}
	.st18{fill:#AEC3FF;}
	.st19{fill:url(#SVGID_14_);}
	.st20{fill:url(#SVGID_15_);}
	.st21{fill:url(#SVGID_16_);}
	.st22{fill:url(#SVGID_17_);}
	.st23{fill:url(#SVGID_18_);}
	.st24{fill:url(#SVGID_19_);}
	.st25{fill:#CDD6FF;}
	.st26{fill:#E1EAFF;}
	.st27{fill:#F8F9FC;}
	.st28{fill:#D7E7F7;}
	.st29{fill:#B9D7EF;}
	.st30{fill:url(#path5056_2_);}
	.st31{fill:url(#SVGID_20_);}
	.st32{fill:url(#path5108_1_);}
	.st33{fill:url(#path5110_2_);}
	.st34{fill:url(#path5112_2_);}
	.st35{fill:url(#SVGID_21_);}
	.st36{fill:url(#SVGID_22_);}
	.st37{fill:url(#SVGID_23_);}
</style>
<g>
	<g>
		<g>
			
				<linearGradient id="SVGID_1_" gradientUnits="userSpaceOnUse" x1="1403.678" y1="-178.3876" x2="1566.4862" y2="-178.3876" gradientTransform="matrix(0.866 0.5 -1 0.5774 -925.6691 -136.3844)">
				<stop  offset="0" style="stop-color:#5347C2"/>
				<stop  offset="1" style="stop-color:#BAB5E7"/>
			</linearGradient>
			<polygon class="st0" points="539.2,585.3 397.4,503.4 539.2,421.5 681,503.4 			"/>
			
				<linearGradient id="SVGID_2_" gradientUnits="userSpaceOnUse" x1="2859.2595" y1="1453.3019" x2="3022.0623" y2="1453.3019" gradientTransform="matrix(0.866 -0.5 0 1.1547 -1936.9126 434.5197)">
				<stop  offset="0" style="stop-color:#5347C2"/>
				<stop  offset="1" style="stop-color:#BAB5E7"/>
			</linearGradient>
			<polygon class="st1" points="681,698.9 539.2,780.8 539.2,585.3 681,503.4 			"/>
			
				<linearGradient id="SVGID_3_" gradientUnits="userSpaceOnUse" x1="2580.3936" y1="27.484" x2="2824.9634" y2="27.484" gradientTransform="matrix(0.866 0.5 0 1.1547 -1930.2139 -774.4803)">
				<stop  offset="0" style="stop-color:#5347C2"/>
				<stop  offset="1" style="stop-color:#BAB5E7"/>
			</linearGradient>
			<polygon class="st2" points="539.2,780.8 397.4,698.9 397.4,503.4 539.2,585.3 			"/>
		</g>
	</g>
	<path id="path5108_3_" class="st3" d="M539.4,615.5l-140.7-81.2v92.8l140.7,81.2V615.5z"/>
	<path id="path5042_1_" class="st4" d="M400.4,673.2l81.4-47l58.1,33.6v94L400.4,673.2z"/>
	
		<linearGradient id="path5106_2_" gradientUnits="userSpaceOnUse" x1="469.4671" y1="653.069" x2="586.0046" y2="653.069" gradientTransform="matrix(-1 0 0 1 998.0006 0)">
		<stop  offset="0" style="stop-color:#5347C2"/>
		<stop  offset="1" style="stop-color:#BAB5E7"/>
	</linearGradient>
	<path id="path5106_1_" class="st5" d="M470.3,619.5l58.3,33.6l-58.3,33.6L412,653.1L470.3,619.5z"/>
	<linearGradient id="path5064_2_" gradientUnits="userSpaceOnUse" x1="353.8717" y1="619.511" x2="470.1201" y2="619.511">
		<stop  offset="0" style="stop-color:#5347C2"/>
		<stop  offset="1" style="stop-color:#BAB5E7"/>
	</linearGradient>
	<path id="path5064_1_" class="st6" d="M412,586l58.1,33.6L412,653.1l-58.1-33.6L412,586z"/>
	
		<linearGradient id="path5052_2_" gradientUnits="userSpaceOnUse" x1="586.0046" y1="602.7319" x2="667.3786" y2="602.7319" gradientTransform="matrix(-1 0 0 1 998.0006 0)">
		<stop  offset="0" style="stop-color:#5347C2"/>
		<stop  offset="1" style="stop-color:#BAB5E7"/>
	</linearGradient>
	<path id="path5052_1_" class="st7" d="M400.4,579.2l-69.7,40.3l11.6,6.7L412,586L400.4,579.2z"/>
	<g>
		<linearGradient id="SVGID_4_" gradientUnits="userSpaceOnUse" x1="476.2419" y1="481.6518" x2="476.2419" y2="419.5219">
			<stop  offset="0" style="stop-color:#5347C2"/>
			<stop  offset="1" style="stop-color:#BAB5E7"/>
		</linearGradient>
		<polygon class="st8" points="413.5,471.5 413.5,500.5 539,428.1 539,399 		"/>
		<linearGradient id="SVGID_5_" gradientUnits="userSpaceOnUse" x1="601.7694" y1="554.0477" x2="601.7694" y2="491.9177">
			<stop  offset="0" style="stop-color:#5347C2"/>
			<stop  offset="1" style="stop-color:#BAB5E7"/>
		</linearGradient>
		<polygon class="st9" points="539.1,543.8 539.1,572.9 664.5,500.5 664.5,471.4 		"/>
		
			<linearGradient id="SVGID_6_" gradientUnits="userSpaceOnUse" x1="2739.3469" y1="554.0477" x2="2739.3469" y2="491.9177" gradientTransform="matrix(-1 0 0 1 3215.5886 0)">
			<stop  offset="0" style="stop-color:#5347C2"/>
			<stop  offset="1" style="stop-color:#BAB5E7"/>
		</linearGradient>
		<polygon class="st10" points="539,543.8 539,572.9 413.5,500.5 413.5,471.4 		"/>
	</g>
	<g>
		<g>
			<g>
				
					<linearGradient id="SVGID_7_" gradientUnits="userSpaceOnUse" x1="1181.436" y1="-370.8492" x2="1344.2443" y2="-370.8492" gradientTransform="matrix(0.866 0.5 -1 0.5774 -925.6691 -136.3844)">
					<stop  offset="0" style="stop-color:#5347C2"/>
					<stop  offset="1" style="stop-color:#BAB5E7"/>
				</linearGradient>
				<polygon class="st11" points="539.2,363 397.4,281.1 539.2,199.3 681,281.1 				"/>
				
					<linearGradient id="SVGID_8_" gradientUnits="userSpaceOnUse" x1="2859.2595" y1="1260.8291" x2="3022.0623" y2="1260.8291" gradientTransform="matrix(0.866 -0.5 0 1.1547 -1936.9126 434.5197)">
					<stop  offset="0" style="stop-color:#5347C2"/>
					<stop  offset="1" style="stop-color:#BAB5E7"/>
				</linearGradient>
				<polygon class="st12" points="681,476.7 539.2,558.5 539.2,363 681,281.1 				"/>
				
					<linearGradient id="SVGID_9_" gradientUnits="userSpaceOnUse" x1="2580.3936" y1="-164.9887" x2="2824.9634" y2="-164.9887" gradientTransform="matrix(0.866 0.5 0 1.1547 -1930.2139 -774.4803)">
					<stop  offset="0" style="stop-color:#5347C2"/>
					<stop  offset="1" style="stop-color:#BAB5E7"/>
				</linearGradient>
				<polygon class="st13" points="539.2,558.5 397.4,476.7 397.4,281.1 539.2,363 				"/>
				<linearGradient id="SVGID_10_" gradientUnits="userSpaceOnUse" x1="418.7169" y1="278.816" x2="658.5938" y2="278.816">
					<stop  offset="0" style="stop-color:#5347C2"/>
					<stop  offset="1" style="stop-color:#BAB5E7"/>
				</linearGradient>
				<polygon class="st14" points="538.7,346.9 420.7,278.8 538.7,210.7 656.6,278.8 				"/>
			</g>
		</g>
		<g>
			<g>
				<g>
					
						<linearGradient id="SVGID_11_" gradientUnits="userSpaceOnUse" x1="383.0687" y1="395.843" x2="389.8459" y2="395.843" gradientTransform="matrix(-1 0 0 1 810.3626 0)">
						<stop  offset="0" style="stop-color:#C4E8FA"/>
						<stop  offset="1" style="stop-color:#E3F4FC"/>
					</linearGradient>
					<path class="st15" d="M423.9,392c1.9,1.1,3.4,3.7,3.4,5.9c0,2.2-1.5,3-3.4,1.9c-1.9-1.1-3.4-3.7-3.4-5.8
						C420.5,391.7,422,390.8,423.9,392z"/>
				</g>
				<g>
					
						<linearGradient id="SVGID_12_" gradientUnits="userSpaceOnUse" x1="351.3579" y1="414.1424" x2="358.135" y2="414.1424" gradientTransform="matrix(-1 0 0 1 810.3626 0)">
						<stop  offset="0" style="stop-color:#C4E8FA"/>
						<stop  offset="1" style="stop-color:#E3F4FC"/>
					</linearGradient>
					<path class="st16" d="M455.6,410.2c1.9,1.1,3.4,3.7,3.4,5.9c0,2.2-1.5,3-3.4,1.9c-1.9-1.1-3.4-3.7-3.4-5.8
						C452.2,410.1,453.7,409.2,455.6,410.2z"/>
				</g>
				<g>
					
						<linearGradient id="SVGID_13_" gradientUnits="userSpaceOnUse" x1="335.5029" y1="423.2966" x2="342.2796" y2="423.2966" gradientTransform="matrix(-1 0 0 1 810.3626 0)">
						<stop  offset="0" style="stop-color:#C4E8FA"/>
						<stop  offset="1" style="stop-color:#E3F4FC"/>
					</linearGradient>
					<path class="st17" d="M471.5,419.4c1.9,1.1,3.4,3.7,3.4,5.9c0,2.2-1.5,3-3.4,1.9c-1.9-1.1-3.4-3.7-3.4-5.8
						C468.1,419.2,469.6,418.3,471.5,419.4z"/>
				</g>
			</g>
			<path class="st18" d="M517.3,468.1c-0.6,0-1.2-0.2-1.8-0.5l-100.9-58.2c-2.2-1.3-3.9-4.5-3.9-7.5v-27.6c0-1.7,0.6-3,1.6-3.6
				c0.9-0.5,2-0.5,3.2,0.2l100.9,58.2c2.2,1.3,3.9,4.6,3.9,7.5v27.6c0,1.7-0.6,3-1.6,3.6C518.3,467.9,517.8,468.1,517.3,468.1z
				 M516.4,466c0.4,0.2,1,0.4,1.4,0.2c0.5-0.3,0.8-1.1,0.8-2.1v-27.6c0-2.3-1.4-5-3.1-5.9l-100.9-58.2c-0.4-0.2-1-0.4-1.4-0.2
				c-0.5,0.3-0.8,1.1-0.8,2.1v27.6c0,2.3,1.4,5,3.1,5.9L516.4,466z"/>
		</g>
		<g>
			<g>
				<g>
					
						<linearGradient id="SVGID_14_" gradientUnits="userSpaceOnUse" x1="383.0687" y1="342.7099" x2="389.8459" y2="342.7099" gradientTransform="matrix(-1 0 0 1 810.3626 0)">
						<stop  offset="0" style="stop-color:#C4E8FA"/>
						<stop  offset="1" style="stop-color:#E3F4FC"/>
					</linearGradient>
					<path class="st19" d="M423.9,338.8c1.9,1.1,3.4,3.7,3.4,5.9c0,2.2-1.5,3-3.4,1.9c-1.9-1.1-3.4-3.7-3.4-5.8
						C420.5,338.6,422,337.7,423.9,338.8z"/>
				</g>
				<g>
					
						<linearGradient id="SVGID_15_" gradientUnits="userSpaceOnUse" x1="351.3579" y1="361.0093" x2="358.135" y2="361.0093" gradientTransform="matrix(-1 0 0 1 810.3626 0)">
						<stop  offset="0" style="stop-color:#C4E8FA"/>
						<stop  offset="1" style="stop-color:#E3F4FC"/>
					</linearGradient>
					<path class="st20" d="M455.6,357.1c1.9,1.1,3.4,3.7,3.4,5.9c0,2.2-1.5,3-3.4,1.9c-1.9-1.1-3.4-3.7-3.4-5.8
						C452.2,356.9,453.7,356,455.6,357.1z"/>
				</g>
				<g>
					
						<linearGradient id="SVGID_16_" gradientUnits="userSpaceOnUse" x1="335.5029" y1="370.1635" x2="342.2796" y2="370.1635" gradientTransform="matrix(-1 0 0 1 810.3626 0)">
						<stop  offset="0" style="stop-color:#C4E8FA"/>
						<stop  offset="1" style="stop-color:#E3F4FC"/>
					</linearGradient>
					<path class="st21" d="M471.5,366.3c1.9,1.1,3.4,3.7,3.4,5.9c0,2.2-1.5,3-3.4,1.9c-1.9-1.1-3.4-3.7-3.4-5.8
						C468.1,366.1,469.6,365.2,471.5,366.3z"/>
				</g>
			</g>
			<path class="st18" d="M517.3,414.9c-0.6,0-1.2-0.2-1.8-0.5l-100.9-58.2c-2.2-1.3-3.9-4.5-3.9-7.5v-27.6c0-1.7,0.6-3,1.6-3.6
				c0.9-0.5,2-0.5,3.2,0.2l100.9,58.2c2.2,1.3,3.9,4.6,3.9,7.5V411c0,1.7-0.6,3-1.6,3.6C518.3,414.8,517.8,414.9,517.3,414.9z
				 M516.4,412.9c0.4,0.2,1,0.4,1.4,0.2c0.5-0.3,0.8-1.1,0.8-2.1v-27.6c0-2.3-1.4-5-3.1-5.9l-100.9-58.2c-0.4-0.2-1-0.4-1.4-0.2
				c-0.5,0.3-0.8,1.1-0.8,2.1v27.6c0,2.3,1.4,5,3.1,5.9L516.4,412.9z"/>
		</g>
		<g>
			<g>
				<g>
					
						<linearGradient id="SVGID_17_" gradientUnits="userSpaceOnUse" x1="383.0687" y1="452.1266" x2="389.8459" y2="452.1266" gradientTransform="matrix(-1 0 0 1 810.3626 0)">
						<stop  offset="0" style="stop-color:#C4E8FA"/>
						<stop  offset="1" style="stop-color:#E3F4FC"/>
					</linearGradient>
					<path class="st22" d="M423.9,448.2c1.9,1.1,3.4,3.7,3.4,5.9c0,2.2-1.5,3-3.4,1.9c-1.9-1.1-3.4-3.7-3.4-5.8
						C420.5,448,422,447.1,423.9,448.2z"/>
				</g>
				<g>
					
						<linearGradient id="SVGID_18_" gradientUnits="userSpaceOnUse" x1="351.3579" y1="470.4261" x2="358.135" y2="470.4261" gradientTransform="matrix(-1 0 0 1 810.3626 0)">
						<stop  offset="0" style="stop-color:#C4E8FA"/>
						<stop  offset="1" style="stop-color:#E3F4FC"/>
					</linearGradient>
					<path class="st23" d="M455.6,466.5c1.9,1.1,3.4,3.7,3.4,5.9c0,2.2-1.5,3-3.4,1.9c-1.9-1.1-3.4-3.7-3.4-5.8
						C452.2,466.3,453.7,465.4,455.6,466.5z"/>
				</g>
				<g>
					
						<linearGradient id="SVGID_19_" gradientUnits="userSpaceOnUse" x1="335.5029" y1="479.5803" x2="342.2796" y2="479.5803" gradientTransform="matrix(-1 0 0 1 810.3626 0)">
						<stop  offset="0" style="stop-color:#C4E8FA"/>
						<stop  offset="1" style="stop-color:#E3F4FC"/>
					</linearGradient>
					<path class="st24" d="M471.5,475.7c1.9,1.1,3.4,3.7,3.4,5.9c0,2.2-1.5,3-3.4,1.9c-1.9-1.1-3.4-3.7-3.4-5.8
						C468.1,475.5,469.6,474.6,471.5,475.7z"/>
				</g>
			</g>
			<path class="st18" d="M517.3,524.3c-0.6,0-1.2-0.2-1.8-0.5l-100.9-58.2c-2.2-1.3-3.9-4.5-3.9-7.5v-27.6c0-1.7,0.6-3,1.6-3.6
				c0.9-0.5,2-0.5,3.2,0.2l100.9,58.2c2.2,1.3,3.9,4.6,3.9,7.5v27.6c0,1.7-0.6,3-1.6,3.6C518.3,524.2,517.8,524.3,517.3,524.3z
				 M516.4,522.3c0.4,0.2,1,0.4,1.4,0.2c0.5-0.3,0.8-1.1,0.8-2.1v-27.6c0-2.3-1.4-5-3.1-5.9l-100.9-58.2c-0.4-0.2-1-0.4-1.4-0.2
				c-0.5,0.3-0.8,1.1-0.8,2.1v27.6c0,2.3,1.4,5,3.1,5.9L516.4,522.3z"/>
		</g>
	</g>
	<g>
		<polygon class="st25" points="384.3,585.5 440.2,617.6 440.2,551.5 421.7,512.4 384.3,490.8 		"/>
		<polygon class="st26" points="440.2,551.5 440.2,551.5 421.7,512.4 421.7,540.8 		"/>
		<g>
			<g>
				<polygon class="st18" points="395.9,562.1 395.8,565.9 431.8,586.7 431.8,582.9 				"/>
			</g>
			<g>
				<polygon class="st18" points="395.9,546 395.9,549.8 431.9,570.6 431.9,566.8 				"/>
			</g>
			<g>
				<polygon class="st18" points="407.6,544.7 407.6,548.5 431.9,562.5 431.9,558.8 				"/>
			</g>
			<g>
				<polygon class="st18" points="395.9,554.1 395.9,557.9 431.8,578.6 431.9,574.9 				"/>
			</g>
			<g>
				<polygon class="st18" points="395.8,578.2 395.8,582 431.8,602.8 431.8,599 				"/>
			</g>
			<g>
				<polygon class="st18" points="395.8,570.2 395.8,574 431.8,594.7 431.8,591 				"/>
			</g>
		</g>
	</g>
	<g>
		<g>
			<polygon class="st27" points="454.8,688.2 510.7,720.4 510.7,654.2 492.1,615.2 454.8,593.6 			"/>
			<polygon class="st26" points="510.7,654.2 510.7,654.2 492.1,615.2 492.1,643.5 			"/>
		</g>
		<g>
			<polygon class="st28" points="449.8,691.9 505.7,724 505.7,657.9 487.1,618.8 449.8,597.2 			"/>
			<polygon class="st29" points="505.7,657.9 505.7,657.9 487.1,618.8 487.1,647.2 			"/>
		</g>
		<g>
			<polygon class="st27" points="444.4,695.2 500.3,727.3 500.3,661.1 481.7,622.1 444.4,600.5 			"/>
			<polygon class="st26" points="500.3,661.1 500.3,661.1 481.7,622.1 481.7,650.4 			"/>
		</g>
		<g>
			<polygon class="st28" points="439.4,698.8 495.3,730.9 495.3,664.8 476.7,625.8 439.4,604.1 			"/>
			<polygon class="st29" points="495.3,664.8 495.3,664.8 476.7,625.8 476.7,654.1 			"/>
		</g>
		<g>
			<polygon class="st27" points="434,702.1 489.9,734.2 489.9,668 471.3,629 434,607.4 			"/>
			<polygon class="st26" points="489.9,668 489.9,668 471.3,629 471.3,657.4 			"/>
		</g>
	</g>
	
		<linearGradient id="path5056_2_" gradientUnits="userSpaceOnUse" x1="458.1313" y1="726.8967" x2="527.8805" y2="726.8967" gradientTransform="matrix(-1 0 0 1 998.0006 0)">
		<stop  offset="0" style="stop-color:#5347C2"/>
		<stop  offset="1" style="stop-color:#BAB5E7"/>
	</linearGradient>
	<path id="path5056_1_" class="st30" d="M539.9,659.8v94L470.1,794v-94L539.9,659.8z"/>
	<g>
		<g>
			<polygon class="st27" points="374.6,646.7 430.5,678.9 430.5,612.7 411.9,573.7 374.6,552.1 			"/>
			<polygon class="st26" points="430.5,612.7 430.5,612.7 411.9,573.7 411.9,602 			"/>
		</g>
		<g>
			<polygon class="st28" points="369.6,650.4 425.5,682.5 425.5,616.4 407,577.3 369.6,555.7 			"/>
			<polygon class="st29" points="425.5,616.4 425.5,616.4 407,577.3 407,605.7 			"/>
		</g>
		<g>
			<polygon class="st27" points="364.3,653.7 420.2,685.8 420.2,619.6 401.6,580.6 364.3,559 			"/>
			<polygon class="st26" points="420.2,619.6 420.2,619.6 401.6,580.6 401.6,608.9 			"/>
		</g>
		<g>
			<polygon class="st28" points="359.3,657.3 415.2,689.4 415.2,623.3 396.6,584.3 359.3,562.6 			"/>
			<polygon class="st29" points="415.2,623.3 415.2,623.3 396.6,584.3 396.6,612.6 			"/>
		</g>
		<g>
			<polygon class="st27" points="353.9,660.6 409.8,692.7 409.8,626.5 391.2,587.5 353.9,565.9 			"/>
			<polygon class="st26" points="409.8,626.5 409.8,626.5 391.2,587.5 391.2,615.9 			"/>
		</g>
	</g>
	<linearGradient id="SVGID_20_" gradientUnits="userSpaceOnUse" x1="481.7696" y1="666.7549" x2="539.3899" y2="666.7549">
		<stop  offset="0" style="stop-color:#5347C2"/>
		<stop  offset="1" style="stop-color:#BAB5E7"/>
	</linearGradient>
	<polygon class="st31" points="481.8,680 539.4,646.9 539.4,660.1 493.4,686.6 	"/>
	<g id="g5114_1_" transform="translate(-207.8461,40)">
		
			<linearGradient id="path5108_1_" gradientUnits="userSpaceOnUse" x1="724.1017" y1="660.0503" x2="886.8495" y2="660.0503" gradientTransform="matrix(-1 0 0 1 1413.6929 0)">
			<stop  offset="0" style="stop-color:#5347C2"/>
			<stop  offset="1" style="stop-color:#BAB5E7"/>
		</linearGradient>
		<path id="path5108_2_" class="st32" d="M689.6,653.3l-162.7-94v107.4l162.7,94V653.3z"/>
		
			<linearGradient id="path5110_2_" gradientUnits="userSpaceOnUse" x1="712.4769" y1="603.0016" x2="886.8495" y2="603.0016" gradientTransform="matrix(-1 0 0 1 1413.6929 0)">
			<stop  offset="0" style="stop-color:#5347C2"/>
			<stop  offset="1" style="stop-color:#BAB5E7"/>
		</linearGradient>
		<path id="path5110_1_" class="st33" d="M701.2,646.6l-162.7-94l-11.6,6.7l162.7,94L701.2,646.6z"/>
		
			<linearGradient id="path5112_2_" gradientUnits="userSpaceOnUse" x1="740.9835" y1="663.6771" x2="680.0355" y2="771.0981" gradientTransform="matrix(-1 0 0 1 1413.6929 0)">
			<stop  offset="0" style="stop-color:#5347C2"/>
			<stop  offset="1" style="stop-color:#BAB5E7"/>
		</linearGradient>
		<path id="path5112_1_" class="st34" d="M701.2,646.6V754l-11.6,6.7V653.3L701.2,646.6z"/>
	</g>
	<g>
		<g>
			<g>
				
					<linearGradient id="SVGID_21_" gradientUnits="userSpaceOnUse" x1="455.1409" y1="672.0848" x2="462.873" y2="672.0848" gradientTransform="matrix(-1 0 0 1 810.3626 0)">
					<stop  offset="0" style="stop-color:#C4E8FA"/>
					<stop  offset="1" style="stop-color:#E3F4FC"/>
				</linearGradient>
				<path class="st35" d="M351.4,667.6c2.1,1.2,3.8,4.2,3.8,6.7c0,2.5-1.7,3.4-3.9,2.2c-2.2-1.3-3.9-4.2-3.9-6.7
					C347.5,667.4,349.2,666.4,351.4,667.6z"/>
			</g>
			<g>
				
					<linearGradient id="SVGID_22_" gradientUnits="userSpaceOnUse" x1="418.9619" y1="692.9627" x2="426.6939" y2="692.9627" gradientTransform="matrix(-1 0 0 1 810.3626 0)">
					<stop  offset="0" style="stop-color:#C4E8FA"/>
					<stop  offset="1" style="stop-color:#E3F4FC"/>
				</linearGradient>
				<path class="st36" d="M387.5,688.5c2.2,1.3,3.9,4.3,3.9,6.7c0,2.5-1.7,3.4-3.9,2.2c-2.1-1.2-3.8-4.2-3.8-6.6
					C383.7,688.3,385.4,687.3,387.5,688.5z"/>
			</g>
			<g>
				
					<linearGradient id="SVGID_23_" gradientUnits="userSpaceOnUse" x1="400.8728" y1="703.4067" x2="408.6044" y2="703.4067" gradientTransform="matrix(-1 0 0 1 810.3626 0)">
					<stop  offset="0" style="stop-color:#C4E8FA"/>
					<stop  offset="1" style="stop-color:#E3F4FC"/>
				</linearGradient>
				<path class="st37" d="M405.6,698.9c2.2,1.3,3.9,4.3,3.9,6.7c0,2.5-1.7,3.4-3.9,2.2c-2.1-1.2-3.8-4.2-3.8-6.6
					C401.8,698.7,403.5,697.7,405.6,698.9z"/>
			</g>
		</g>
		<path class="st18" d="M458,754.5c-0.7,0-1.4-0.2-2.1-0.6l-115.1-66.4c-2.5-1.5-4.5-5.2-4.5-8.5v-31.5c0-1.9,0.7-3.4,1.9-4.1
			c1-0.6,2.3-0.5,3.6,0.2L456.9,710c2.5,1.5,4.5,5.2,4.5,8.5V750c0,1.9-0.7,3.4-1.9,4.1C459,754.3,458.5,754.5,458,754.5z
			 M456.9,752.1c0.5,0.3,1.1,0.5,1.6,0.2c0.6-0.3,0.9-1.2,0.9-2.4v-31.5c0-2.6-1.6-5.7-3.5-6.8l-115.1-66.4
			c-0.5-0.3-1.1-0.5-1.6-0.2c-0.6,0.3-0.9,1.2-0.9,2.4v31.5c0,2.6,1.6,5.7,3.5,6.8L456.9,752.1z"/>
	</g>
</g>
</svg>
