<?xml version="1.0" encoding="utf-8"?>
<!-- Generator: Adobe Illustrator 23.0.3, SVG Export Plug-In . SVG Version: 6.00 Build 0)  -->
<svg version="1.1" id="Layer_1" xmlns="http://www.w3.org/2000/svg" xmlns:xlink="http://www.w3.org/1999/xlink" x="0px" y="0px"
	 viewBox="0 0 68 68" style="enable-background:new 0 0 68 68;" xml:space="preserve">
<path d="M9.6,58.1c0,1.7-1.4,3.2-3.2,3.2s-3.2-1.4-3.2-3.2c0-1.7,1.4-3.2,3.2-3.2S9.6,56.4,9.6,58.1 M20.3,38.6
	c-1.7,0-3.2-1.4-3.2-3.2s1.4-3.2,3.2-3.2c1.7,0,3.2,1.4,3.2,3.2C23.4,37.1,22,38.6,20.3,38.6 M34,47.3c-1.7,0-3.2-1.4-3.2-3.2
	c0-1.7,1.4-3.2,3.2-3.2c1.7,0,3.2,1.4,3.2,3.2C37.2,45.9,35.7,47.3,34,47.3 M51.2,9.8c0,1.7-1.4,3.2-3.2,3.2s-3.2-1.4-3.2-3.2
	s1.4-3.2,3.2-3.2S51.2,8,51.2,9.8 M61.5,33.4c-1.7,0-3.2-1.4-3.2-3.2c0-1.7,1.4-3.2,3.2-3.2c1.7,0,3.2,1.4,3.2,3.2
	C64.6,31.9,63.2,33.4,61.5,33.4 M61.5,24.7c-0.7,0-1.4,0.1-2.1,0.4L52,13.6c1-1.1,1.5-2.4,1.5-3.8c0-3.1-2.5-5.5-5.5-5.5
	c-3.1,0-5.5,2.5-5.5,5.5c0,1.7,0.7,3.2,1.9,4.2L35,38.7c-0.3-0.1-0.7-0.1-1.1-0.1c-1.6,0-3.1,0.7-4.1,1.9l-4.4-3
	c0.3-0.7,0.4-1.4,0.4-2.1c0-3.1-2.5-5.5-5.5-5.5c-3.1,0-5.5,2.5-5.5,5.5c0,1.6,0.6,3,1.7,4L8.3,53c-0.5-0.2-1.2-0.3-1.8-0.3
	c-3.1,0-5.5,2.5-5.5,5.5s2.5,5.5,5.5,5.5s5.5-2.5,5.5-5.5c0-1.6-0.6-3-1.7-4l8.1-13.6c0.5,0.2,1.2,0.3,1.8,0.3
	c1.5,0,2.8-0.5,3.8-1.5l4.6,3.1c-0.1,0.5-0.2,0.9-0.2,1.6c0,3.1,2.5,5.5,5.5,5.5c3.1,0,5.5-2.5,5.5-5.5c0-1.8-0.9-3.5-2.3-4.5
	l9.4-24.5c1,0.3,2.4,0.3,3.5-0.2l7.4,11.5c-1,1.1-1.5,2.4-1.5,3.8c0,3.1,2.5,5.5,5.5,5.5c3.1,0,5.5-2.5,5.5-5.5
	C67,27.2,64.5,24.7,61.5,24.7"/>
</svg>
