<?xml version="1.0" encoding="utf-8"?>
<!-- Generator: Adobe Illustrator 23.0.3, SVG Export Plug-In . SVG Version: 6.00 Build 0)  -->
<svg version="1.1" id="Layer_1" xmlns="http://www.w3.org/2000/svg" xmlns:xlink="http://www.w3.org/1999/xlink" x="0px" y="0px"
	 viewBox="0 0 65 65" style="enable-background:new 0 0 65 65;" xml:space="preserve">
<path style="fill:#9891DA;" d="M44.7,12.9c-2.2,0-4-1.8-4-4c0-2.2,1.8-4,4-4s4,1.8,4,4C48.8,11.1,47,12.9,44.7,12.9 M20.6,12.9
	c-3.1,0-5.6-2.5-5.6-5.6c0-3.1,2.5-5.6,5.6-5.6c3.1,0,5.6,2.5,5.6,5.6C26.2,10.3,23.7,12.9,20.6,12.9 M44.7,3.2
	c-3.1,0-5.6,2.5-5.6,5.6c0,1.9,0.9,3.5,2.3,4.6l-5.1,6.9c0,0.1-0.1,0.1-0.1,0.2c-1.3-0.8-2.8-1.2-4.4-1.2c-1.2,0-2.4,0.3-3.5,0.7
	l-3.7-6.8c1.9-1.3,3.1-3.5,3.1-5.9c0-4-3.2-7.2-7.2-7.2c-4,0-7.2,3.2-7.2,7.2c0,4,3.2,7.2,7.2,7.2c1,0,1.9-0.2,2.7-0.5l3.7,6.8
	c-2.4,1.6-4,4.3-4,7.4c0,4.3,3.1,7.9,7.2,8.7v-1.6c-3.2-0.8-5.6-3.6-5.6-7c0-4,3.2-7.2,7.2-7.2s7.2,3.2,7.2,7.2c0,3.3-2.2,6.1-5.3,7
	c0,0.5,0,1.1,0,1.7c3.9-0.9,6.9-4.4,6.9-8.6c0-2.7-1.2-5.1-3.2-6.8c0,0,0.1-0.1,0.1-0.1l5.2-7.1c0.6,0.2,1.2,0.3,1.8,0.3
	c3.1,0,5.6-2.5,5.6-5.6S47.8,3.2,44.7,3.2"/>
<path d="M47.3,60.7c-1.6,1.6-3.7,2.5-5.9,2.5l-4.5,0c-2.9,0-5.7-1.3-7.5-3.6L22,50.8c-0.3-0.4-0.5-0.9-0.4-1.4
	c0.1-0.5,0.4-1,0.8-1.3c0.3-0.2,0.7-0.3,1-0.3c0.5,0,0.9,0.2,1.3,0.5l2.9,2.9c0.4,0.4,1.1,0.6,1.6,0.3c0.6-0.2,0.9-0.8,0.9-1.4
	l0-18.9c0-1,0.8-1.8,1.8-1.8c0.5,0,0.9,0.2,1.3,0.5c0.3,0.3,0.5,0.8,0.5,1.3l0,13c0,0.5,0.4,0.9,0.9,0.9c0.5,0,0.9-0.4,0.9-0.9
	l0-1.8c0-1,0.8-1.8,1.8-1.8c1,0,1.8,0.8,1.8,1.8l0,3.4c0,0.5,0.4,0.9,0.9,0.9c0.5,0,0.9-0.4,0.9-0.9l0-1.8c0-1,0.8-1.8,1.8-1.8
	c1,0,1.8,0.8,1.8,1.8l0,3.4c0,0.5,0.4,0.9,0.9,0.9c0.5,0,0.9-0.4,0.9-0.9l0-1.7c0,0,0-0.1,0-0.1c0-1,0.8-1.8,1.8-1.8
	c1,0,1.8,0.8,1.8,1.8l0,9C49.8,57.1,48.9,59.2,47.3,60.7 M51.6,45.8c0-2-1.6-3.6-3.6-3.6c-0.7,0-1.5,0.2-2,0.7
	c-0.5-1.3-1.8-2.2-3.3-2.3c-0.7,0-1.5,0.2-2,0.7C40.2,40,38.9,39,37.4,39c-0.7,0-1.3,0.2-1.8,0.5l0-8.1c0-0.9-0.4-1.8-1-2.5
	c-0.7-0.7-1.6-1-2.5-1c-2,0-3.6,1.6-3.6,3.6l0,18.3L26,47.1c-1.2-1.2-3.1-1.4-4.5-0.4c-0.8,0.6-1.4,1.4-1.5,2.5
	c-0.1,1,0.1,2,0.8,2.8l7.3,8.8c2.2,2.7,5.4,4.2,8.9,4.2l4.5,0c2.7,0,5.3-1.1,7.2-3c1.9-1.9,3-4.5,3-7.2L51.6,45.8z"/>
</svg>
