<?xml version="1.0" encoding="UTF-8" standalone="no"?>
<!-- Generator: Adobe Illustrator 22.0.0, SVG Export Plug-In . SVG Version: 6.00 Build 0)  -->

<svg
   xmlns:dc="http://purl.org/dc/elements/1.1/"
   xmlns:cc="http://creativecommons.org/ns#"
   xmlns:rdf="http://www.w3.org/1999/02/22-rdf-syntax-ns#"
   xmlns:svg="http://www.w3.org/2000/svg"
   xmlns="http://www.w3.org/2000/svg"
   xmlns:sodipodi="http://sodipodi.sourceforge.net/DTD/sodipodi-0.dtd"
   xmlns:inkscape="http://www.inkscape.org/namespaces/inkscape"
   version="1.1"
   id="Laag_1"
   x="0px"
   y="-0px"
   viewBox="200 200 600 600"
   style="enable-background:new 200 200 600 600;"
   xml:space="preserve"
   inkscape:version="0.48.2 r9819"
   width="100%"
   height="100%"
   sodipodi:docname="locknload--load.svg"><metadata
   id="metadata8966"><rdf:RDF><cc:Work
       rdf:about=""><dc:format>image/svg+xml</dc:format><dc:type
         rdf:resource="http://purl.org/dc/dcmitype/StillImage" /></cc:Work></rdf:RDF></metadata><defs
   id="defs8964" /><sodipodi:namedview
   pagecolor="#ffffff"
   bordercolor="#666666"
   borderopacity="1"
   objecttolerance="10"
   gridtolerance="10"
   guidetolerance="10"
   inkscape:pageopacity="0"
   inkscape:pageshadow="2"
   inkscape:window-width="1386"
   inkscape:window-height="804"
   id="namedview8962"
   showgrid="false"
   inkscape:zoom="0.73020209"
   inkscape:cx="430.08475"
   inkscape:cy="243.50092"
   inkscape:window-x="1436"
   inkscape:window-y="85"
   inkscape:window-maximized="0"
   inkscape:current-layer="g8765" />
<style
   type="text/css"
   id="style8761">
	.st0{fill:url(#SVGID_1_);}
	.st1{fill:url(#SVGID_2_);}
	.st2{fill:url(#SVGID_3_);}
	.st3{fill:#CDD6FF;}
	.st4{fill:url(#SVGID_4_);}
	.st5{fill:url(#SVGID_5_);}
	.st6{fill:url(#SVGID_6_);}
	.st7{fill:#D9E1FF;}
	.st8{fill:url(#SVGID_7_);}
	.st9{fill:url(#SVGID_8_);}
	.st10{fill:url(#SVGID_9_);}
	.st11{fill:url(#SVGID_10_);}
	.st12{fill:url(#SVGID_11_);}
	.st13{fill:url(#SVGID_12_);}
	.st14{fill:url(#SVGID_13_);}
	.st15{fill:url(#SVGID_14_);}
	.st16{fill:url(#SVGID_15_);}
	.st17{enable-background:new    ;}
	.st18{fill:url(#SVGID_16_);}
	.st19{fill:#FC597F;}
	.st20{fill:url(#SVGID_17_);}
	.st21{fill:url(#SVGID_18_);}
	.st22{fill:url(#SVGID_19_);}
	.st23{fill:url(#SVGID_20_);}
	.st24{fill:url(#SVGID_21_);}
</style>
<g
   id="g8763">
	<g
   id="g8765">
		<g
   id="g8767">
			<linearGradient
   id="SVGID_1_"
   gradientUnits="userSpaceOnUse"
   x1="144.9999"
   y1="347.3818"
   x2="548.5068"
   y2="627.8065">
				<stop
   offset="0"
   style="stop-color:#5347C2"
   id="stop8770" />
				<stop
   offset="1"
   style="stop-color:#BAB5E7"
   id="stop8772" />
			</linearGradient>
			<path
   class="st0"
   d="M302.3,450.9l-24.1,14c8.1-4.7,19.4-4.1,31.8,3.1c2.3,1.3,4.6,2.9,6.8,4.5l24.1-14c-2.2-1.7-4.5-3.2-6.8-4.5     C321.7,446.9,310.4,446.2,302.3,450.9z"
   id="path8774" />
			<linearGradient
   id="SVGID_2_"
   gradientUnits="userSpaceOnUse"
   x1="197.3325"
   y1="272.0797"
   x2="600.8395"
   y2="552.5043">
				<stop
   offset="0"
   style="stop-color:#5347C2"
   id="stop8777" />
				<stop
   offset="1"
   style="stop-color:#BAB5E7"
   id="stop8779" />
			</linearGradient>
			<path
   class="st1"
   d="M415.1,392c-21.2-12.2-40.4-13.4-54.2-5.3l-24.1,14c13.9-8.1,33-6.9,54.2,5.3c10.6,6.1,20.7,14.4,29.9,24.3     l24.1-14C435.8,406.5,425.7,398.2,415.1,392z"
   id="path8781" />
			<linearGradient
   id="SVGID_3_"
   gradientUnits="userSpaceOnUse"
   x1="317.4555"
   y1="360.9803"
   x2="720.9625"
   y2="641.405">
				<stop
   offset="0"
   style="stop-color:#5347C2"
   id="stop8784" />
				<stop
   offset="1"
   style="stop-color:#BAB5E7"
   id="stop8786" />
			</linearGradient>
			<path
   class="st2"
   d="M657.2,558.8c-2.7-66.9-49.5-145.8-107-179c-29.9-17.2-56.9-18.8-76.4-7.5l-24.1,14     c19.5-11.3,46.6-9.7,76.4,7.5c57.5,33.2,104.3,112.1,107,179c42.6,26.8,76.5,86.8,76.3,136.3c-0.1,25.3-9,43.1-23.4,51.5l24.1-14     c14.4-8.4,23.3-26.2,23.4-51.5C733.6,645.6,699.8,585.6,657.2,558.8z"
   id="path8788" />
		</g>
		<path
   class="st3"
   d="M526.1,393.8c57.5,33.2,104.3,112.1,107,179c42.6,26.8,76.5,86.8,76.3,136.3c-0.1,50.9-36.2,71.5-80.5,45.9    L314.1,573.3c-1.5-1-3-1.7-4.5-2.6c-24.7-14.3-44.6-48.8-44.5-77.1c0.1-28.3,20.1-39.8,44.8-25.5c2.3,1.3,4.6,2.9,6.8,4.5    c-1.5-7.8-2.3-15.5-2.3-23c0.1-48.3,34.4-67.9,76.4-43.6c10.6,6.1,20.7,14.4,29.9,24.3C431.5,380.9,474.6,364.1,526.1,393.8z"
   id="path8790"
   style="opacity:1" />
		<g
   id="g8792">
			<g
   id="g8794">
				<linearGradient
   id="SVGID_4_"
   gradientUnits="userSpaceOnUse"
   x1="374.7844"
   y1="498.9484"
   x2="406.1413"
   y2="498.9484">
					<stop
   offset="0"
   style="stop-color:#5347C2"
   id="stop8797" />
					<stop
   offset="1"
   style="stop-color:#BAB5E7"
   id="stop8799" />
				</linearGradient>
				<path
   class="st4"
   d="M386.8,494.3l-12.1,7c4.1-2.4,9.7-2,15.9,1.6c1.2,0.7,2.3,1.4,3.4,2.3l12.1-7c-1.1-0.8-2.2-1.6-3.4-2.3      C396.5,492.3,390.9,491.9,386.8,494.3z"
   id="path8801" />
				<linearGradient
   id="SVGID_5_"
   gradientUnits="userSpaceOnUse"
   x1="404.0555"
   y1="471.7936"
   x2="458.171"
   y2="471.7936">
					<stop
   offset="0"
   style="stop-color:#5347C2"
   id="stop8804" />
					<stop
   offset="1"
   style="stop-color:#BAB5E7"
   id="stop8806" />
				</linearGradient>
				<path
   class="st5"
   d="M443.2,464.8c-10.6-6.1-20.2-6.7-27.1-2.7l-12.1,7c6.9-4,16.5-3.5,27.1,2.7c5.3,3.1,10.4,7.2,14.9,12.1      l12.1-7C453.6,472.1,448.5,467.9,443.2,464.8z"
   id="path8808" />
				<linearGradient
   id="SVGID_6_"
   gradientUnits="userSpaceOnUse"
   x1="460.5205"
   y1="550.2551"
   x2="602.4754"
   y2="550.2551">
					<stop
   offset="0"
   style="stop-color:#5347C2"
   id="stop8811" />
					<stop
   offset="1"
   style="stop-color:#BAB5E7"
   id="stop8813" />
				</linearGradient>
				<path
   class="st6"
   d="M564.3,548.2c-1.4-33.4-24.8-72.9-53.5-89.5c-14.9-8.6-28.5-9.4-38.2-3.7l-12.1,7      c9.8-5.7,23.3-4.9,38.2,3.7c28.7,16.6,52.1,56.1,53.5,89.5c21.3,13.4,38.2,43.4,38.2,68.2c0,12.7-4.5,21.6-11.7,25.7l12.1-7      c7.2-4.2,11.7-13.1,11.7-25.7C602.5,591.6,585.6,561.6,564.3,548.2z"
   id="path8815" />
			</g>
			<path
   class="st7"
   d="M498.7,465.7c28.7,16.6,52.1,56.1,53.5,89.5c21.3,13.4,38.2,43.4,38.2,68.2c-0.1,25.5-18.1,35.7-40.2,23     l-157.4-90.9c-0.7-0.5-1.5-0.9-2.2-1.3c-12.3-7.1-22.3-24.4-22.3-38.6c0-14.2,10.1-19.9,22.4-12.8c1.2,0.7,2.3,1.4,3.4,2.3     c-0.8-3.9-1.2-7.8-1.1-11.5c0.1-24.2,17.2-33.9,38.2-21.8c5.3,3.1,10.4,7.2,14.9,12.1C451.4,459.2,473,450.9,498.7,465.7z"
   id="path8817"
   style="fill:#ebefff;fill-opacity:1" />
		</g>
	</g>
	<g
   id="g8819">
		<g
   id="g8821">
			<linearGradient
   id="SVGID_7_"
   gradientUnits="userSpaceOnUse"
   x1="210.7162"
   y1="263.1057"
   x2="298.1123"
   y2="323.8432">
				<stop
   offset="0"
   style="stop-color:#5347C2"
   id="stop8824" />
				<stop
   offset="1"
   style="stop-color:#BAB5E7"
   id="stop8826" />
			</linearGradient>
			<path
   class="st8"
   d="M244.8,285.5l-5.2,3c1.8-1,4.2-0.9,6.9,0.7c0.5,0.3,1,0.6,1.5,1l5.2-3c-0.5-0.4-1-0.7-1.5-1     C249,284.7,246.5,284.5,244.8,285.5z"
   id="path8828" />
			<linearGradient
   id="SVGID_8_"
   gradientUnits="userSpaceOnUse"
   x1="222.051"
   y1="246.7959"
   x2="309.4471"
   y2="307.5334">
				<stop
   offset="0"
   style="stop-color:#5347C2"
   id="stop8831" />
				<stop
   offset="1"
   style="stop-color:#BAB5E7"
   id="stop8833" />
			</linearGradient>
			<path
   class="st9"
   d="M269.2,272.8c-4.6-2.6-8.7-2.9-11.7-1.1l-5.2,3c3-1.7,7.2-1.5,11.7,1.1c2.3,1.3,4.5,3.1,6.5,5.3l5.2-3     C273.7,275.9,271.5,274.1,269.2,272.8z"
   id="path8835" />
			<linearGradient
   id="SVGID_9_"
   gradientUnits="userSpaceOnUse"
   x1="248.0686"
   y1="266.051"
   x2="335.4647"
   y2="326.7885">
				<stop
   offset="0"
   style="stop-color:#5347C2"
   id="stop8838" />
				<stop
   offset="1"
   style="stop-color:#BAB5E7"
   id="stop8840" />
			</linearGradient>
			<path
   class="st10"
   d="M321.6,308.9c-0.6-14.5-10.7-31.6-23.2-38.8c-6.5-3.7-12.3-4.1-16.6-1.6l-5.2,3c4.2-2.5,10.1-2.1,16.6,1.6     c12.4,7.2,22.6,24.3,23.2,38.8c9.2,5.8,16.6,18.8,16.5,29.5c0,5.5-2,9.3-5.1,11.2l5.2-3c3.1-1.8,5.1-5.7,5.1-11.2     C338.2,327.7,330.9,314.7,321.6,308.9z"
   id="path8842" />
		</g>
		<path
   class="st3"
   d="M293.3,273.2c12.4,7.2,22.6,24.3,23.2,38.8c9.2,5.8,16.6,18.8,16.5,29.5c0,11-7.8,15.5-17.4,9.9L247.4,312    c-0.3-0.2-0.6-0.4-1-0.6c-5.3-3.1-9.7-10.6-9.6-16.7c0-6.1,4.4-8.6,9.7-5.5c0.5,0.3,1,0.6,1.5,1c-0.3-1.7-0.5-3.4-0.5-5    c0-10.5,7.4-14.7,16.6-9.4c2.3,1.3,4.5,3.1,6.5,5.3C272.8,270.4,282.1,266.7,293.3,273.2z"
   id="path8844"
   style="fill:#ebefff;fill-opacity:1" />
	</g>
	<g
   id="g8846">
		<g
   id="g8848">
			<linearGradient
   id="SVGID_10_"
   gradientUnits="userSpaceOnUse"
   x1="440.6943"
   y1="228.2909"
   x2="569.6633"
   y2="317.9203">
				<stop
   offset="0"
   style="stop-color:#5347C2"
   id="stop8851" />
				<stop
   offset="1"
   style="stop-color:#BAB5E7"
   id="stop8853" />
			</linearGradient>
			<path
   class="st11"
   d="M491,261.4l-7.7,4.5c2.6-1.5,6.2-1.3,10.2,1c0.7,0.4,1.5,0.9,2.2,1.5l7.7-4.5c-0.7-0.5-1.4-1-2.2-1.5     C497.2,260.1,493.6,259.9,491,261.4z"
   id="path8855" />
			<linearGradient
   id="SVGID_11_"
   gradientUnits="userSpaceOnUse"
   x1="457.4209"
   y1="204.2228"
   x2="586.3898"
   y2="293.8522">
				<stop
   offset="0"
   style="stop-color:#5347C2"
   id="stop8858" />
				<stop
   offset="1"
   style="stop-color:#BAB5E7"
   id="stop8860" />
			</linearGradient>
			<path
   class="st12"
   d="M527,242.6c-6.8-3.9-12.9-4.3-17.3-1.7l-7.7,4.5c4.4-2.6,10.6-2.2,17.3,1.7c3.4,2,6.6,4.6,9.6,7.8l7.7-4.5     C533.6,247.2,530.4,244.5,527,242.6z"
   id="path8862" />
			<linearGradient
   id="SVGID_12_"
   gradientUnits="userSpaceOnUse"
   x1="495.8146"
   y1="232.6372"
   x2="624.7836"
   y2="322.2666">
				<stop
   offset="0"
   style="stop-color:#5347C2"
   id="stop8865" />
				<stop
   offset="1"
   style="stop-color:#BAB5E7"
   id="stop8867" />
			</linearGradient>
			<path
   class="st13"
   d="M604.4,295.9c-0.9-21.4-15.8-46.6-34.2-57.2c-9.5-5.5-18.2-6-24.4-2.4l-7.7,4.5c6.2-3.6,14.9-3.1,24.4,2.4     c18.4,10.6,33.3,35.8,34.2,57.2c13.6,8.6,24.4,27.7,24.4,43.6c0,8.1-2.9,13.8-7.5,16.5l7.7-4.5c4.6-2.7,7.5-8.4,7.5-16.5     C628.8,323.6,618,304.4,604.4,295.9z"
   id="path8869" />
		</g>
		<path
   class="st3"
   d="M562.5,243.1c18.4,10.6,33.3,35.8,34.2,57.2c13.6,8.6,24.4,27.7,24.4,43.6c0,16.3-11.6,22.8-25.7,14.7    l-100.6-58.1c-0.5-0.3-0.9-0.5-1.4-0.8c-7.9-4.6-14.3-15.6-14.2-24.7c0-9.1,6.4-12.7,14.3-8.2c0.7,0.4,1.5,0.9,2.2,1.5    c-0.5-2.5-0.7-5-0.7-7.3c0-15.5,11-21.7,24.4-13.9c3.4,2,6.6,4.6,9.6,7.8C532.3,239,546,233.6,562.5,243.1z"
   id="path8871"
   style="fill:#ebefff;fill-opacity:1" />
	</g>
	<g
   id="g8873">
		<g
   id="g8875">
			<linearGradient
   id="SVGID_13_"
   gradientUnits="userSpaceOnUse"
   x1="635.7943"
   y1="434.4058"
   x2="723.1904"
   y2="495.1434">
				<stop
   offset="0"
   style="stop-color:#5347C2"
   id="stop8878" />
				<stop
   offset="1"
   style="stop-color:#BAB5E7"
   id="stop8880" />
			</linearGradient>
			<path
   class="st14"
   d="M669.9,456.8l-5.2,3c1.8-1,4.2-0.9,6.9,0.7c0.5,0.3,1,0.6,1.5,1l5.2-3c-0.5-0.4-1-0.7-1.5-1     C674.1,456,671.6,455.8,669.9,456.8z"
   id="path8882" />
			<linearGradient
   id="SVGID_14_"
   gradientUnits="userSpaceOnUse"
   x1="647.1291"
   y1="418.096"
   x2="734.5252"
   y2="478.8336">
				<stop
   offset="0"
   style="stop-color:#5347C2"
   id="stop8885" />
				<stop
   offset="1"
   style="stop-color:#BAB5E7"
   id="stop8887" />
			</linearGradient>
			<path
   class="st15"
   d="M694.3,444.1c-4.6-2.6-8.7-2.9-11.7-1.1l-5.2,3c3-1.7,7.2-1.5,11.7,1.1c2.3,1.3,4.5,3.1,6.5,5.3l5.2-3     C698.8,447.2,696.6,445.4,694.3,444.1z"
   id="path8889" />
			<linearGradient
   id="SVGID_15_"
   gradientUnits="userSpaceOnUse"
   x1="673.1467"
   y1="437.3511"
   x2="760.5428"
   y2="498.0887">
				<stop
   offset="0"
   style="stop-color:#5347C2"
   id="stop8892" />
				<stop
   offset="1"
   style="stop-color:#BAB5E7"
   id="stop8894" />
			</linearGradient>
			<path
   class="st16"
   d="M746.7,480.2c-0.6-14.5-10.7-31.6-23.2-38.8c-6.5-3.7-12.3-4.1-16.6-1.6l-5.2,3c4.2-2.5,10.1-2.1,16.6,1.6     c12.4,7.2,22.6,24.3,23.2,38.8c9.2,5.8,16.6,18.8,16.5,29.5c0,5.5-2,9.3-5.1,11.2l5.2-3c3.1-1.8,5.1-5.7,5.1-11.2     C763.3,499,756,486,746.7,480.2z"
   id="path8896" />
		</g>
		<path
   class="st3"
   d="M718.3,444.5c12.4,7.2,22.6,24.3,23.2,38.8c9.2,5.8,16.6,18.8,16.5,29.5c0,11-7.8,15.5-17.4,9.9l-68.2-39.4    c-0.3-0.2-0.6-0.4-1-0.6c-5.3-3.1-9.7-10.6-9.6-16.7c0-6.1,4.4-8.6,9.7-5.5c0.5,0.3,1,0.6,1.5,1c-0.3-1.7-0.5-3.4-0.5-5    c0-10.5,7.4-14.7,16.6-9.4c2.3,1.3,4.5,3.1,6.5,5.3C697.8,441.7,707.2,438,718.3,444.5z"
   id="path8898"
   style="fill:#ebefff;fill-opacity:1" />
	</g>
	<g
   id="g8900">
		<g
   class="st17"
   id="g8902">
			<g
   id="g8904">
				<linearGradient
   id="SVGID_16_"
   gradientUnits="userSpaceOnUse"
   x1="495.1094"
   y1="641.1324"
   x2="371.6041"
   y2="641.5554">
					<stop
   offset="4.438645e-02"
   style="stop-color:#5347C2"
   id="stop8907" />
					<stop
   offset="1"
   style="stop-color:#BAB5E7"
   id="stop8909" />
				</linearGradient>
				<polygon
   class="st18"
   points="411,640.5 435.3,626.4 462.5,642.1 438.2,656.3     "
   id="polygon8911" />
			</g>
			<g
   id="g8913">
				<polygon
   class="st19"
   points="438.2,656.3 462.5,642.1 502.5,665.2 478.2,679.4     "
   id="polygon8915" />
			</g>
			<g
   id="g8917">
				<linearGradient
   id="SVGID_17_"
   gradientUnits="userSpaceOnUse"
   x1="458.0008"
   y1="711.7628"
   x2="529.7827"
   y2="711.7628">
					<stop
   offset="4.438645e-02"
   style="stop-color:#5347C2"
   id="stop8920" />
					<stop
   offset="1"
   style="stop-color:#BAB5E7"
   id="stop8922" />
				</linearGradient>
				<polygon
   class="st20"
   points="505.5,695.1 529.8,681 482.3,728.4 458,742.5     "
   id="polygon8924" />
			</g>
			<g
   id="g8926">
				<linearGradient
   id="SVGID_18_"
   gradientUnits="userSpaceOnUse"
   x1="478.2253"
   y1="680.1719"
   x2="529.7827"
   y2="680.1719">
					<stop
   offset="4.438645e-02"
   style="stop-color:#5347C2"
   id="stop8929" />
					<stop
   offset="1"
   style="stop-color:#BAB5E7"
   id="stop8931" />
				</linearGradient>
				<polygon
   class="st21"
   points="478.2,679.4 502.5,665.2 529.8,681 505.5,695.1     "
   id="polygon8933" />
			</g>
			<g
   id="g8935">
				<linearGradient
   id="SVGID_19_"
   gradientUnits="userSpaceOnUse"
   x1="438.5223"
   y1="547.1271"
   x2="502.848"
   y2="547.1271">
					<stop
   offset="4.438645e-02"
   style="stop-color:#5347C2"
   id="stop8938" />
					<stop
   offset="1"
   style="stop-color:#BAB5E7"
   id="stop8940" />
				</linearGradient>
				<polygon
   class="st22"
   points="438.5,542.6 462.8,528.5 502.8,551.6 478.5,565.7     "
   id="polygon8942" />
			</g>
			<g
   id="g8944">
				<linearGradient
   id="SVGID_20_"
   gradientUnits="userSpaceOnUse"
   x1="492.1067"
   y1="642.9681"
   x2="487.6655"
   y2="565.2487">
					<stop
   offset="4.438645e-02"
   style="stop-color:#5347C2"
   id="stop8947" />
					<stop
   offset="1"
   style="stop-color:#BAB5E7"
   id="stop8949" />
				</linearGradient>
				<polygon
   class="st23"
   points="478.5,565.7 502.8,551.6 502.5,665.2 478.2,679.4     "
   id="polygon8951" />
			</g>
			<g
   id="g8953">
				<linearGradient
   id="SVGID_21_"
   gradientUnits="userSpaceOnUse"
   x1="410.9692"
   y1="642.5931"
   x2="505.4727"
   y2="642.5931">
					<stop
   offset="0"
   style="stop-color:#5347C2"
   id="stop8956" />
					<stop
   offset="1"
   style="stop-color:#BAB5E7"
   id="stop8958" />
				</linearGradient>
				<polygon
   class="st24"
   points="505.5,695.1 458,742.6 411,640.5 438.2,656.3 438.5,542.6 478.5,565.7 478.2,679.4     "
   id="polygon8960" />
			</g>
		</g>
	</g>
</g>
</svg>