<?xml version="1.0" encoding="utf-8"?>
<!-- Generator: Adobe Illustrator 23.0.3, SVG Export Plug-In . SVG Version: 6.00 Build 0)  -->
<svg version="1.1" id="Layer_1" xmlns="http://www.w3.org/2000/svg" xmlns:xlink="http://www.w3.org/1999/xlink" x="0px" y="0px"
	 viewBox="0 0 65 65" style="enable-background:new 0 0 65 65;" xml:space="preserve">
<path style="fill:#9891DA;" d="M14.7,29.9L4.2,24.1V11.6l10.6,5.8L14.7,29.9L14.7,29.9z M15.6,4.3l10.5,5.7l-10.5,5.7L5.2,10.1
	L15.6,4.3z M27.1,24.1l-10.6,5.8V17.4l10.6-5.8V24.1z M15.3,32.3C15.4,32.3,15.4,32.3,15.3,32.3c0.1,0,0.2,0.1,0.3,0.1
	c0.1,0,0.2,0,0.2,0c0,0,0,0,0.1,0c0,0,0.1,0,0.1-0.1l12.4-6.8c0.3-0.2,0.5-0.5,0.5-0.8V10.1c0-0.3-0.2-0.6-0.4-0.8c0,0,0,0,0,0
	c0,0,0,0,0,0L16.1,2.5c-0.3-0.1-0.6-0.1-0.9,0L2.9,9.3c0,0,0,0,0,0c0,0,0,0,0,0c-0.3,0.2-0.4,0.5-0.4,0.8v14.6
	c0,0.3,0.2,0.6,0.5,0.8l12.4,6.8C15.3,32.3,15.3,32.3,15.3,32.3"/>
<path d="M60.8,54.4l-10.6,5.8V47.6l10.6-5.8V54.4z M49.4,46.1l-10.5-5.7l10.5-5.7l10.5,5.7L49.4,46.1z M48.4,60.2l-10.6-5.8V41.8
	l10.6,5.8V60.2z M62.2,39.5C62.2,39.5,62.2,39.5,62.2,39.5C62.2,39.5,62.2,39.5,62.2,39.5l-12.4-6.8c-0.3-0.1-0.6-0.1-0.9,0
	l-12.4,6.8c0,0,0,0,0,0c0,0,0,0,0,0c-0.3,0.2-0.4,0.5-0.4,0.8v14.6c0,0.3,0.2,0.6,0.5,0.8l12.4,6.8c0,0,0.1,0,0.1,0.1c0,0,0,0,0.1,0
	c0.1,0,0.2,0,0.2,0c0.1,0,0.2,0,0.2,0c0,0,0,0,0.1,0c0,0,0.1,0,0.1-0.1l12.4-6.8c0.3-0.2,0.5-0.5,0.5-0.8V40.3
	C62.6,40,62.5,39.7,62.2,39.5"/>
<path d="M28.7,48H16.5v-8.5c0-0.5-0.4-0.9-0.9-0.9c-0.5,0-0.9,0.4-0.9,0.9V49c0,0.5,0.4,0.9,0.9,0.9h13c0.5,0,0.9-0.4,0.9-0.9
	C29.6,48.5,29.2,48,28.7,48"/>
<path d="M48.5,16.8v8.5c0,0.5,0.4,0.9,0.9,0.9c0.5,0,0.9-0.4,0.9-0.9v-9.4c0-0.5-0.4-0.9-0.9-0.9h-13c-0.5,0-0.9,0.4-0.9,0.9
	c0,0.5,0.4,0.9,0.9,0.9H48.5z"/>
</svg>
