<?xml version="1.0" encoding="utf-8"?>
<!-- Generator: Adobe Illustrator 22.0.0, SVG Export Plug-In . SVG Version: 6.00 Build 0)  -->
<svg version="1.1" id="Laag_1" xmlns="http://www.w3.org/2000/svg" xmlns:xlink="http://www.w3.org/1999/xlink" x="0px" y="0px"
	 viewBox="0 0 1000 1000" style="enable-background:new 0 0 1000 1000;" xml:space="preserve">
<style type="text/css">
	.st0{fill:url(#SVGID_1_);}
	.st1{fill:url(#SVGID_2_);}
	.st2{fill:url(#SVGID_3_);}
	.st3{fill:url(#SVGID_4_);}
	.st4{fill:url(#SVGID_5_);}
	.st5{fill:url(#SVGID_6_);}
	.st6{fill:url(#SVGID_7_);}
	.st7{fill:#CDD6FF;}
	.st8{opacity:0.5;fill:#AEC3FF;}
	.st9{fill:url(#SVGID_8_);}
	.st10{fill:url(#SVGID_9_);}
</style>
<g>
	<g>
		<linearGradient id="SVGID_1_" gradientUnits="userSpaceOnUse" x1="527.4827" y1="606.7242" x2="416.9561" y2="606.7242">
			<stop  offset="0" style="stop-color:#5347C2"/>
			<stop  offset="1" style="stop-color:#BAB5E7"/>
		</linearGradient>
		<polygon class="st0" points="417.1,611.2 417,666.4 527.3,602.2 527.5,547.1 		"/>
		<linearGradient id="SVGID_2_" gradientUnits="userSpaceOnUse" x1="581.9318" y1="650.0613" x2="416.9561" y2="650.0613">
			<stop  offset="0" style="stop-color:#5347C2"/>
			<stop  offset="1" style="stop-color:#BAB5E7"/>
		</linearGradient>
		<polygon class="st1" points="527.3,602.2 417,666.4 471.6,697.9 581.9,633.8 		"/>
		<linearGradient id="SVGID_3_" gradientUnits="userSpaceOnUse" x1="513.9359" y1="541.1406" x2="392.044" y2="569.308">
			<stop  offset="0" style="stop-color:#5347C2"/>
			<stop  offset="1" style="stop-color:#BAB5E7"/>
		</linearGradient>
		<path class="st2" d="M528.8,490c0,0-113.2,62.7-113.3,62.7c-19.4,11.3-12,42.9,1.4,58c0.1,0.1,0.2,0.3,0.2,0.5
			c0,0,110.3-64.1,110.4-64.1C526.7,547.5,520,495.1,528.8,490z"/>
		
			<linearGradient id="SVGID_4_" gradientUnits="userSpaceOnUse" x1="940.3118" y1="644.8481" x2="-25.3851" y2="521.7953" gradientTransform="matrix(1 3.350741e-03 -3.350741e-03 1 1.4804 -1.686)">
			<stop  offset="0" style="stop-color:#5347C2"/>
			<stop  offset="1" style="stop-color:#BAB5E7"/>
		</linearGradient>
		<path class="st3" d="M646.7,473.5c-32.7-19-205.6-119.6-212.8-123.8c-8.4-4.9-20.4-8.2-29.4-3c0,0-110.6,63.8-110.6,63.8
			c1.9-1.1,309.7,232.7,307.6,233.9l5.7-3.9c-1,45.5-4.9,190.2-12.5,194.6c0,0,110.5-63.7,110.6-63.8c9.2-5.3,12.1-16.6,12.2-26.6
			c0,0,0.6-181.6,0.6-181.6c0-0.6,0-1.2,0-1.9C716.9,516.5,681.1,493.5,646.7,473.5z"/>
		<linearGradient id="SVGID_5_" gradientUnits="userSpaceOnUse" x1="547.0872" y1="599.4457" x2="169.9056" y2="685.8545">
			<stop  offset="0" style="stop-color:#5347C2"/>
			<stop  offset="1" style="stop-color:#BAB5E7"/>
		</linearGradient>
		<path class="st4" d="M566.9,555L322.8,414.1c-22.8-13.2-41.4-2.6-41.5,23.7v181.6c-0.1,26.3,17.9,58.3,40.7,71.5l244.1,140.9
			c22.8,13.2,41.4,2.6,41.5-23.7V626.5C607.7,600.2,589.7,568.2,566.9,555z M471.7,642.7v55.1L417,666.4l0.2-55.1
			c-5.8-10.8-9.4-22.7-9.4-33.6c0.1-23.3,16.6-32.7,36.9-20.9c20.3,11.7,36.7,40.1,36.6,63.4C481.2,631,477.6,638.7,471.7,642.7z"/>
		<g>
			<linearGradient id="SVGID_6_" gradientUnits="userSpaceOnUse" x1="519.5187" y1="299.4632" x2="576.2313" y2="299.4632">
				<stop  offset="0" style="stop-color:#5347C2"/>
				<stop  offset="1" style="stop-color:#BAB5E7"/>
			</linearGradient>
			<path class="st5" d="M555,239.7c9.8,5.5,20.5,9.8,21.2,22.6c0.4,7.7-2,97.7-1.9,102.6l-54.7-31.7c0,0,0-97.5,0-97.5
				C519.5,233.7,541.5,232.2,555,239.7z"/>
			
				<linearGradient id="SVGID_7_" gradientUnits="userSpaceOnUse" x1="1095.7747" y1="303.2929" x2="1312.8528" y2="303.2929" gradientTransform="matrix(-1 0 0 1 1692.5653 0)">
				<stop  offset="0" style="stop-color:#5347C2"/>
				<stop  offset="1" style="stop-color:#BAB5E7"/>
			</linearGradient>
			<path class="st6" d="M379.8,313.3c0.4-14.7,4-29.1,9.3-42.7c4.4-11.2,10-21.9,16.6-32c5.4-8.2,12-16.5,19.1-23.8
				c18.8-19.1,44.4-31,67.4-44.2c0.7-0.4,1.5-0.8,2.2-1.2c11.4-6.2,25.3-10.3,38.2-7.3c1.3,0.3,2.7,0.6,3.9,1.1
				c0.1,0,0.2,0.1,0.3,0.1c1.9,0.7,3.7,1.5,5.4,2.5c0,0,54.5,31.7,54.5,31.7c-21-12.2-162.6,121.2-162.5,150.7v97.5l-54.5-31.7
				c0,0,0-97.5,0-97.5C379.7,315.4,379.7,314.3,379.8,313.3z"/>
			<path class="st7" d="M504.4,226.7l42.3-24.4c38.8-22.4,70.5-4.4,70.6,40.1v97.5l-43.1,25v-97.5c0-17.1-12.4-24.1-27.4-15.4
				l-42.3,24.4c-15,8.6-26.9,29.6-26.9,46.7v97.5l-43.4,25v-97.5C433.4,277.9,465.6,249.1,504.4,226.7z"/>
		</g>
	</g>
	<path class="st8" d="M562.8,805c-5.2,0-10.8-1.7-16.7-5L338.2,682.2c-19.7-11.2-35.7-38.7-35.6-61.4V468.8c0-11.2,4-19.7,11.1-23.8
		c7.3-4.2,16.9-3.4,27,2.3l207.8,117.9c19.7,11.2,35.7,38.7,35.6,61.4v151.9c0,11.2-4,19.7-11.1,23.8C570,804.2,566.5,805,562.8,805
		z M324,446.1c-3.1,0-6,0.7-8.4,2.2c-5.9,3.5-9.2,10.8-9.3,20.6v151.9c-0.1,21.5,15.1,47.6,33.7,58.2l207.8,117.9
		c8.9,5.1,17.2,5.9,23.3,2.4c5.9-3.5,9.2-10.8,9.3-20.6V626.7c0.1-21.5-15.1-47.6-33.7-58.2L338.9,450.6
		C333.6,447.6,328.6,446.1,324,446.1z"/>
	<g>
		<linearGradient id="SVGID_8_" gradientUnits="userSpaceOnUse" x1="555.2256" y1="505.5812" x2="606.0852" y2="505.5812">
			<stop  offset="0" style="stop-color:#5347C2"/>
			<stop  offset="0.7842" style="stop-color:#A49DDF"/>
			<stop  offset="1" style="stop-color:#BAB5E7"/>
		</linearGradient>
		<polygon class="st9" points="590.2,534.9 539.4,505.6 590.2,476.2 		"/>
		<linearGradient id="SVGID_9_" gradientUnits="userSpaceOnUse" x1="608.7664" y1="511.4541" x2="656.5949" y2="572.5477">
			<stop  offset="0" style="stop-color:#5347C2"/>
			<stop  offset="1" style="stop-color:#BAB5E7"/>
		</linearGradient>
		<polygon class="st10" points="590.2,476.2 590.2,534.9 641.1,505.6 		"/>
	</g>
</g>
</svg>
