<?xml version="1.0" encoding="utf-8"?>
<!-- Generator: Adobe Illustrator 22.0.0, SVG Export Plug-In . SVG Version: 6.00 Build 0)  -->
<svg version="1.1" id="Laag_1" xmlns="http://www.w3.org/2000/svg" xmlns:xlink="http://www.w3.org/1999/xlink" x="0px" y="0px"
	 viewBox="0 0 1000 1000" style="enable-background:new 0 0 1000 1000;" xml:space="preserve">
<style type="text/css">
	.st0{fill:url(#SVGID_1_);}
	.st1{fill:url(#SVGID_2_);}
	.st2{fill:url(#SVGID_3_);}
	.st3{fill:url(#SVGID_4_);}
	.st4{fill:url(#SVGID_5_);}
	.st5{fill:url(#SVGID_6_);}
	.st6{fill:url(#SVGID_7_);}
	.st7{fill:#CDD6FF;}
	.st8{opacity:0.5;fill:#AEC3FF;}
</style>
<g>
	<g>
		<linearGradient id="SVGID_1_" gradientUnits="userSpaceOnUse" x1="531.3698" y1="574.7241" x2="406.7368" y2="574.7241">
			<stop  offset="0" style="stop-color:#5347C2"/>
			<stop  offset="1" style="stop-color:#BAB5E7"/>
		</linearGradient>
		<polygon class="st0" points="406.9,579.8 406.7,642 531.2,569.7 531.4,507.5 		"/>
		<linearGradient id="SVGID_2_" gradientUnits="userSpaceOnUse" x1="592.7682" y1="623.5922" x2="406.7368" y2="623.5922">
			<stop  offset="0" style="stop-color:#5347C2"/>
			<stop  offset="1" style="stop-color:#BAB5E7"/>
		</linearGradient>
		<polygon class="st1" points="531.2,569.7 406.7,642 468.3,677.5 592.8,605.2 		"/>
		<linearGradient id="SVGID_3_" gradientUnits="userSpaceOnUse" x1="516.0941" y1="500.77" x2="378.6452" y2="532.5325">
			<stop  offset="0" style="stop-color:#5347C2"/>
			<stop  offset="1" style="stop-color:#BAB5E7"/>
		</linearGradient>
		<path class="st2" d="M532.8,443.1c0,0-127.6,70.7-127.7,70.7c-21.8,12.7-13.6,48.4,1.5,65.4c0.1,0.1,0.2,0.3,0.3,0.5
			c0,0,124.3-72.3,124.5-72.3C530.5,508,522.9,448.9,532.8,443.1z"/>
		
			<linearGradient id="SVGID_4_" gradientUnits="userSpaceOnUse" x1="996.7101" y1="617.7111" x2="-92.2384" y2="478.9531" gradientTransform="matrix(1 3.350741e-03 -3.350741e-03 1 1.4804 -1.686)">
			<stop  offset="0" style="stop-color:#5347C2"/>
			<stop  offset="1" style="stop-color:#BAB5E7"/>
		</linearGradient>
		<path class="st3" d="M665.9,424.5C629,403,434,289.6,425.9,284.9c-9.5-5.6-23-9.2-33.2-3.4c0,0-124.7,71.9-124.7,71.9
			c2.1-1.2,349.3,262.4,346.8,263.8l6.4-4.5c-1.1,51.3-5.5,214.5-14.1,219.4c0,0,124.6-71.8,124.7-71.9c10.4-6,13.7-18.8,13.7-30
			c0,0,0.7-204.8,0.7-204.8c0-0.7,0-1.4,0-2.1C744.9,473,704.6,447.1,665.9,424.5z"/>
		<linearGradient id="SVGID_5_" gradientUnits="userSpaceOnUse" x1="553.4764" y1="566.5165" x2="128.1554" y2="663.9537">
			<stop  offset="0" style="stop-color:#5347C2"/>
			<stop  offset="1" style="stop-color:#BAB5E7"/>
		</linearGradient>
		<path class="st4" d="M575.8,516.4L300.5,357.5c-25.8-14.9-46.7-2.9-46.8,26.8V589c-0.1,29.7,20.2,65.8,45.9,80.7l275.3,158.9
			c25.8,14.9,46.7,2.9,46.8-26.8V597C621.8,567.3,601.5,531.3,575.8,516.4z M468.5,615.3v62.2L406.7,642l0.2-62.2
			c-6.6-12.2-10.6-25.6-10.6-37.8c0.1-26.3,18.7-36.8,41.6-23.6c22.9,13.2,41.4,45.2,41.3,71.5C479.2,602.1,475.1,610.8,468.5,615.3
			z"/>
		<g>
			
				<linearGradient id="SVGID_6_" gradientUnits="userSpaceOnUse" x1="956.8448" y1="321.1352" x2="1020.7955" y2="321.1352" gradientTransform="matrix(-1 0 0 1 1434.307 0)">
				<stop  offset="0" style="stop-color:#5347C2"/>
				<stop  offset="1" style="stop-color:#BAB5E7"/>
			</linearGradient>
			<path class="st5" d="M437.5,253.7c-11.1,6.2-23.1,11-23.9,25.4c-0.5,8.7,2.2,110.2,2.2,115.7l61.7-35.7c0,0,0-109.9,0-109.9
				C477.5,247,452.6,245.3,437.5,253.7z"/>
			
				<linearGradient id="SVGID_7_" gradientUnits="userSpaceOnUse" x1="648.5864" y1="325.4537" x2="893.3702" y2="325.4537" gradientTransform="matrix(1 0 0 1 -258.2584 0)">
				<stop  offset="0" style="stop-color:#5347C2"/>
				<stop  offset="1" style="stop-color:#BAB5E7"/>
			</linearGradient>
			<path class="st6" d="M635.1,336.7c-0.5-16.5-4.5-32.8-10.5-48.2c-4.9-12.6-11.3-24.7-18.7-36c-6.1-9.3-13.5-18.7-21.5-26.8
				c-21.2-21.6-50.1-34.9-76-49.9c-0.8-0.5-1.7-1-2.5-1.4c-12.8-6.9-28.5-11.6-43.1-8.3c-1.5,0.3-3,0.7-4.4,1.2
				c-0.1,0-0.2,0.1-0.3,0.2c-2.1,0.8-4.2,1.7-6.1,2.8c0,0-61.5,35.7-61.5,35.7c23.6-13.7,183.4,136.6,183.3,170v109.9l61.5-35.7
				c0,0,0-109.9,0-109.9C635.1,339.1,635.1,337.9,635.1,336.7z"/>
			<path class="st7" d="M494.5,239.1l-47.7-27.6c-43.8-25.3-79.5-4.9-79.6,45.3v109.9l48.6,28.2V285c0.1-19.3,14-27.1,30.9-17.4
				l47.7,27.6c16.9,9.7,30.4,33.4,30.3,52.7v109.9l48.9,28.2V376C574.6,296.8,538.3,264.4,494.5,239.1z"/>
		</g>
	</g>
	<path class="st8" d="M569.8,797.1c-5.8,0-12.2-1.9-18.8-5.6L316.6,658.5c-22.2-12.6-40.2-43.7-40.2-69.3V417.9
		c0-12.6,4.5-22.2,12.5-26.9c8.2-4.8,19-3.8,30.5,2.6l234.4,132.9c22.2,12.6,40.2,43.7,40.2,69.3v171.3c0,12.6-4.5,22.2-12.5,26.9
		C577.9,796.1,574,797.1,569.8,797.1z M300.5,392.3c-3.5,0-6.7,0.8-9.5,2.4c-6.7,3.9-10.4,12.1-10.4,23.2v171.3
		c-0.1,24.3,17,53.7,38,65.6L553,787.8c10.1,5.7,19.4,6.6,26.3,2.7c6.7-3.9,10.4-12.1,10.4-23.2V595.9c0.1-24.3-17-53.7-38-65.6
		L317.3,397.3C311.3,394,305.6,392.3,300.5,392.3z"/>
</g>
</svg>
