<?xml version="1.0" encoding="utf-8"?>
<!-- Generator: Adobe Illustrator 22.0.0, SVG Export Plug-In . SVG Version: 6.00 Build 0)  -->
<svg version="1.1" id="Laag_1" xmlns="http://www.w3.org/2000/svg" xmlns:xlink="http://www.w3.org/1999/xlink" x="0px" y="0px"
	 viewBox="0 0 1000 1000" style="enable-background:new 0 0 1000 1000;" xml:space="preserve">
<style type="text/css">
	.st0{fill:url(#SVGID_1_);}
	.st1{fill:url(#SVGID_2_);}
	.st2{fill:url(#SVGID_3_);}
	.st3{fill:url(#SVGID_4_);}
	.st4{fill:url(#SVGID_5_);}
	.st5{fill:url(#SVGID_6_);}
	.st6{fill:url(#SVGID_7_);}
	.st7{fill:url(#SVGID_8_);}
	.st8{fill:url(#SVGID_9_);}
	.st9{fill:url(#SVGID_10_);}
	.st10{fill:url(#SVGID_11_);}
	.st11{fill:url(#SVGID_12_);}
	.st12{fill:url(#SVGID_13_);}
	.st13{fill:url(#SVGID_14_);}
	.st14{fill:url(#SVGID_15_);}
	.st15{fill:url(#SVGID_16_);}
	.st16{fill:url(#SVGID_17_);}
	.st17{fill:url(#SVGID_18_);}
	.st18{fill:#CDD6FF;}
	.st19{fill:url(#SVGID_19_);}
	.st20{fill:url(#SVGID_20_);}
	.st21{fill:url(#SVGID_21_);}
	.st22{fill:url(#SVGID_22_);}
	.st23{fill:url(#SVGID_23_);}
	.st24{fill:url(#SVGID_24_);}
	.st25{fill:url(#SVGID_25_);}
</style>
<g>
	<g>
		<g>
			<linearGradient id="SVGID_1_" gradientUnits="userSpaceOnUse" x1="91.6908" y1="438.9368" x2="1017.3312" y2="443.7081">
				<stop  offset="0" style="stop-color:#5347C2"/>
				<stop  offset="1" style="stop-color:#BAB5E7"/>
			</linearGradient>
			<path class="st0" d="M253,428.2l-30.2,17.6c10.2-5.9,24.3-5.1,39.8,3.9c2.9,1.7,5.8,3.6,8.5,5.7l30.2-17.6
				c-2.8-2.1-5.6-4-8.5-5.7C277.3,423.1,263.2,422.2,253,428.2z"/>
			<linearGradient id="SVGID_2_" gradientUnits="userSpaceOnUse" x1="92.0445" y1="370.3244" x2="1017.6849" y2="375.0957">
				<stop  offset="0" style="stop-color:#5347C2"/>
				<stop  offset="1" style="stop-color:#BAB5E7"/>
			</linearGradient>
			<path class="st1" d="M394.4,354.4c-26.5-15.3-50.6-16.7-68-6.7l-30.2,17.6c17.4-10.1,41.4-8.7,68,6.7c13.3,7.7,26,18.1,37.5,30.4
				l30.2-17.6C420.3,372.5,407.7,362,394.4,354.4z"/>
			<linearGradient id="SVGID_3_" gradientUnits="userSpaceOnUse" x1="91.0372" y1="565.7307" x2="1016.6777" y2="570.502">
				<stop  offset="0" style="stop-color:#5347C2"/>
				<stop  offset="1" style="stop-color:#BAB5E7"/>
			</linearGradient>
			<path class="st2" d="M697.8,563.4c-3.4-83.8-62.1-182.8-134.1-224.3c-37.4-21.6-71.3-23.6-95.8-9.4l-30.2,17.6
				c24.5-14.2,58.4-12.2,95.8,9.4c72,41.6,130.7,140.5,134.1,224.3c53.4,33.6,95.9,108.8,95.7,170.9c-0.1,31.7-11.3,54-29.3,64.5
				l30.2-17.6c18.1-10.5,29.3-32.8,29.3-64.5C793.7,672.2,751.2,596.9,697.8,563.4z"/>
		</g>
		<linearGradient id="SVGID_4_" gradientUnits="userSpaceOnUse" x1="793.7383" y1="709.0674" x2="-50.3324" y2="193.8545">
			<stop  offset="0" style="stop-color:#5347C2"/>
			<stop  offset="1" style="stop-color:#BAB5E7"/>
		</linearGradient>
		<path class="st3" d="M533.5,356.6c72,41.6,130.7,140.5,134.1,224.3c53.4,33.6,95.9,108.8,95.7,170.9
			c-0.2,63.8-45.4,89.6-100.9,57.5L267.9,581.6c-1.8-1.2-3.7-2.1-5.6-3.2c-30.9-17.9-55.9-61.1-55.8-96.7
			c0.1-35.5,25.2-49.9,56.2-32c2.9,1.7,5.8,3.6,8.5,5.7c-1.9-9.8-2.9-19.5-2.9-28.8c0.2-60.6,43.1-85,95.8-54.6
			c13.3,7.7,26,18.1,37.5,30.4C415,340.3,469,319.3,533.5,356.6z"/>
		<g>
			<g>
				<linearGradient id="SVGID_5_" gradientUnits="userSpaceOnUse" x1="278.319" y1="487.8857" x2="741.2106" y2="490.2717">
					<stop  offset="0" style="stop-color:#5347C2"/>
					<stop  offset="1" style="stop-color:#BAB5E7"/>
				</linearGradient>
				<path class="st4" d="M359,482.5l-15.1,8.8c5.1-3,12.1-2.5,19.9,2c1.4,0.8,2.9,1.8,4.3,2.8l15.1-8.8c-1.4-1-2.8-2-4.3-2.8
					C371.1,480,364.1,479.5,359,482.5z"/>
				<linearGradient id="SVGID_6_" gradientUnits="userSpaceOnUse" x1="278.4958" y1="453.5742" x2="741.3875" y2="455.9602">
					<stop  offset="0" style="stop-color:#5347C2"/>
					<stop  offset="1" style="stop-color:#BAB5E7"/>
				</linearGradient>
				<path class="st5" d="M429.7,445.6c-13.3-7.7-25.3-8.4-34-3.3l-15.1,8.8c8.7-5,20.7-4.3,34,3.3c6.7,3.8,13,9.1,18.7,15.2
					l15.1-8.8C442.7,454.6,436.3,449.4,429.7,445.6z"/>
				<linearGradient id="SVGID_7_" gradientUnits="userSpaceOnUse" x1="277.9921" y1="551.2924" x2="740.8838" y2="553.6784">
					<stop  offset="0" style="stop-color:#5347C2"/>
					<stop  offset="1" style="stop-color:#BAB5E7"/>
				</linearGradient>
				<path class="st6" d="M581.4,550.1c-1.7-41.9-31-91.4-67.1-112.2c-18.7-10.8-35.7-11.8-47.9-4.7l-15.1,8.8
					c12.2-7.1,29.2-6.1,47.9,4.7c36,20.8,65.4,70.3,67.1,112.2c26.7,16.8,47.9,54.4,47.8,85.5c0,15.9-5.6,27-14.7,32.3l15.1-8.8
					c9-5.2,14.6-16.4,14.7-32.3C629.4,604.5,608.1,566.9,581.4,550.1z"/>
			</g>
			<linearGradient id="SVGID_8_" gradientUnits="userSpaceOnUse" x1="629.3969" y1="622.9718" x2="207.2964" y2="365.3256">
				<stop  offset="0" style="stop-color:#5347C2"/>
				<stop  offset="1" style="stop-color:#BAB5E7"/>
			</linearGradient>
			<path class="st7" d="M499.3,446.7c36,20.8,65.4,70.3,67.1,112.2c26.7,16.8,47.9,54.4,47.8,85.5c-0.1,31.9-22.7,44.8-50.4,28.8
				L366.4,559.2c-0.9-0.6-1.9-1.1-2.8-1.6c-15.5-8.9-28-30.6-27.9-48.4c0.1-17.8,12.6-24.9,28.1-16c1.4,0.8,2.9,1.8,4.3,2.8
				c-0.9-4.9-1.4-9.7-1.4-14.4c0.1-30.3,21.5-42.5,47.9-27.3c6.7,3.8,13,9.1,18.7,15.2C440,438.6,467,428.1,499.3,446.7z"/>
		</g>
	</g>
	<g>
		<g>
			<g>
				<linearGradient id="SVGID_9_" gradientUnits="userSpaceOnUse" x1="152.9096" y1="229.2866" x2="335.4151" y2="230.2274">
					<stop  offset="0" style="stop-color:#5347C2"/>
					<stop  offset="1" style="stop-color:#BAB5E7"/>
				</linearGradient>
				<path class="st8" d="M184.7,227.2l-6,3.5c2-1.2,4.8-1,7.9,0.8c0.6,0.3,1.1,0.7,1.7,1.1l6-3.5c-0.5-0.4-1.1-0.8-1.7-1.1
					C189.5,226.2,186.7,226,184.7,227.2z"/>
				<linearGradient id="SVGID_10_" gradientUnits="userSpaceOnUse" x1="152.9793" y1="215.7585" x2="335.4848" y2="216.6993">
					<stop  offset="0" style="stop-color:#5347C2"/>
					<stop  offset="1" style="stop-color:#BAB5E7"/>
				</linearGradient>
				<path class="st9" d="M212.6,212.6c-5.2-3-10-3.3-13.4-1.3l-6,3.5c3.4-2,8.2-1.7,13.4,1.3c2.6,1.5,5.1,3.6,7.4,6l6-3.5
					C217.7,216.2,215.2,214.1,212.6,212.6z"/>
				<linearGradient id="SVGID_11_" gradientUnits="userSpaceOnUse" x1="152.7807" y1="254.2861" x2="335.2862" y2="255.2269">
					<stop  offset="0" style="stop-color:#5347C2"/>
					<stop  offset="1" style="stop-color:#BAB5E7"/>
				</linearGradient>
				<path class="st10" d="M272.4,253.8c-0.7-16.5-12.2-36-26.4-44.2c-7.4-4.3-14.1-4.7-18.9-1.9l-6,3.5c4.8-2.8,11.5-2.4,18.9,1.9
					c14.2,8.2,25.8,27.7,26.4,44.2c10.5,6.6,18.9,21.5,18.9,33.7c0,6.3-2.2,10.7-5.8,12.7l6-3.5c3.6-2.1,5.8-6.5,5.8-12.7
					C291.3,275.3,282.9,260.4,272.4,253.8z"/>
			</g>
			<linearGradient id="SVGID_12_" gradientUnits="userSpaceOnUse" x1="291.33" y1="282.5474" x2="124.9073" y2="180.9646">
				<stop  offset="0" style="stop-color:#5347C2"/>
				<stop  offset="1" style="stop-color:#BAB5E7"/>
			</linearGradient>
			<path class="st11" d="M240,213.1c14.2,8.2,25.8,27.7,26.4,44.2c10.5,6.6,18.9,21.5,18.9,33.7c0,12.6-8.9,17.7-19.9,11.3
				l-77.8-44.9c-0.4-0.2-0.7-0.4-1.1-0.6c-6.1-3.5-11-12.1-11-19.1c0-7,5-9.8,11.1-6.3c0.6,0.3,1.1,0.7,1.7,1.1
				c-0.4-1.9-0.6-3.8-0.6-5.7c0-11.9,8.5-16.8,18.9-10.8c2.6,1.5,5.1,3.6,7.4,6C216.7,209.8,227.3,205.7,240,213.1z"/>
		</g>
		<g>
			<g>
				<linearGradient id="SVGID_13_" gradientUnits="userSpaceOnUse" x1="686.0804" y1="442.7935" x2="868.5859" y2="443.7343">
					<stop  offset="0" style="stop-color:#5347C2"/>
					<stop  offset="1" style="stop-color:#BAB5E7"/>
				</linearGradient>
				<path class="st12" d="M717.9,440.7l-6,3.5c2-1.2,4.8-1,7.9,0.8c0.6,0.3,1.1,0.7,1.7,1.1l6-3.5c-0.5-0.4-1.1-0.8-1.7-1.1
					C722.7,439.7,719.9,439.5,717.9,440.7z"/>
				<linearGradient id="SVGID_14_" gradientUnits="userSpaceOnUse" x1="686.1501" y1="429.2654" x2="868.6556" y2="430.2062">
					<stop  offset="0" style="stop-color:#5347C2"/>
					<stop  offset="1" style="stop-color:#BAB5E7"/>
				</linearGradient>
				<path class="st13" d="M745.8,426.1c-5.2-3-10-3.3-13.4-1.3l-6,3.5c3.4-2,8.2-1.7,13.4,1.3c2.6,1.5,5.1,3.6,7.4,6l6-3.5
					C750.9,429.7,748.4,427.6,745.8,426.1z"/>
				<linearGradient id="SVGID_15_" gradientUnits="userSpaceOnUse" x1="685.9516" y1="467.7931" x2="868.4571" y2="468.7338">
					<stop  offset="0" style="stop-color:#5347C2"/>
					<stop  offset="1" style="stop-color:#BAB5E7"/>
				</linearGradient>
				<path class="st14" d="M805.6,467.3c-0.7-16.5-12.2-36-26.4-44.2c-7.4-4.3-14.1-4.7-18.9-1.9l-6,3.5c4.8-2.8,11.5-2.4,18.9,1.9
					c14.2,8.2,25.8,27.7,26.4,44.2c10.5,6.6,18.9,21.5,18.9,33.7c0,6.3-2.2,10.7-5.8,12.7l6-3.5c3.6-2.1,5.8-6.5,5.8-12.7
					C824.5,488.8,816.1,473.9,805.6,467.3z"/>
			</g>
			<linearGradient id="SVGID_16_" gradientUnits="userSpaceOnUse" x1="824.5009" y1="496.0543" x2="658.0782" y2="394.4714">
				<stop  offset="0" style="stop-color:#5347C2"/>
				<stop  offset="1" style="stop-color:#BAB5E7"/>
			</linearGradient>
			<path class="st15" d="M773.2,426.6c14.2,8.2,25.8,27.7,26.4,44.2c10.5,6.6,18.9,21.5,18.9,33.7c0,12.6-8.9,17.7-19.9,11.3
				l-77.8-44.9c-0.4-0.2-0.7-0.4-1.1-0.6c-6.1-3.5-11-12.1-11-19.1c0-7,5-9.8,11.1-6.3c0.6,0.3,1.1,0.7,1.7,1.1
				c-0.4-1.9-0.6-3.8-0.6-5.7c0-11.9,8.5-16.8,18.9-10.8c2.6,1.5,5.1,3.6,7.4,6C749.8,423.4,760.5,419.2,773.2,426.6z"/>
		</g>
		<g>
			
				<linearGradient id="SVGID_17_" gradientUnits="userSpaceOnUse" x1="2330.8354" y1="633.7105" x2="1963.5326" y2="890.2401" gradientTransform="matrix(-1.0042 -4.155426e-03 -4.155426e-03 0.9958 2694.3887 1.5448)">
				<stop  offset="0" style="stop-color:#5347C2"/>
				<stop  offset="1" style="stop-color:#BAB5E7"/>
			</linearGradient>
			<polygon class="st16" points="422.7,694.4 369.1,667.3 408.3,648.3 414.2,645.5 420.7,648.7 467.9,672.6 			"/>
			
				<linearGradient id="SVGID_18_" gradientUnits="userSpaceOnUse" x1="2377.1897" y1="713.497" x2="2053.6299" y2="643.5373" gradientTransform="matrix(-1.0042 -4.155426e-03 -4.155426e-03 0.9958 2694.3887 1.5448)">
				<stop  offset="0" style="stop-color:#5347C2"/>
				<stop  offset="1" style="stop-color:#BAB5E7"/>
			</linearGradient>
			<polygon class="st17" points="521,700 475.7,722.1 476.3,622.6 521.4,600.7 521.5,600.7 			"/>
			<polygon class="st18" points="422.2,694.5 422.8,595.2 476.4,622.4 475.8,721.9 			"/>
			
				<linearGradient id="SVGID_19_" gradientUnits="userSpaceOnUse" x1="2279.3171" y1="559.9525" x2="1912.0289" y2="816.4719" gradientTransform="matrix(-1.0042 -4.155426e-03 -4.155426e-03 0.9958 2694.3887 1.5448)">
				<stop  offset="0" style="stop-color:#5347C2"/>
				<stop  offset="1" style="stop-color:#BAB5E7"/>
			</linearGradient>
			<path class="st19" d="M476.4,622.4l-53.6-27.1l39.2-19l5.9-2.9c0,0,6.4,3.3,6.4,3.3l47.2,23.8L476.4,622.4z"/>
			
				<linearGradient id="SVGID_20_" gradientUnits="userSpaceOnUse" x1="2321.5532" y1="620.4196" x2="1954.2554" y2="876.9457" gradientTransform="matrix(-1.0042 -4.155426e-03 -4.155426e-03 0.9958 2694.3887 1.5448)">
				<stop  offset="0" style="stop-color:#5347C2"/>
				<stop  offset="1" style="stop-color:#BAB5E7"/>
			</linearGradient>
			<polygon class="st20" points="529.2,749.2 475.6,722 514.9,703 520.8,700.2 527.3,703.4 574.5,727.3 			"/>
			<path class="st18" d="M529.2,749.2L443.4,841l-74.4-173.7C369.1,667.3,528.6,747.8,529.2,749.2z"/>
			
				<linearGradient id="SVGID_21_" gradientUnits="userSpaceOnUse" x1="2108.0708" y1="794.9328" x2="2238.1016" y2="794.9328" gradientTransform="matrix(-1.0042 -4.155426e-03 -4.155426e-03 0.9958 2694.3887 1.5448)">
				<stop  offset="0" style="stop-color:#5347C2"/>
				<stop  offset="1" style="stop-color:#BAB5E7"/>
			</linearGradient>
			<polygon class="st21" points="574.5,727.3 529.2,749.2 443.4,841 468.3,821.4 			"/>
		</g>
		<g>
			<g>
				<linearGradient id="SVGID_22_" gradientUnits="userSpaceOnUse" x1="441.3526" y1="195.646" x2="727.89" y2="197.123">
					<stop  offset="0" style="stop-color:#5347C2"/>
					<stop  offset="1" style="stop-color:#BAB5E7"/>
				</linearGradient>
				<path class="st22" d="M491.3,192.3l-9.4,5.4c3.1-1.8,7.5-1.6,12.3,1.2c0.9,0.5,1.8,1.1,2.6,1.8l9.4-5.4
					c-0.9-0.6-1.7-1.2-2.6-1.8C498.8,190.7,494.5,190.5,491.3,192.3z"/>
				<linearGradient id="SVGID_23_" gradientUnits="userSpaceOnUse" x1="441.4621" y1="174.4066" x2="727.9994" y2="175.8836">
					<stop  offset="0" style="stop-color:#5347C2"/>
					<stop  offset="1" style="stop-color:#BAB5E7"/>
				</linearGradient>
				<path class="st23" d="M535,169.5c-8.2-4.7-15.7-5.2-21-2.1l-9.4,5.4c5.4-3.1,12.8-2.7,21,2.1c4.1,2.4,8,5.6,11.6,9.4l9.4-5.4
					C543.1,175.1,539.2,171.8,535,169.5z"/>
				<linearGradient id="SVGID_24_" gradientUnits="userSpaceOnUse" x1="441.1503" y1="234.8958" x2="727.6876" y2="236.3728">
					<stop  offset="0" style="stop-color:#5347C2"/>
					<stop  offset="1" style="stop-color:#BAB5E7"/>
				</linearGradient>
				<path class="st24" d="M629,234.2c-1.1-26-19.2-56.6-41.5-69.4c-11.6-6.7-22.1-7.3-29.7-2.9l-9.4,5.4c7.6-4.4,18.1-3.8,29.7,2.9
					c22.3,12.9,40.5,43.5,41.5,69.4c16.5,10.4,29.7,33.7,29.6,52.9c0,9.8-3.5,16.7-9.1,20l9.4-5.4c5.6-3.2,9.1-10.2,9.1-20
					C658.7,267.8,645.5,244.6,629,234.2z"/>
			</g>
			<linearGradient id="SVGID_25_" gradientUnits="userSpaceOnUse" x1="658.6755" y1="279.2665" x2="397.3885" y2="119.7794">
				<stop  offset="0" style="stop-color:#5347C2"/>
				<stop  offset="1" style="stop-color:#BAB5E7"/>
			</linearGradient>
			<path class="st25" d="M578.1,170.2c22.3,12.9,40.5,43.5,41.5,69.4c16.5,10.4,29.7,33.7,29.6,52.9c-0.1,19.8-14,27.7-31.2,17.8
				l-122.1-70.5c-0.6-0.4-1.2-0.7-1.7-1c-9.6-5.5-17.3-18.9-17.3-29.9c0-11,7.8-15.4,17.4-9.9c0.9,0.5,1.8,1.1,2.6,1.8
				c-0.6-3-0.9-6-0.9-8.9c0.1-18.8,13.3-26.3,29.7-16.9c4.1,2.4,8,5.6,11.6,9.4C541.4,165.1,558.1,158.6,578.1,170.2z"/>
		</g>
	</g>
</g>
</svg>
