<?xml version="1.0" encoding="utf-8"?>
<!-- Generator: Adobe Illustrator 23.0.3, SVG Export Plug-In . SVG Version: 6.00 Build 0)  -->
<svg version="1.1" xmlns="http://www.w3.org/2000/svg" xmlns:xlink="http://www.w3.org/1999/xlink" x="0px" y="0px"
	 viewBox="0 0 58 58" style="enable-background:new 0 0 58 58;" xml:space="preserve">
<g id="Layer_1" style="opacity:0.5;">
	<g>
		<path d="M26.4,15.2c-0.6,0-1.1,0.5-1.1,1c0,0.6,0.5,1.1,1,1.1h3c0.1,0,0.2,0,0.3,0h1.9c0.6,0,1.1-0.5,1.1-1c0-0.6-0.5-1.1-1-1.1
			h-1.1V3.7c0.1-0.6-0.4-1-1-1c-0.3,0-0.5,0.1-0.7,0.3l-3.2,3.2c-0.4,0.4-0.4,1.1,0,1.5C26,8,26.7,8,27.1,7.6l1.4-1.4v9H26.4z"/>
		<path d="M50.6,12.7V6.3c0.1-0.8,0.7-1.5,1.6-1.5c0.9,0,1.6,0.7,1.6,1.6v3.1l2.1-2.1V6.3c0-2-1.6-3.6-3.7-3.6c-2,0-3.7,1.7-3.7,3.7
			v7.4c0,0.3,0,0.6,0.1,0.9L50.6,12.7z"/>
		<path d="M40.6,17.5c2,0,3.7-1.7,3.7-3.7V6.3c0-2-1.7-3.6-3.7-3.6s-3.7,1.7-3.7,3.7v7.4C36.9,15.8,38.6,17.5,40.6,17.5z M39,6.3
			c0-0.8,0.7-1.5,1.6-1.5c0.9,0,1.6,0.7,1.6,1.6v7.4c0,0.9-0.7,1.6-1.6,1.6c-0.9,0-1.6-0.7-1.6-1.6V6.3z"/>
		<path d="M41.6,21.7c-0.1-0.1-0.3-0.1-0.5-0.1c-0.3,0-0.5,0.1-0.7,0.3l-3.2,3.2c-0.3,0.3-0.4,0.8-0.2,1.2L41.6,21.7z"/>
		<path d="M26.4,34.2c-0.6,0-1.1,0.5-1.1,1c0,0.6,0.5,1.1,1,1.1H27l3.5-3.5V22.7c0.1-0.6-0.4-1.1-1-1.1c-0.3,0-0.5,0.1-0.7,0.3
			l-3.2,3.2c-0.4,0.4-0.4,1.1,0,1.5c0.4,0.4,1.1,0.4,1.5,0l1.4-1.4v9H26.4z"/>
		<path d="M3,36.3h3c0.1,0,0.2,0,0.3,0h1.9c0.6,0,1.1-0.5,1.1-1c0-0.6-0.5-1.1-1-1.1H7.4V22.7c0-0.6-0.5-1.1-1.1-1.1
			c-0.3,0-0.5,0.1-0.7,0.3l-3.2,3.2c-0.4,0.4-0.4,1.1,0,1.5c0.4,0.4,1.1,0.4,1.5,0l1.4-1.4v9H3.1c-0.6,0-1.1,0.5-1.1,1
			C2,35.8,2.5,36.3,3,36.3z"/>
		<path d="M5.8,17.5c2,0,3.7-1.7,3.7-3.7V6.3c0-2-1.7-3.6-3.7-3.6S2.1,4.4,2.1,6.4v7.4C2.1,15.8,3.8,17.5,5.8,17.5z M4.2,6.3
			c0-0.8,0.7-1.5,1.6-1.5c0.9,0,1.6,0.7,1.6,1.6v7.4c0,0.9-0.7,1.6-1.6,1.6c-0.9,0-1.6-0.7-1.6-1.6V6.3z"/>
		<path d="M3,55.3h3c0.1,0,0.2,0,0.3,0H8L9.2,54c-0.1-0.5-0.5-0.8-0.9-0.8H7.4V41.6c0-0.5-0.5-1-1.1-1c-0.3,0-0.5,0.1-0.7,0.3
			l-3.2,3.2c-0.4,0.4-0.4,1.1,0,1.5c0.4,0.4,1.1,0.4,1.5,0l1.4-1.4v9H3.1c-0.6,0-1.1,0.5-1.1,1C2,54.8,2.5,55.3,3,55.3z"/>
		<path d="M15.5,45.6l1.4-1.4v2.2l2.1-2.1v-2.7c0-0.5-0.5-1-1.1-1c-0.3,0-0.5,0.1-0.7,0.3L14,44.1c-0.4,0.4-0.4,1.1,0,1.5
			C14.4,46,15.1,46,15.5,45.6z"/>
		<path d="M14.8,15.2c-0.6,0-1.1,0.5-1.1,1c0,0.6,0.5,1.1,1,1.1h3c0.1,0,0.2,0,0.3,0h2c0.6,0,1.1-0.5,1.1-1c0-0.6-0.5-1.1-1-1.1H19
			V3.7c0-0.6-0.5-1-1.1-1c-0.3,0-0.5,0.1-0.7,0.3L14,6.1c-0.4,0.4-0.4,1.1,0,1.5c0.4,0.4,1.1,0.4,1.5,0l1.4-1.4v9H14.8z"/>
		<path d="M17.4,36.4c2,0,3.7-1.7,3.7-3.7v-7.4c0-2-1.7-3.7-3.7-3.7s-3.7,1.7-3.7,3.7v7.4C13.7,34.7,15.4,36.4,17.4,36.4z
			 M15.8,25.3c0-0.9,0.7-1.6,1.6-1.6c0.9,0,1.6,0.7,1.6,1.6v7.4c0,0.9-0.7,1.6-1.6,1.6c-0.9,0-1.6-0.7-1.6-1.6V25.3z"/>
	</g>
</g>
<g id="Layer_1_copy">
	<g>
		<path style="fill:none;" d="M5.3,44.2l-1.4,1.4c-0.4,0.4-1.1,0.4-1.5,0c-0.4-0.4-0.4-1.1,0-1.5l3.2-3.2c0.2-0.2,0.4-0.3,0.7-0.3
			c0.6,0,1.1,0.5,1.1,1v1.7l7.7-7.7c-0.9-0.7-1.4-1.7-1.4-2.9v-7.4c0-2,1.7-3.7,3.7-3.7s3.7,1.7,3.7,3.7v4.3l4.4-4.4
			c0,0,0-0.1,0.1-0.1l3.2-3.2c0,0,0.1,0,0.1-0.1l8-8c0,0,0,0,0,0V6.4c0-2,1.7-3.7,3.7-3.7s3.7,1.6,3.7,3.6v0.1l10-10L0-57.8
			L-54.3-3.5L0,50.7l5.3-5.3V44.2z M27.1,7.6C26.7,8,26,8,25.6,7.7c-0.4-0.4-0.4-1.1,0-1.5L28.8,3c0.2-0.2,0.4-0.3,0.7-0.3
			c0.6,0,1.1,0.4,1,1v11.5h1.1c0.5,0,1,0.5,1,1.1c0,0.5-0.5,1-1.1,1h-1.9c-0.1,0-0.2,0-0.3,0h-3c-0.5,0-1-0.5-1-1.1
			c0-0.5,0.5-1,1.1-1h2.1v-9L27.1,7.6z M15.5,7.6C15.1,8,14.4,8,14,7.6c-0.4-0.4-0.4-1.1,0-1.5L17.2,3c0.2-0.2,0.4-0.3,0.7-0.3
			c0.6,0,1.1,0.4,1.1,1v11.5h1.1c0.5,0,1,0.5,1,1.1c0,0.5-0.5,1-1.1,1h-2c-0.1,0-0.2,0-0.3,0h-3c-0.5,0-1-0.5-1-1.1
			c0-0.5,0.5-1,1.1-1h2.1v-9L15.5,7.6z M2.1,6.4c0-2,1.7-3.7,3.7-3.7s3.7,1.6,3.7,3.6v7.5c0,2-1.7,3.7-3.7,3.7s-3.7-1.7-3.7-3.7V6.4
			z M3.1,34.2h2.2v-9l-1.4,1.4c-0.4,0.4-1.1,0.4-1.5,0c-0.4-0.4-0.4-1.1,0-1.5l3.2-3.2c0.2-0.2,0.4-0.3,0.7-0.3
			c0.6,0,1.1,0.5,1.1,1.1v11.5h0.9c0.5,0,1,0.5,1,1.1c0,0.5-0.5,1-1.1,1H6.3c-0.1,0-0.2,0-0.3,0H3c-0.5,0-1-0.5-1-1.1
			C2,34.7,2.5,34.2,3.1,34.2z"/>
		<path style="fill:none;" d="M5.8,15.4c0.9,0,1.6-0.7,1.6-1.6V6.4c0-0.9-0.7-1.6-1.6-1.6c-0.9,0-1.6,0.7-1.6,1.5v7.5
			C4.2,14.7,4.9,15.4,5.8,15.4z"/>
		<path style="fill:none;" d="M40.6,4.8c-0.9,0-1.6,0.7-1.6,1.5v5.4l3.2-3.2V6.4C42.2,5.5,41.5,4.8,40.6,4.8z"/>
		<path style="fill:none;" d="M17.4,23.7c-0.9,0-1.6,0.7-1.6,1.6v7.4c0,0.6,0.3,1.1,0.8,1.4l2.4-2.4v-6.4
			C19,24.4,18.3,23.7,17.4,23.7z"/>
		<path d="M26.4,15.2c-0.6,0-1.1,0.5-1.1,1c0,0.6,0.5,1.1,1,1.1h3c0.1,0,0.2,0,0.3,0h1.9c0.6,0,1.1-0.5,1.1-1c0-0.6-0.5-1.1-1-1.1
			h-1.1V3.7c0.1-0.6-0.4-1-1-1c-0.3,0-0.5,0.1-0.7,0.3l-3.2,3.2c-0.4,0.4-0.4,1.1,0,1.5C26,8,26.7,8,27.1,7.6l1.4-1.4v9H26.4z"/>
		<path d="M40.6,2.7c-2,0-3.7,1.7-3.7,3.7v7.4c0,0,0,0,0,0l2.1-2.1V6.3c0-0.8,0.7-1.5,1.6-1.5c0.9,0,1.6,0.7,1.6,1.6v2.1l2.1-2.1
			V6.3C44.3,4.3,42.6,2.7,40.6,2.7z"/>
		<path d="M25.6,25.1C25.6,25.1,25.6,25.2,25.6,25.1l3.3-3.3c0,0-0.1,0-0.1,0.1L25.6,25.1z"/>
		<path d="M3,36.3h3c0.1,0,0.2,0,0.3,0h1.9c0.6,0,1.1-0.5,1.1-1c0-0.6-0.5-1.1-1-1.1H7.4V22.7c0-0.6-0.5-1.1-1.1-1.1
			c-0.3,0-0.5,0.1-0.7,0.3l-3.2,3.2c-0.4,0.4-0.4,1.1,0,1.5c0.4,0.4,1.1,0.4,1.5,0l1.4-1.4v9H3.1c-0.6,0-1.1,0.5-1.1,1
			C2,35.8,2.5,36.3,3,36.3z"/>
		<path d="M5.8,17.5c2,0,3.7-1.7,3.7-3.7V6.3c0-2-1.7-3.6-3.7-3.6S2.1,4.4,2.1,6.4v7.4C2.1,15.8,3.8,17.5,5.8,17.5z M4.2,6.3
			c0-0.8,0.7-1.5,1.6-1.5c0.9,0,1.6,0.7,1.6,1.6v7.4c0,0.9-0.7,1.6-1.6,1.6c-0.9,0-1.6-0.7-1.6-1.6V6.3z"/>
		<path d="M6.3,40.6c-0.3,0-0.5,0.1-0.7,0.3l-3.2,3.2c-0.4,0.4-0.4,1.1,0,1.5c0.4,0.4,1.1,0.4,1.5,0l1.4-1.4v1.2l2.1-2.1v-1.7
			C7.4,41.1,6.9,40.6,6.3,40.6z"/>
		<path d="M14.8,15.2c-0.6,0-1.1,0.5-1.1,1c0,0.6,0.5,1.1,1,1.1h3c0.1,0,0.2,0,0.3,0h2c0.6,0,1.1-0.5,1.1-1c0-0.6-0.5-1.1-1-1.1H19
			V3.7c0-0.6-0.5-1-1.1-1c-0.3,0-0.5,0.1-0.7,0.3L14,6.1c-0.4,0.4-0.4,1.1,0,1.5c0.4,0.4,1.1,0.4,1.5,0l1.4-1.4v9H14.8z"/>
		<path d="M17.4,21.6c-2,0-3.7,1.7-3.7,3.7v7.4c0,1.2,0.6,2.2,1.4,2.9l1.5-1.5c-0.5-0.3-0.8-0.8-0.8-1.4v-7.4c0-0.9,0.7-1.6,1.6-1.6
			c0.9,0,1.6,0.7,1.6,1.6v6.4l2.1-2.1v-4.3C21.1,23.3,19.4,21.6,17.4,21.6z"/>
	</g>
</g>
<g id="Layer_2" style="opacity:0.2;">
	<g>
		<path d="M9.3,54.3c0-0.1,0-0.2-0.1-0.3L8,55.3h0.2C8.8,55.3,9.3,54.8,9.3,54.3z"/>
		<path d="M55.9,25.3c0-2-1.6-3.7-3.7-3.7c-2,0-3.7,1.7-3.7,3.7v7.4c0,2,1.7,3.7,3.7,3.7s3.7-1.7,3.7-3.7V25.3z M53.8,32.7
			c0,0.9-0.7,1.6-1.6,1.6c-0.9,0-1.6-0.7-1.6-1.6v-7.4c0.1-0.9,0.7-1.6,1.6-1.6c0.9,0,1.6,0.7,1.6,1.6V32.7z"/>
		<path d="M48.5,44.3v7.4c0,2,1.7,3.7,3.7,3.7s3.7-1.7,3.7-3.7v-7.4c0-2-1.6-3.7-3.7-3.7C50.2,40.6,48.5,42.3,48.5,44.3z M53.8,44.3
			v7.4c0,0.9-0.7,1.6-1.6,1.6c-0.9,0-1.6-0.7-1.6-1.6v-7.4c0.1-0.9,0.7-1.6,1.6-1.6C53.1,42.7,53.8,43.4,53.8,44.3z"/>
		<path d="M14.8,53.2c-0.6,0-1.1,0.5-1.1,1c0,0.6,0.5,1.1,1,1.1h3c0.1,0,0.2,0,0.3,0h2c0.6,0,1.1-0.5,1.1-1c0-0.6-0.5-1.1-1-1.1H19
			v-8.9l-2.1,2.1v6.8H14.8z"/>
		<path d="M53.8,9.5v4.3c0,0.9-0.7,1.6-1.6,1.6c-0.9,0-1.6-0.7-1.6-1.6v-1.1l-2,2c0.4,1.6,1.9,2.8,3.6,2.8c2,0,3.7-1.7,3.7-3.7V7.4
			L53.8,9.5z"/>
		<path d="M29.6,36.3h1.9c0.6,0,1.1-0.5,1.1-1c0-0.6-0.5-1.1-1-1.1h-1.1v-1.4L27,36.3h2.3C29.4,36.3,29.5,36.3,29.6,36.3z"/>
		<path d="M26.4,53.2c-0.6,0-1.1,0.5-1.1,1c0,0.6,0.5,1.1,1,1.1h3c0.1,0,0.2,0,0.3,0h1.9c0.6,0,1.1-0.5,1.1-1c0-0.6-0.5-1.1-1-1.1
			h-1.1V41.6c0.1-0.5-0.4-1-1-1c-0.3,0-0.5,0.1-0.7,0.3l-3.2,3.2c-0.4,0.4-0.4,1.1,0,1.5c0.4,0.4,1.1,0.4,1.5,0l1.4-1.4v9H26.4z"/>
		<path d="M38,53.2c-0.6,0-1.1,0.5-1.1,1c0,0.6,0.5,1.1,1,1.1h3c0.1,0,0.2,0,0.3,0h1.9c0.6,0,1.1-0.5,1.1-1c0-0.6-0.5-1.1-1-1.1
			h-1.1V41.6c0.1-0.5-0.4-1-1-1c-0.3,0-0.5,0.1-0.7,0.3l-3.2,3.2c-0.4,0.4-0.4,1.1,0,1.5c0.4,0.4,1.1,0.4,1.5,0l1.4-1.4v9H38z"/>
		<path d="M37.2,26.6c0.4,0.4,1.1,0.4,1.5,0l1.4-1.4v9H38c-0.6,0-1.1,0.5-1.1,1c0,0.6,0.5,1.1,1,1.1h3c0.1,0,0.2,0,0.3,0h1.9
			c0.6,0,1.1-0.5,1.1-1c0-0.6-0.5-1.1-1-1.1h-1.1V22.7c0.1-0.4-0.2-0.8-0.5-1L37,26.3C37,26.4,37.1,26.5,37.2,26.6z"/>
	</g>
</g>
</svg>
