<?xml version="1.0" encoding="utf-8"?>
<!-- Generator: Adobe Illustrator 23.0.6, SVG Export Plug-In . SVG Version: 6.00 Build 0)  -->
<svg version="1.1" id="Layer_1" xmlns="http://www.w3.org/2000/svg" xmlns:xlink="http://www.w3.org/1999/xlink" x="0px" y="0px"
	 viewBox="0 0 58 58" style="enable-background:new 0 0 58 58;" xml:space="preserve">
<g id="surface1">
	<path d="M26.8,18.6c-0.9-4-4.9-6.5-8.9-5.6c-4,0.9-6.5,4.9-5.6,8.9c0.9,4,4.9,6.5,8.9,5.6c0,0,0,0,0,0
		C25.2,26.6,27.7,22.7,26.8,18.6C26.8,18.7,26.8,18.6,26.8,18.6z M19.5,25.6c-2.9,0-5.4-2.4-5.4-5.3c0-2.5,1.7-4.7,4.2-5.2
		c0.4-0.1,0.8-0.1,1.2-0.1c2.9,0.1,5.3,2.5,5.2,5.5c-0.1,2.4-1.7,4.4-4,5C20.3,25.5,19.9,25.6,19.5,25.6L19.5,25.6z"/>
	<path d="M53.7,8.9c-0.3,0-0.7,0.1-0.9,0.4L49.4,14c-0.8,1-2.3,1.3-3.4,0.5c-1.1-0.8-1.3-2.3-0.5-3.4l3.2-4.4
		c0.4-0.5,0.3-1.1-0.2-1.5c-0.1-0.1-0.3-0.2-0.5-0.2c-5-0.8-9.6,2.7-10.4,7.7c-0.2,1.1-0.1,2.2,0.1,3.2l-1.2,1.2l-0.8-3.4
		c-0.1-0.6-0.7-0.9-1.2-0.8h0l-3,0.7c-0.5-0.9-1.1-1.8-1.9-2.6l1.6-2.6c0.3-0.5,0.2-1.1-0.3-1.4l-4.5-2.8C26,4,25.3,4.1,25,4.6
		l-1.6,2.6c-1-0.3-2.1-0.5-3.1-0.6l-0.7-3c-0.1-0.6-0.7-0.9-1.2-0.8h0L13.2,4c-0.6,0.1-0.9,0.7-0.8,1.2c0,0,0,0,0,0l0.7,2.9
		c-0.9,0.5-1.8,1.1-2.6,1.9L7.9,8.4C7.4,8.1,6.7,8.3,6.4,8.8l-2.8,4.5c-0.3,0.5-0.2,1.1,0.3,1.4l2.6,1.6c-0.3,1-0.5,2.1-0.6,3.1
		l-3,0.7c-0.6,0.1-0.9,0.7-0.8,1.2v0l1.2,5.2c0.1,0.6,0.7,0.9,1.2,0.8h0l3-0.7c0.5,0.9,1.1,1.8,1.9,2.6l-1.6,2.6
		c-0.3,0.5-0.1,1.1,0.4,1.4l4.5,2.8c0.2,0.1,0.4,0.2,0.6,0.2h0.2c0.3-0.1,0.5-0.2,0.6-0.5l1.6-2.6c1,0.3,2.1,0.5,3.1,0.6l0.2,0.9
		l-2.4,2.4c-0.6-0.1-1.2-0.2-1.9-0.2c-5.1,0-9.1,4.1-9.1,9.2c0,1.6,0.4,3.2,1.3,4.6c0.3,0.5,0.9,0.7,1.4,0.4
		c0.1-0.1,0.2-0.2,0.3-0.3l3.6-4.8c0.8-1.1,2.3-1.3,3.4-0.5c1.1,0.8,1.3,2.2,0.6,3.3l-3.4,4.6c-0.3,0.5-0.2,1.1,0.3,1.4
		c0.1,0.1,0.3,0.2,0.4,0.2c0.5,0.1,1,0.1,1.4,0.1c2.4,0,4.8-1,6.5-2.7c2.2-2.2,3.1-5.3,2.5-8.3l21-21c0.6,0.1,1.2,0.2,1.9,0.2
		c5.1,0,9.1-4.1,9.1-9.2c0-1.7-0.5-3.3-1.3-4.7C54.3,9.1,54,9,53.7,8.9z M15.6,31c-0.5-0.2-1,0-1.2,0.4l-1.5,2.4l-2.7-1.7l1.5-2.4
		c0.3-0.4,0.2-1-0.2-1.3c-1-1-1.8-2.1-2.4-3.4c-0.2-0.4-0.7-0.7-1.2-0.6l-2.7,0.6L4.5,22l2.7-0.6c0.5-0.1,0.8-0.5,0.8-1
		c0-1.4,0.2-2.8,0.7-4.1c0.2-0.5,0-1-0.4-1.2l-2.4-1.5l1.7-2.7l2.4,1.5c0.4,0.3,1,0.2,1.3-0.1c1-1,2.1-1.8,3.4-2.4
		c0.4-0.2,0.7-0.7,0.6-1.2l-0.6-2.7l3.1-0.7l0.6,2.7c0.1,0.5,0.5,0.8,1,0.8c1.4,0,2.8,0.2,4.1,0.7c0.5,0.2,1,0,1.2-0.4l1.5-2.4
		L29,8.3l-1.5,2.4c-0.3,0.4-0.2,1,0.2,1.3c1,1,1.8,2.1,2.4,3.4c0.2,0.4,0.7,0.7,1.2,0.6l2.7-0.6l0.8,3.7l-14,14l-0.1-0.4
		c-0.1-0.5-0.5-0.8-1-0.8C18.3,31.7,16.9,31.5,15.6,31z M51.7,19.2c-1.3,1.3-3.1,2.1-5,2.1c-0.6,0-1.3-0.1-1.9-0.3
		c-0.4-0.1-0.8,0-1,0.3L21.9,43.1c-0.3,0.3-0.4,0.7-0.3,1c0.7,2.5,0,5.1-1.8,6.9c-1.1,1.1-2.6,1.9-4.2,2l2.2-3c1.5-2,1-4.8-0.9-6.3
		c-0.8-0.6-1.7-0.9-2.7-0.9c-1.4,0-2.8,0.7-3.6,1.8L8,48.1c-1.1-3.7,0.9-7.7,4.7-8.8c1.3-0.4,2.7-0.4,4-0.1c0.4,0.1,0.8,0,1-0.3
		l21.9-21.9c0.3-0.3,0.4-0.7,0.3-1c-0.7-2.5,0-5.1,1.8-6.9c1.1-1.1,2.6-1.8,4.2-2l-2,2.8c-1.5,2-1,4.8,0.9,6.3s4.8,1,6.3-0.9
		l2.4-3.2C54.2,14.5,53.5,17.3,51.7,19.2z"/>
</g>
</svg>
