<?xml version="1.0" encoding="utf-8"?>
<!-- Generator: Adobe Illustrator 23.0.6, SVG Export Plug-In . SVG Version: 6.00 Build 0)  -->
<svg version="1.1" id="Layer_1" xmlns="http://www.w3.org/2000/svg" xmlns:xlink="http://www.w3.org/1999/xlink" x="0px" y="0px"
	 viewBox="0 0 58 58" style="enable-background:new 0 0 58 58;" xml:space="preserve">
<g>
	<g>
		<path d="M56.2,33.6C56.2,33.6,56.2,33.6,56.2,33.6C56.2,33.5,56.2,33.5,56.2,33.6c0-0.1,0-0.1,0-0.1c0,0,0,0,0,0c0,0,0,0,0,0
			c0,0,0,0,0,0c0,0,0,0,0,0c0,0,0,0,0-0.1c0,0,0,0,0,0l-6.3-14h4.6c0.8,0,1.5-0.7,1.5-1.5v-1.9c0-0.8-0.7-1.5-1.5-1.5H47
			c-1.4,0-2.7-0.6-3.7-1.6c-1.7-1.8-4.1-2.8-6.6-2.8h-5.1V8.3c0.9-0.8,1.5-1.9,1.5-3.2C33.1,2.8,31.3,1,29,1s-4.1,1.9-4.1,4.1
			c0,1.3,0.6,2.4,1.5,3.2v1.8h-5.1c-2.5,0-4.9,1-6.6,2.8c-1,1-2.3,1.6-3.7,1.6H3.5c-0.8,0-1.5,0.7-1.5,1.5v1.9
			c0,0.8,0.7,1.5,1.5,1.5h4.6l-6.3,14c0,0,0,0,0,0c0,0,0,0,0,0.1c0,0,0,0,0,0c0,0,0,0,0,0c0,0,0,0,0,0c0,0,0,0,0,0c0,0,0,0,0,0
			c0,0,0,0,0,0c0,0,0,0,0,0.1c0,0,0,0,0,0v0.8c0,4,3.3,7.3,7.3,7.3h0.6c4,0,7.3-3.3,7.3-7.3v-0.8c0,0,0,0,0,0c0,0,0,0,0-0.1
			c0,0,0,0,0,0c0,0,0,0,0,0c0,0,0,0,0,0c0,0,0,0,0,0c0,0,0,0,0,0c0,0,0,0,0,0c0,0,0,0,0-0.1c0,0,0,0,0,0l-6.3-14h0.6
			c2.5,0,4.9-1,6.6-2.8c1-1,2.3-1.6,3.7-1.6h4.8v32.3H18c-1.4,0-2.5,1.1-2.5,2.5v1.4h-1.4c-1.4,0-2.5,1.1-2.5,2.5v2.6
			c0,0.4,0.4,0.8,0.8,0.8h33.2c0.4,0,0.8-0.4,0.8-0.8v-2.6c0-1.4-1.1-2.5-2.5-2.5h-1.4v-1.4c0-1.4-1.1-2.5-2.5-2.5h-8.3V23.8
			c0-0.4-0.4-0.8-0.8-0.8c-0.4,0-0.8,0.4-0.8,0.8v23.4h-2V14.9h2v3.7c0,0.4,0.4,0.8,0.8,0.8c0.4,0,0.8-0.4,0.8-0.8v-3.7h5.1
			c1.2,0,2.3,0.5,3.1,1.3c1.9,2,4.4,3,7.1,3h0.3l-6.3,14c0,0,0,0,0,0c0,0,0,0,0,0.1c0,0,0,0,0,0c0,0,0,0,0,0c0,0,0,0,0,0
			c0,0,0,0,0,0c0,0,0,0,0,0c0,0,0,0,0,0c0,0,0,0,0,0.1c0,0,0,0,0,0v0.8c0,4,3.3,7.3,7.3,7.3h0.6c4,0,7.3-3.3,7.3-7.3L56.2,33.6
			C56.2,33.6,56.2,33.6,56.2,33.6z M29,2.6c1.4,0,2.5,1.1,2.5,2.5c0,0.9-0.5,1.7-1.2,2.1c0,0-0.1,0-0.1,0.1c0,0,0,0,0,0
			c0,0-0.1,0-0.1,0.1c0,0,0,0,0,0c0,0-0.1,0-0.1,0c0,0,0,0,0,0c0,0-0.1,0-0.1,0c0,0,0,0,0,0c0,0-0.1,0-0.1,0c0,0,0,0,0,0
			c-0.1,0-0.1,0-0.2,0c0,0,0,0,0,0c0,0-0.1,0-0.1,0c0,0,0,0,0,0c-0.1,0-0.1,0-0.2,0c-0.1,0-0.1,0-0.2,0c0,0,0,0,0,0c0,0-0.1,0-0.1,0
			c0,0,0,0,0,0c-0.1,0-0.1,0-0.2,0c0,0,0,0,0,0c0,0-0.1,0-0.1,0c0,0,0,0,0,0c0,0-0.1,0-0.1,0c0,0,0,0,0,0c0,0-0.1,0-0.1,0
			c0,0,0,0,0,0c0,0-0.1,0-0.1-0.1c0,0,0,0-0.1,0c0,0-0.1,0-0.1-0.1C27,6.7,26.5,6,26.5,5.1C26.5,3.7,27.6,2.6,29,2.6z M30,9.1v1h-2
			v-1c0,0,0,0,0,0c0.1,0,0.1,0,0.2,0c0,0,0,0,0.1,0c0.1,0,0.1,0,0.2,0c0,0,0,0,0,0c0.2,0,0.3,0,0.5,0c0.1,0,0.2,0,0.3,0c0,0,0,0,0,0
			c0.1,0,0.2,0,0.2,0c0,0,0,0,0,0c0.1,0,0.1,0,0.2,0c0,0,0,0,0.1,0C29.8,9.1,29.9,9.1,30,9.1C30,9.1,30,9.1,30,9.1z M9.7,40.1H9.1
			c-3.1,0-5.7-2.6-5.7-5.7h12.1C15.4,37.6,12.9,40.1,9.7,40.1z M15,32.8H3.8l5.6-12.4L15,32.8z M40,48.8c0.5,0,0.9,0.4,0.9,0.9v1.4
			H23.9c-0.4,0-0.8,0.4-0.8,0.8s0.4,0.8,0.8,0.8h20c0.5,0,0.9,0.4,0.9,0.9v1.8H13.2v-1.8c0-0.5,0.4-0.9,0.9-0.9h4.6
			c0.4,0,0.8-0.4,0.8-0.8s-0.4-0.8-0.8-0.8h-1.6v-1.4c0-0.5,0.4-0.9,0.9-0.9H40z M47,17.7c-2.3,0-4.4-0.9-6-2.5
			c-1.1-1.2-2.7-1.8-4.3-1.8H21.5c-1.9,0-3.6,0.7-4.9,2.1c-1.4,1.4-3.3,2.3-5.4,2.3H3.7v-1.6H11c1.9,0,3.6-0.7,4.9-2.1
			c1.4-1.4,3.3-2.3,5.4-2.3h15.5c2.1,0,4,0.8,5.4,2.3c1.3,1.4,3,2.1,4.9,2.1h7.3v1.6L47,17.7L47,17.7z M48.6,20.4l5.6,12.4H43
			L48.6,20.4z M48.9,40.1h-0.6c-3.1,0-5.7-2.6-5.7-5.7h12.1C54.6,37.6,52,40.1,48.9,40.1z"/>
	</g>
</g>
</svg>
