<?xml version="1.0" encoding="utf-8"?>
<!-- Generator: Adobe Illustrator 23.0.3, SVG Export Plug-In . SVG Version: 6.00 Build 0)  -->
<svg version="1.1" id="Layer_1" xmlns="http://www.w3.org/2000/svg" xmlns:xlink="http://www.w3.org/1999/xlink" x="0px" y="0px"
	 viewBox="0 0 68 68" style="enable-background:new 0 0 68 68;" xml:space="preserve">
<path d="M53.7,57.1c0,1.4-1.1,2.5-2.5,2.5H15.9c-1.4,0-2.5-1.1-2.5-2.5V32.5c0-1.4,1.1-2.5,2.5-2.5h35.2c1.4,0,2.5,1.1,2.5,2.5v23.6
	h0.1V57.1z M24.1,18.1c0-5.2,4.3-9.5,9.5-9.5c5.2,0,9.5,4.3,9.5,9.5v9.5h-19V18.1z M51.3,27.5h-5.8v-9.4c0-6.6-5.3-11.9-11.9-11.9
	s-11.9,5.3-11.9,11.9v9.5h-5.8c-2.7,0-4.9,2.2-4.9,4.9v24.6c0,2.7,2.2,4.9,4.9,4.9h35.3c2.7,0,4.9-2.2,4.9-4.9V32.5
	c0-1.3-0.5-2.6-1.4-3.5C53.8,28,52.6,27.5,51.3,27.5"/>
<path d="M33.6,43.6c-1.5,0-2.8-1.3-2.8-2.8c0-1.5,1.3-2.8,2.8-2.8c1.5,0,2.8,1.3,2.8,2.8C36.4,42.3,35.1,43.6,33.6,43.6 M33.6,35.5
	c-2.9,0-5.2,2.3-5.2,5.2c0,2.2,1.3,4.1,3.3,4.9l0.6,0.2v6.9c0,0.7,0.5,1.3,1.2,1.3c0.7,0,1.2-0.5,1.2-1.3v-6.9l0.6-0.2
	c2-0.8,3.3-2.7,3.3-4.9C38.8,37.9,36.5,35.5,33.6,35.5"/>
</svg>
