<?xml version="1.0" encoding="utf-8"?>
<!-- Generator: Adobe Illustrator 23.0.3, SVG Export Plug-In . SVG Version: 6.00 Build 0)  -->
<svg version="1.1" id="Layer_1" xmlns="http://www.w3.org/2000/svg" xmlns:xlink="http://www.w3.org/1999/xlink" x="0px" y="0px"
	 viewBox="0 0 68 68" style="enable-background:new 0 0 68 68;" xml:space="preserve">
<path d="M36.1,30.5c-0.7-0.7-1.5-1-2.5-1h0c-1.9,0-3.5,1.6-3.5,3.5l0,2.2c-1.6-1.1-2.6-2.9-2.6-5c0-3.3,2.7-6,6-6c3.3,0,6,2.7,6,6
	c0,1.9-0.9,3.6-2.4,4.8l0-1.9C37.1,32.1,36.7,31.2,36.1,30.5 M41.8,60.6L41.8,60.6l-4,0c-2.5,0-4.8-1.1-6.3-3l-6.4-7.7
	c-0.2-0.3-0.3-0.6-0.3-1c0.1-0.4,0.3-0.7,0.5-0.9c0.3-0.2,0.5-0.2,0.7-0.2h0c0.3,0,0.6,0.1,0.9,0.4l2.6,2.6c0.5,0.5,1.2,0.6,1.8,0.4
	c0.6-0.3,1-0.9,1-1.6l0-16.6c0-0.7,0.5-1.2,1.2-1.2h0c0.3,0,0.6,0.1,0.9,0.3c0.2,0.2,0.3,0.5,0.3,0.9l0,11.4c0,0.6,0.5,1.1,1.1,1.1
	c0.7,0,1.1-0.5,1.1-1.1l0-1.6c0-0.3,0.1-0.6,0.4-0.9c0.2-0.2,0.5-0.4,0.8-0.4h0c0.7,0,1.2,0.5,1.2,1.2l0,3c0,0.6,0.5,1.1,1.1,1.1h0
	c0.3,0,0.6-0.1,0.8-0.3c0.2-0.2,0.3-0.5,0.3-0.8l0-1.6c0-0.3,0.1-0.6,0.4-0.9c0.2-0.2,0.5-0.4,0.8-0.4h0c0.3,0,0.6,0.1,0.8,0.4
	c0.2,0.2,0.4,0.5,0.4,0.9l0,3c0,0.3,0.1,0.6,0.3,0.8c0.2,0.2,0.5,0.3,0.8,0.3c0.3,0,0.6-0.1,0.8-0.3c0.2-0.2,0.3-0.5,0.3-0.8l0-1.6
	c0-0.7,0.5-1.2,1.2-1.2c0.7,0,1.2,0.5,1.2,1.2l0,7.9c0,1.9-0.7,3.7-2,5C45.5,59.9,43.7,60.6,41.8,60.6 M44.8,10
	c1.8,0,3.2,1.4,3.2,3.2c0,1.7-1.4,3.2-3.2,3.2c-1.7,0-3.2-1.4-3.2-3.2C41.6,11.5,43,10,44.8,10 M28.1,11.8c0,2.5-2.1,4.6-4.6,4.6
	c-2.5,0-4.6-2.1-4.6-4.6c0-2.5,2.1-4.6,4.6-4.6C26.1,7.2,28.1,9.3,28.1,11.8 M51.1,45.7c0-0.9-0.4-1.8-1-2.5c-0.7-0.7-1.5-1-2.5-1
	c-0.6,0-1.1,0.1-1.6,0.4c-0.6-1.1-1.8-1.8-3.1-1.8h0c-0.6,0-1.1,0.1-1.6,0.4c-0.6-1.1-1.8-1.8-3.1-1.8h0c-0.4,0-0.8,0.1-1.2,0.2
	l0-2.1c2.7-1.4,4.5-4.2,4.5-7.3c0-2.3-1-4.4-2.6-6l4.3-5.9c0.5,0.1,1,0.2,1.5,0.2c2.9,0,5.3-2.4,5.3-5.3s-2.4-5.3-5.3-5.3
	s-5.3,2.4-5.3,5.3c0,1.6,0.7,3.1,1.9,4.1L37.2,23c-2.1-1.1-4.5-1.2-6.6-0.4l-2.9-5.4c1.7-1.3,2.6-3.2,2.6-5.3c0-3.7-3-6.7-6.7-6.7
	c-3.7,0-6.7,3-6.7,6.7c0,3.7,3,6.7,6.7,6.7c0.8,0,1.5-0.1,2.2-0.4l2.9,5.4c-2.1,1.5-3.4,4-3.4,6.6c0,3.2,1.9,6.1,4.8,7.4l0,10.6
	l-1.6-1.6c-1.2-1.2-3.1-1.4-4.4-0.4c-0.8,0.6-1.4,1.4-1.5,2.4c-0.1,1,0.1,2,0.8,2.8l6.4,7.7c2,2.4,4.9,3.8,8.1,3.8l4,0h0
	c2.5,0,4.8-1,6.6-2.7c1.8-1.8,2.7-4.1,2.7-6.6L51.1,45.7z"/>
</svg>
