<?xml version="1.0" encoding="utf-8"?>
<!-- Generator: Adobe Illustrator 23.0.3, SVG Export Plug-In . SVG Version: 6.00 Build 0)  -->
<svg version="1.1" id="Layer_1" xmlns="http://www.w3.org/2000/svg" xmlns:xlink="http://www.w3.org/1999/xlink" x="0px" y="0px"
	 viewBox="0 0 68 68" style="enable-background:new 0 0 68 68;" xml:space="preserve">
<path d="M56.7,33.3c0,4.7-1.5,9.7-4.2,14.2l-0.2,0.3L35.7,31.1l21-21.1V33.3z M50.8,50c-0.3,0.4-0.6,0.8-0.9,1.1
	c-4.5,5.5-10.2,8.5-16,8.5s-11.5-3-16-8.5c-0.3-0.4-0.6-0.8-0.9-1.1L17,49.8l0.2-0.2L34,32.8l17,17L50.8,50z M15.7,47.7l-0.2-0.3
	c-2.7-4.5-4.2-9.6-4.2-14.2V10.1l21,21L15.7,47.7z M55,8.4l-21,21l-21-21H55z M57.9,6H10C9.4,6,8.9,6.6,8.9,7.2v26.1
	c0,6.6,2.7,13.7,7.3,19.3c5,6.1,11.3,9.4,17.8,9.4c6.5,0,12.9-3.3,17.8-9.4c4.6-5.7,7.3-12.7,7.3-19.3V7.2C59.1,6.6,58.5,6,57.9,6"
	/>
</svg>
