<?xml version="1.0" encoding="utf-8"?>
<!-- Generator: Adobe Illustrator 23.0.6, SVG Export Plug-In . SVG Version: 6.00 Build 0)  -->
<svg version="1.1" id="Layer_1" xmlns="http://www.w3.org/2000/svg" xmlns:xlink="http://www.w3.org/1999/xlink" x="0px" y="0px"
	 viewBox="0 0 68 68" style="enable-background:new 0 0 68 68;" xml:space="preserve">
<g>
	<path d="M18.6,27L1.5,36.9v19.7l17.1,9.9l17.1-9.9V36.9L18.6,27z M32.3,37.5l-13.6,7.9L5,37.5l13.6-7.9L32.3,37.5z M3.9,39.5
		l13.6,7.9v15.7L3.9,55.3V39.5z M19.8,63.1V47.4l13.6-7.9v15.7L19.8,63.1z"/>
</g>
<g>
	<path d="M19.1,23.4c-5.8,0-10.5-4.7-10.5-10.5S13.3,2.5,19.1,2.5c5.8,0,10.5,4.7,10.5,10.5S24.9,23.4,19.1,23.4z M19.1,4.5
		c-4.7,0-8.5,3.8-8.5,8.5s3.8,8.5,8.5,8.5s8.5-3.8,8.5-8.5S23.7,4.5,19.1,4.5z"/>
</g>
<g>
	<path d="M54.6,23.4c-5.8,0-10.5-4.7-10.5-10.5S48.8,2.5,54.6,2.5C60.3,2.5,65,7.2,65,13S60.3,23.4,54.6,23.4z M54.6,4.5
		c-4.7,0-8.5,3.8-8.5,8.5s3.8,8.5,8.5,8.5c4.7,0,8.5-3.8,8.5-8.5S59.2,4.5,54.6,4.5z"/>
</g>
<g>
	<path d="M54.6,59.5c-5.8,0-10.5-4.7-10.5-10.5c0-5.8,4.7-10.5,10.5-10.5C60.3,38.6,65,43.3,65,49C65,54.8,60.3,59.5,54.6,59.5z
		 M54.6,40.6c-4.7,0-8.5,3.8-8.5,8.5c0,4.7,3.8,8.5,8.5,8.5c4.7,0,8.5-3.8,8.5-8.5C63,44.4,59.2,40.6,54.6,40.6z"/>
</g>
<g>
	<path d="M19.1,17.2L19.1,17.2c-0.5,0-0.9-0.4-0.9-0.9V9.7c0-0.5,0.4-0.9,0.9-0.9h0c0.5,0,0.9,0.4,0.9,0.9v6.6
		C20,16.8,19.6,17.2,19.1,17.2z"/>
</g>
<g>
	<path d="M18.6,29.4L18.6,29.4c-0.5,0-0.9-0.4-0.9-0.9v-5.7c0-0.5,0.4-0.9,0.9-0.9h0c0.5,0,0.9,0.4,0.9,0.9v5.7
		C19.5,29,19.1,29.4,18.6,29.4z"/>
</g>
<g>
	<path d="M35,48.5L35,48.5c0-0.5,0.4-0.9,0.9-0.9h8c0.5,0,0.9,0.4,0.9,0.9l0,0c0,0.5-0.4,0.9-0.9,0.9h-8C35.4,49.4,35,49,35,48.5z"
		/>
</g>
<g>
	<path d="M30.5,35.5L30.5,35.5c-0.4-0.4-0.4-1-0.1-1.3l15.3-15.3c0.3-0.3,0.9-0.3,1.2,0l0.1,0.1c0.3,0.3,0.3,0.9,0,1.2L31.7,35.5
		C31.4,35.8,30.8,35.8,30.5,35.5z"/>
</g>
<g>
	<path d="M54.6,17.2L54.6,17.2c-0.5,0-0.9-0.4-0.9-0.9V9.7c0-0.5,0.4-0.9,0.9-0.9l0,0c0.5,0,0.9,0.4,0.9,0.9v6.6
		C55.5,16.8,55.1,17.2,54.6,17.2z"/>
</g>
<g>
	<path d="M54.6,53.2L54.6,53.2c-0.5,0-0.9-0.4-0.9-0.9v-6.6c0-0.5,0.4-0.9,0.9-0.9l0,0c0.5,0,0.9,0.4,0.9,0.9v6.6
		C55.5,52.8,55.1,53.2,54.6,53.2z"/>
</g>
</svg>
