<?xml version="1.0" encoding="utf-8"?>
<!-- Generator: Adobe Illustrator 23.0.3, SVG Export Plug-In . SVG Version: 6.00 Build 0)  -->
<svg version="1.1" id="Layer_1" xmlns="http://www.w3.org/2000/svg" xmlns:xlink="http://www.w3.org/1999/xlink" x="0px" y="0px"
	 viewBox="0 0 44 44" style="enable-background:new 0 0 44 44;" xml:space="preserve">
<path d="M26.1,19.4c-1.3,0-2.3,1.1-2.3,2.5c0,1.4,1,2.5,2.3,2.5c1.3,0,2.3-1.1,2.3-2.5C28.4,20.5,27.4,19.4,26.1,19.4 M18,19.4
	c-1.3,0-2.3,1.1-2.3,2.5c0,1.4,1,2.5,2.3,2.5c1.3,0,2.3-1.1,2.3-1.8c0,0,0-0.7,0-1.4C20.3,20.5,19.2,19.4,18,19.4"/>
<path d="M30.8,29.8c0,0-2.5,0.1-2.9-0.4c-0.4-0.5-0.4-0.5-0.7-0.9c0,0-0.3-0.4,1.1-0.8c1.5-0.4,1.5-0.4,2-1.3c0,0,0.6-0.9,0.1-0.6
	c-0.5,0.3-1.3,0.7-2.1,1c-1.1,0.5-2.2,0.8-3.2,1c-2.1,0.4-4.1,0.3-5.8,0C18,27.4,17,27,16,26.7c-0.5-0.2-1.1-0.4-1.6-0.8
	c-0.1,0-0.1-0.1-0.2-0.1c0,0-0.1,0-0.1-0.1c0,0,0,0-0.2-0.1c-0.2-0.1-0.2-0.1-0.3-0.2c0,0-0.1-0.1,0.4,0.8c0.5,0.9,0.5,0.9,2,1.3
	c0,0,1.4,0.4,1.1,0.8c-0.3,0.4-0.3,0.4-0.7,0.9c0,0-0.4,0.5-2.9,0.4C11,29.7,11,29.7,10,28.1c0,0-0.9-1.6-0.9-5.2
	c0-3.6,0-3.6,1.6-6.5c0,0,1.6-2.9,3.2-4.1c1.6-1.2,4.7-1.1,4.7-1.1l0.1,0.1c0,0,0.1,0.1-1.9,0.7c-2,0.6-2,0.6-2.9,1.5
	c0,0-0.9,0.9-0.7,0.7c0.2-0.1,0.2-0.1,1.1-0.5c2.4-1,4.3-1.3,5.1-1.4c0.1,0,0.2,0,0.4,0c1.4-0.2,2.9-0.2,4.5,0
	c2.1,0.2,4.4,0.9,5.6,1.5c0,0,1.2,0.6,0.3-0.2c-0.9-0.8-0.9-0.8-4.7-2l0.2-0.2c0,0,0.2-0.2,1.7-0.2c1.5,0,1.5,0,3.1,1.2
	c0,0,1.6,1.2,3.2,4.1c1.6,2.9,1.6,2.9,1.6,6.5c0,0,0,3.6-0.9,5.2C33.3,29.7,33.3,29.7,30.8,29.8 M37,0.7H7c-2.5,0-4.6,2.1-4.6,4.6
	v30.2c0,2.5,2.1,4.6,4.6,4.6h25.3l-1.2-4.1l2.9,2.7l2.7,2.5l2.4,2.1c0,0,2.4,2.1,2.4-15.8V5.3C41.5,2.8,39.5,0.7,37,0.7"/>
</svg>
