<?xml version="1.0" encoding="utf-8"?>
<!-- Generator: Adobe Illustrator 23.0.3, SVG Export Plug-In . SVG Version: 6.00 Build 0)  -->
<svg version="1.1" id="Layer_1" xmlns="http://www.w3.org/2000/svg" xmlns:xlink="http://www.w3.org/1999/xlink" x="0px" y="0px"
	 viewBox="0 0 22 22" style="enable-background:new 0 0 22 22;" xml:space="preserve">
<path d="M19.9,2.8H2.1C1,2.8,0,3.7,0,4.9v12.2c0,1.2,1,2.1,2.1,2.1h17.7c1.2,0,2.1-1,2.1-2.1V4.9C22,3.7,21,2.8,19.9,2.8 M1.4,7.1
	L6.1,11l-4.7,4.7V7.1z M19.9,17.8H2.1c-0.2,0-0.4-0.1-0.5-0.3l5.6-5.6l3.3,2.7c0,0,0.1,0,0.1,0.1c0,0,0,0,0.1,0
	c0.1,0,0.2,0.1,0.3,0.1h0c0.1,0,0.2,0,0.3-0.1c0,0,0,0,0.1,0c0,0,0.1,0,0.1-0.1l3.3-2.7l5.7,5.7C20.3,17.7,20.1,17.8,19.9,17.8
	 M20.6,15.7L15.9,11l4.7-3.9V15.7z M20.6,5.3C20.6,5.3,20.5,5.3,20.6,5.3L11,13.1L1.5,5.3c0,0,0,0-0.1,0V4.9c0-0.4,0.3-0.7,0.7-0.7
	h17.7c0.4,0,0.7,0.3,0.7,0.7V5.3z"/>
</svg>
