<?xml version="1.0" encoding="utf-8"?>
<!-- Generator: Adobe Illustrator 23.0.3, SVG Export Plug-In . SVG Version: 6.00 Build 0)  -->
<svg version="1.1" id="Layer_1" xmlns="http://www.w3.org/2000/svg" xmlns:xlink="http://www.w3.org/1999/xlink" x="0px" y="0px"
	 viewBox="0 0 44 44" style="enable-background:new 0 0 44 44;" xml:space="preserve">
<path d="M26.2,22L26.2,22h-2.7v9.8h-4.1V22h-1.9v-3.5h1.9v-2.2c0-1.6,0.8-4.1,4.1-4.1l3,0v3.4h-2.2c-0.4,0-0.9,0.2-0.9,0.9v2h3.1
	L26.2,22z M22,2.4C11.2,2.4,2.4,11.2,2.4,22c0,10.8,8.8,19.6,19.6,19.6c10.8,0,19.6-8.8,19.6-19.6C41.6,11.2,32.8,2.4,22,2.4"/>
</svg>
