<?xml version="1.0" encoding="utf-8"?>
<!-- Generator: Adobe Illustrator 23.0.6, SVG Export Plug-In . SVG Version: 6.00 Build 0)  -->
<svg version="1.1" id="Layer_1" xmlns="http://www.w3.org/2000/svg" xmlns:xlink="http://www.w3.org/1999/xlink" x="0px" y="0px"
	 viewBox="0 0 30 30" style="enable-background:new 0 0 30 30;" xml:space="preserve">
<path d="M23.2,27.5c-1.9,0-3.5-1.6-3.5-3.5s1.6-3.5,3.5-3.5s3.5,1.6,3.5,3.5S25.1,27.5,23.2,27.5 M6.8,18.5c-1.9,0-3.5-1.6-3.5-3.5
	s1.6-3.5,3.5-3.5s3.5,1.6,3.5,3.5S8.7,18.5,6.8,18.5 M23.2,2.5c1.9,0,3.5,1.6,3.5,3.5s-1.6,3.5-3.5,3.5S19.7,7.9,19.7,6
	S21.3,2.5,23.2,2.5 M23.2,19.1c-1.6,0-3,0.8-4,2l-3.9-2.2c0,0-3.9-2.2-3.8-2.4c0.1-0.3,0.2-0.8,0.2-1.4c0-0.6-0.1-1.2-0.3-1.7
	l3.9-2.2c0,0,3.9-2.2,4.4-1.6c0.5,0.6,1.9,1.4,3.5,1.4c2.7,0,5-2.2,5-5s-2.2-5-5-5c-2.7,0-5,2.2-5,5c0,0.6,0.1,1.2,0.3,1.7l-3.9,2.2
	c0,0-3.9,2.2-4.3,1.6C9.9,10.8,8.4,10,6.8,10c-2.7,0-5,2.2-5,5s2.2,5,5,5c1.6,0,3.1-0.8,4-2l3.9,2.2c0,0,3.9,2.2,3.8,2.4
	c-0.1,0.3-0.2,0.8-0.2,1.4c0,2.7,2.2,5,5,5c2.7,0,5-2.2,5-3.6c0,0,0-1.4,0-2.7C28.2,21.3,25.9,19.1,23.2,19.1"/>
</svg>
