<?xml version="1.0" encoding="utf-8"?>
<!-- Generator: Adobe Illustrator 23.0.3, SVG Export Plug-In . SVG Version: 6.00 Build 0)  -->
<svg version="1.1" id="Layer_1" xmlns="http://www.w3.org/2000/svg" xmlns:xlink="http://www.w3.org/1999/xlink" x="0px" y="0px"
	 viewBox="0 0 68 68" style="enable-background:new 0 0 68 68;" xml:space="preserve">
<path d="M52.7,38.3c-0.9-5-3.8-9.3-7.9-12.1c0.1-0.3,0.1-0.6,0.1-1c0-1.9-1.3-3.5-3.1-3.9c-0.6-3.7-2.3-7.1-4.9-9.9
	c0.2-0.5,0.4-1.1,0.4-1.6c0-0.5-0.1-1-0.3-1.5C39.4,7,42.1,6.3,45,6.3c3,0,5.8,0.8,8.2,2.1C53.1,8.9,53,9.3,53,9.8
	c0,2.2,1.8,4.1,4.1,4.1c0.6,0,1.3-0.2,1.8-0.4c2,2.8,3.1,6.1,3.1,9.8C62,29.6,58.3,35.4,52.7,38.3 M38.5,58.2
	c-0.6-1.5-2.1-2.5-3.8-2.5c-1.8,0-3.3,1.2-3.9,2.8c-7.6-1.4-13.5-8-13.9-15.9c5,1.7,10.5,1.1,15-1.4c0.7,0.6,1.7,1,2.7,1
	c1.2,0,2.3-0.6,3.1-1.4c4.1,1.7,8.7,1.9,13.1,0.5c0,0.2,0,0.4,0,0.5C51,49.7,45.7,56.2,38.5,58.2 M34.8,61.5c-0.9,0-1.7-0.8-1.7-1.7
	s0.8-1.7,1.7-1.7s1.7,0.8,1.7,1.7S35.7,61.5,34.8,61.5 M6,24.5c0-4.2,1.5-8.2,4.3-11.3c0.6,0.4,1.4,0.7,2.2,0.7
	c2.2,0,4.1-1.8,4.1-4.1c0-0.3-0.1-0.7-0.1-1c2-0.8,4.2-1.3,6.5-1.3c2.1,0,4.3,0.4,6.2,1.2c-0.1,0.3-0.2,0.7-0.2,1.1
	c0,0.8,0.2,1.5,0.6,2.1c-2.1,2.8-3.3,6-3.6,9.4c-1.7,0.5-3,2-3,3.9c0,0.3,0,0.6,0.1,0.9c-4.4,3.1-7.4,7.9-8.1,13.3
	C9.5,36.5,6,30.8,6,24.5 M12.6,8.1c0.9,0,1.7,0.8,1.7,1.7c0,0.9-0.8,1.7-1.7,1.7s-1.7-0.8-1.7-1.7C10.9,8.9,11.7,8.1,12.6,8.1
	 M33.1,8.1c0.9,0,1.7,0.8,1.7,1.7c0,0.9-0.8,1.7-1.7,1.7s-1.7-0.8-1.7-1.7C31.4,8.9,32.2,8.1,33.1,8.1 M37.4,23.2
	c-2.3-0.4-4.6-0.4-6.8,0c-0.5-0.9-1.4-1.5-2.4-1.8c0.3-2.9,1.4-5.6,3.1-8c0.6,0.3,1.2,0.5,1.9,0.5c0.9,0,1.7-0.3,2.4-0.8
	c2.1,2.3,3.6,5.2,4.1,8.3C38.7,21.7,37.9,22.3,37.4,23.2 M40.9,27c-0.9,0-1.7-0.8-1.7-1.7c0-0.9,0.8-1.7,1.7-1.7
	c0.9,0,1.7,0.8,1.7,1.7C42.6,26.2,41.8,27,40.9,27 M33.1,38.2c0,0,0-0.1,0-0.1c0,0,0,0,0,0c0,0,0,0,0,0c0.1-0.9,0.8-1.6,1.7-1.6
	c0.9,0,1.7,0.8,1.7,1.7c0,0.9-0.8,1.7-1.7,1.7S33.1,39.2,33.1,38.2 M31.2,25.3C31.2,25.2,31.2,25.2,31.2,25.3
	c1.9-0.4,3.8-0.4,5.6-0.1c0,0,0,0.1,0,0.1c0,1.7,1,3.1,2.5,3.7c-0.6,2-1.5,3.9-2.7,5.6c-0.5-0.3-1.2-0.4-1.8-0.4
	c-0.8,0-1.5,0.2-2.1,0.6c-1.6-1.7-2.8-3.7-3.6-6C30.3,28.2,31.2,26.8,31.2,25.3 M27.1,23.6c0.9,0,1.7,0.8,1.7,1.7
	c0,0.9-0.8,1.7-1.7,1.7c-0.9,0-1.7-0.8-1.7-1.7C25.4,24.3,26.2,23.6,27.1,23.6 M27,29.3c0.9,2.6,2.3,5,4.2,7
	c-0.3,0.6-0.5,1.2-0.5,1.9c0,0.4,0.1,0.9,0.2,1.3c-2.4,1.3-5.1,2-7.9,2c-2,0-4-0.4-5.9-1.1c0.4-5,3.1-9.5,7.1-12.3
	C24.9,28.8,25.9,29.3,27,29.3 M43.8,28.1c3.7,2.6,6.2,6.6,7,11.1c-3.9,1.4-8.2,1.3-12-0.2c0-0.2,0.1-0.5,0.1-0.7
	c0-0.8-0.2-1.6-0.7-2.2c1.5-2,2.6-4.3,3.3-6.7C42.3,29.1,43.2,28.7,43.8,28.1 M57,8.1c0.9,0,1.7,0.8,1.7,1.7c0,0.9-0.8,1.7-1.7,1.7
	c-0.9,0-1.7-0.8-1.7-1.7C55.3,8.9,56.1,8.1,57,8.1 M64.1,23.2c0-4.2-1.4-8-3.7-11.2c0.4-0.6,0.7-1.4,0.7-2.2c0-2.2-1.8-4.1-4.1-4.1
	c-1,0-1.9,0.4-2.6,0.9c-2.8-1.6-6-2.5-9.5-2.5c-3.3,0-6.5,0.9-9.4,2.5c-0.7-0.5-1.6-0.9-2.5-0.9c-1.1,0-2.1,0.4-2.8,1.2
	C28,6,25.5,5.4,23,5.4c-2.7,0-5.2,0.6-7.5,1.6c-0.7-0.8-1.8-1.2-2.9-1.2c-2.2,0-4.1,1.8-4.1,4.1c0,0.6,0.2,1.2,0.4,1.8
	C5.9,15,3.9,19.5,3.9,24.5c0,7.4,4.3,14.1,11,17.3c0,0,0,0.1,0,0.1c0,9.4,6.9,17.3,15.9,18.8c0.4,1.8,2,3.1,3.9,3.1
	c2,0,3.7-1.5,4-3.5c8.2-2.1,14.3-9.6,14.3-18.4c0-0.5,0-0.9-0.1-1.4C59.7,37.4,64.1,30.7,64.1,23.2"/>
</svg>
