<?xml version="1.0" encoding="utf-8"?>
<!-- Generator: Adobe Illustrator 23.0.6, SVG Export Plug-In . SVG Version: 6.00 Build 0)  -->
<svg version="1.1" id="Layer_1" xmlns="http://www.w3.org/2000/svg" xmlns:xlink="http://www.w3.org/1999/xlink" x="0px" y="0px"
	 viewBox="0 0 65 65" style="enable-background:new 0 0 65 65;" xml:space="preserve">
<path d="M59.2,25.6c0.2-0.5,0-1-0.3-1.3l-9.9-8.2l9.9-8.2c0.4-0.3,0.5-0.8,0.3-1.3c-0.2-0.5-0.6-0.8-1.1-0.8H28.8
	c-0.6,0-1.2,0.5-1.2,1.2v43.8c0,0.6,0.5,1.2,1.2,1.2c0.6,0,1.2-0.5,1.2-1.2V26.3h28.1C58.5,26.3,59,26,59.2,25.6z M30,24v-16h24.9
	l-8.5,7.1c-0.3,0.2-0.4,0.5-0.4,0.9c0,0.3,0.2,0.7,0.4,0.9l8.5,7.1H30z"/>
<path d="M5.8,50.8c0,5.5,11.9,8.5,23.1,8.5s23.1-3,23.1-8.5c0-3.8-6-6.9-15.6-8c-0.6-0.1-1.2,0.4-1.3,1c-0.1,0.6,0.4,1.2,1,1.3
	c8.8,1,13.6,3.7,13.6,5.7c0,2.6-7.9,6.2-20.8,6.2S8.1,53.3,8.1,50.8c0-2,4.8-4.7,13.6-5.7c0.6-0.1,1.1-0.6,1-1.3
	c-0.1-0.6-0.6-1-1.2-1c0,0-0.1,0-0.1,0C11.8,43.9,5.8,46.9,5.8,50.8z"/>
</svg>
