<?xml version="1.0" encoding="utf-8"?>
<!-- Generator: Adobe Illustrator 23.0.3, SVG Export Plug-In . SVG Version: 6.00 Build 0)  -->
<svg version="1.1" id="Layer_1" xmlns="http://www.w3.org/2000/svg" xmlns:xlink="http://www.w3.org/1999/xlink" x="0px" y="0px"
	 viewBox="0 0 68 68" style="enable-background:new 0 0 68 68;" xml:space="preserve">
<path d="M56.2,60.4H12V7.5h44.2V60.4z M56.4,5.1H11.6c-1.2,0-2.2,1-2.2,2.2v53.5c0,1.2,1,2.2,2.2,2.2h44.7c1.2,0,2.2-1,2.2-2.2V7.2
	C58.5,6,57.6,5.1,56.4,5.1"/>
<path d="M22.6,26.3c0.2,0.2,0.5,0.3,0.8,0.3c0.3,0,0.5-0.1,0.7-0.3l5.8-5.8c0.2-0.2,0.3-0.5,0.3-0.8c0-0.3-0.1-0.5-0.3-0.7l0,0
	c-0.2-0.2-0.5-0.3-0.8-0.3c-0.3,0-0.5,0.1-0.7,0.3l-5,5l-1.8-1.8c-0.2-0.2-0.5-0.3-0.8-0.3c0,0,0,0,0,0c-0.3,0-0.5,0.1-0.7,0.3
	c-0.2,0.2-0.3,0.5-0.3,0.8c0,0.3,0.1,0.5,0.3,0.7L22.6,26.3z"/>
<path d="M35.6,24.2h11.8c0.6,0,1.1-0.5,1.1-1c0-0.6-0.5-1-1-1H35.6c-0.6,0-1,0.5-1,1C34.5,23.8,35,24.2,35.6,24.2"/>
<path d="M22.6,37.6c0.2,0.2,0.5,0.3,0.8,0.3c0.3,0,0.5-0.1,0.7-0.3l5.8-5.8c0.2-0.2,0.3-0.5,0.3-0.8c0-0.3-0.1-0.5-0.3-0.7l0,0
	C29.6,30.1,29.3,30,29,30c-0.3,0-0.5,0.1-0.7,0.3l-5,5l-1.8-1.8c-0.2-0.2-0.5-0.3-0.8-0.3c0,0,0,0,0,0c-0.3,0-0.5,0.1-0.7,0.3
	c-0.2,0.2-0.3,0.5-0.3,0.8c0,0.3,0.1,0.5,0.3,0.7L22.6,37.6z"/>
<path d="M35.6,35.5h11.8c0.6,0,1.1-0.5,1.1-1c0-0.6-0.5-1-1-1H35.6c-0.6,0-1,0.5-1,1C34.5,35.1,35,35.5,35.6,35.5"/>
<path d="M35.6,46.7h11.8c0.6,0,1.1-0.4,1.1-1c0-0.6-0.5-1-1-1H35.6c-0.6,0-1,0.5-1,1C34.5,46.3,35,46.7,35.6,46.7"/>
</svg>
