<?xml version="1.0" encoding="utf-8"?>
<!-- Generator: Adobe Illustrator 23.0.3, SVG Export Plug-In . SVG Version: 6.00 Build 0)  -->
<svg version="1.1" id="Layer_1" xmlns="http://www.w3.org/2000/svg" xmlns:xlink="http://www.w3.org/1999/xlink" x="0px" y="0px"
	 viewBox="0 0 68 68" style="enable-background:new 0 0 68 68;" xml:space="preserve">
<path d="M51.7,26.3l-1.8,1.8c6.4,8,5.8,19.9-1.5,27.2c-3.9,3.9-9,6-14.4,6s-10.6-2.1-14.4-6c-3.9-3.9-6-9-6-14.4
	c0-4.6,1.6-9.2,4.5-12.8l-1.8-1.8c-3.4,4.1-5.2,9.2-5.2,14.5c0,6.1,2.4,11.9,6.7,16.2c4.3,4.3,10.1,6.7,16.2,6.7
	c6.1,0,11.9-2.4,16.2-6.7c4.3-4.3,6.7-10.1,6.7-16.2C56.9,35.5,55.1,30.4,51.7,26.3"/>
<path d="M39.3,41c0,2.9-2.4,5.3-5.3,5.3s-5.3-2.4-5.3-5.3c0-2.9,2.4-5.3,5.3-5.3S39.3,38,39.3,41 M32.7,21v12.3l-0.2,0
	c-3.7,0.7-6.3,3.9-6.3,7.6c0,4.3,3.5,7.8,7.8,7.8s7.8-3.5,7.8-7.8c0-3.7-2.7-6.9-6.3-7.6l-0.2,0V21c0-7.1,5.2-13.2,12.2-14.2V4.3
	c-4.6,0.6-8.9,3.2-11.6,7.1L34,13.9l-1.8-2.6c-2.7-3.9-6.9-6.4-11.6-7.1v2.5C27.5,7.9,32.7,14,32.7,21"/>
</svg>
