<?xml version="1.0" encoding="utf-8"?>
<!-- Generator: Adobe Illustrator 23.0.3, SVG Export Plug-In . SVG Version: 6.00 Build 0)  -->
<svg version="1.1" id="Layer_1" xmlns="http://www.w3.org/2000/svg" xmlns:xlink="http://www.w3.org/1999/xlink" x="0px" y="0px"
	 viewBox="0 0 58 58" style="enable-background:new 0 0 58 58;" xml:space="preserve">
<path d="M31,25.6c-0.6-0.6-1.5-1-2.4-1h0c-1.9,0-3.4,1.5-3.4,3.4l0,2.1c-1.6-1.1-2.6-2.8-2.6-4.8c0-3.2,2.6-5.9,5.9-5.9
	c3.2,0,5.9,2.6,5.9,5.9c0,1.9-0.9,3.6-2.3,4.6l0-1.9C32,27.1,31.7,26.3,31,25.6 M36.6,55L36.6,55l-3.9,0c-2.4,0-4.6-1.1-6.2-2.9
	l-6.3-7.6c-0.2-0.3-0.3-0.6-0.3-0.9c0.1-0.4,0.3-0.7,0.5-0.8c0.3-0.2,0.5-0.2,0.7-0.2h0c0.3,0,0.6,0.1,0.8,0.3l2.5,2.5
	c0.5,0.5,1.2,0.6,1.8,0.4c0.6-0.3,1-0.9,1-1.5l0-16.2c0-0.6,0.5-1.2,1.2-1.2h0c0.3,0,0.6,0.1,0.8,0.3c0.2,0.2,0.3,0.5,0.3,0.8
	l0,11.2c0,0.6,0.5,1.1,1.1,1.1c0.6,0,1.1-0.5,1.1-1.1l0-1.5c0-0.3,0.1-0.6,0.3-0.8c0.2-0.2,0.5-0.3,0.8-0.3h0c0.6,0,1.2,0.5,1.2,1.2
	l0,2.9c0,0.6,0.5,1.1,1.1,1.1h0c0.3,0,0.6-0.1,0.8-0.3s0.3-0.5,0.3-0.8l0-1.5c0-0.3,0.1-0.6,0.3-0.8c0.2-0.2,0.5-0.3,0.8-0.3h0
	c0.3,0,0.6,0.1,0.8,0.3c0.2,0.2,0.3,0.5,0.3,0.8l0,2.9c0,0.3,0.1,0.6,0.3,0.8S39.7,43,40,43c0.3,0,0.6-0.1,0.8-0.3
	c0.2-0.2,0.3-0.5,0.3-0.8l0-1.5c0-0.6,0.5-1.2,1.2-1.2c0.6,0,1.2,0.5,1.2,1.2l0,7.8c0,1.9-0.7,3.6-2,4.9C40.2,54.3,38.5,55,36.6,55
	 M39.5,5.6c1.7,0,3.1,1.4,3.1,3.1c0,1.7-1.4,3.1-3.1,3.1c-1.7,0-3.1-1.4-3.1-3.1C36.4,7,37.8,5.6,39.5,5.6 M23.3,7.3
	c0,2.5-2,4.5-4.5,4.5c-2.5,0-4.5-2-4.5-4.5c0-2.5,2-4.5,4.5-4.5C21.3,2.8,23.3,4.8,23.3,7.3 M45.7,40.4c0-0.9-0.4-1.8-1-2.4
	c-0.6-0.6-1.5-1-2.4-1c-0.6,0-1.1,0.1-1.6,0.4c-0.6-1.1-1.7-1.8-3-1.8h0c-0.6,0-1.1,0.1-1.6,0.4c-0.6-1.1-1.7-1.8-3-1.8h0
	c-0.4,0-0.8,0.1-1.2,0.2l0-2.1c2.6-1.3,4.4-4.1,4.4-7.1c0-2.2-0.9-4.3-2.6-5.8l4.2-5.8c0.5,0.1,1,0.2,1.5,0.2c2.9,0,5.2-2.3,5.2-5.2
	c0-2.9-2.3-5.2-5.2-5.2c-2.9,0-5.2,2.3-5.2,5.2c0,1.5,0.7,3,1.9,4l-4.1,5.6c-2-1.1-4.4-1.2-6.5-0.4l-2.9-5.3
	c1.6-1.2,2.6-3.2,2.6-5.2c0-3.6-2.9-6.6-6.6-6.6c-3.6,0-6.6,2.9-6.6,6.6c0,3.6,2.9,6.6,6.6,6.6c0.7,0,1.5-0.1,2.2-0.4l2.9,5.3
	c-2.1,1.5-3.3,3.9-3.3,6.4c0,3.2,1.9,6,4.7,7.2l0,10.4l-1.5-1.5c-1.2-1.2-3-1.3-4.3-0.4c-0.8,0.5-1.3,1.4-1.5,2.4
	c-0.1,1,0.1,1.9,0.8,2.7l6.3,7.6c1.9,2.4,4.8,3.7,7.9,3.7l3.9,0h0c2.4,0,4.7-0.9,6.4-2.7c1.7-1.7,2.7-4,2.7-6.4L45.7,40.4z"/>
</svg>
