<?xml version="1.0" encoding="utf-8"?>
<!-- Generator: Adobe Illustrator 23.0.3, SVG Export Plug-In . SVG Version: 6.00 Build 0)  -->
<svg version="1.1" id="Layer_1" xmlns="http://www.w3.org/2000/svg" xmlns:xlink="http://www.w3.org/1999/xlink" x="0px" y="0px"
	 viewBox="0 0 58 58" style="enable-background:new 0 0 58 58;" xml:space="preserve">
<path d="M52.2,42.7c0.9,0,1.6,0.7,1.6,1.6v7.4c0,0.9-0.7,1.6-1.6,1.6c-0.9,0-1.6-0.7-1.6-1.6v-7.4C50.7,43.4,51.3,42.7,52.2,42.7
	 M52.2,40.6c-2,0-3.7,1.7-3.7,3.7v7.4c0,2,1.7,3.7,3.7,3.7c2,0,3.7-1.7,3.7-3.7v-7.4C55.9,42.3,54.3,40.6,52.2,40.6 M41.1,40.6
	c-0.3,0-0.5,0.1-0.7,0.3l-3.2,3.2c-0.4,0.4-0.4,1.1,0,1.5c0.4,0.4,1.1,0.4,1.5,0c0,0,0,0,0,0l1.4-1.4v9H38c-0.6,0-1.1,0.5-1.1,1
	c0,0.6,0.5,1.1,1,1.1c0,0,0,0,0,0h3c0.1,0,0.2,0,0.3,0h1.9c0.6,0,1.1-0.5,1.1-1c0-0.6-0.5-1.1-1-1.1h0h-1.1V41.6
	C42.2,41.1,41.7,40.6,41.1,40.6L41.1,40.6z M29.5,40.6c-0.3,0-0.5,0.1-0.7,0.3l-3.2,3.2c-0.4,0.4-0.4,1.1,0,1.5
	c0.4,0.4,1.1,0.4,1.5,0c0,0,0,0,0,0l1.4-1.4v9h-2.1c-0.6,0-1.1,0.5-1.1,1c0,0.6,0.5,1.1,1,1.1c0,0,0,0,0,0h3c0.1,0,0.2,0,0.3,0h1.9
	c0.6,0,1.1-0.5,1.1-1c0-0.6-0.5-1.1-1-1.1h0h-1.1V41.6C30.6,41.1,30.1,40.6,29.5,40.6L29.5,40.6z M17.9,40.6c-0.3,0-0.5,0.1-0.7,0.3
	L14,44.1c-0.4,0.4-0.4,1.1,0,1.5c0.4,0.4,1.1,0.4,1.5,0l1.4-1.4v9h-2.1c-0.6,0-1.1,0.5-1.1,1c0,0.6,0.5,1.1,1,1.1c0,0,0,0,0,0h3
	c0.1,0,0.2,0,0.3,0H20c0.6,0,1.1-0.5,1.1-1c0-0.6-0.5-1.1-1-1.1h0H19V41.6C19,41.1,18.5,40.6,17.9,40.6L17.9,40.6z M6.3,40.6
	c-0.3,0-0.5,0.1-0.7,0.3l-3.2,3.2c-0.4,0.4-0.4,1.1,0,1.5c0.4,0.4,1.1,0.4,1.5,0l1.4-1.4v9H3.1c-0.6,0-1.1,0.5-1.1,1
	c0,0.6,0.5,1.1,1,1.1c0,0,0,0,0,0h3c0.1,0,0.2,0,0.3,0h1.9c0.6,0,1.1-0.5,1.1-1c0-0.6-0.5-1.1-1-1.1h0H7.4V41.6
	C7.4,41.1,6.9,40.6,6.3,40.6L6.3,40.6z M52.2,23.7c0.9,0,1.6,0.7,1.6,1.6v7.4c0,0.9-0.7,1.6-1.6,1.6c-0.9,0-1.6-0.7-1.6-1.6v-7.4
	C50.7,24.4,51.3,23.7,52.2,23.7 M17.4,23.7c0.9,0,1.6,0.7,1.6,1.6v7.4c0,0.9-0.7,1.6-1.6,1.6c-0.9,0-1.6-0.7-1.6-1.6v-7.4
	C15.8,24.4,16.5,23.7,17.4,23.7 M52.2,21.6c-2,0-3.7,1.7-3.7,3.7v7.4c0,2,1.7,3.7,3.7,3.7c2,0,3.7-1.7,3.7-3.7v-7.4
	C55.9,23.3,54.3,21.6,52.2,21.6 M17.4,21.6c-2,0-3.7,1.7-3.7,3.7v7.4c0,2,1.7,3.7,3.7,3.7s3.7-1.7,3.7-3.7v-7.4
	C21.1,23.3,19.4,21.6,17.4,21.6 M41.1,21.6c-0.3,0-0.5,0.1-0.7,0.3l-3.2,3.2c-0.4,0.4-0.4,1.1,0,1.5c0.4,0.4,1.1,0.4,1.5,0
	c0,0,0,0,0,0l1.4-1.4v9H38c-0.6,0-1.1,0.5-1.1,1c0,0.6,0.5,1.1,1,1.1h0h3c0.1,0,0.2,0,0.3,0h1.9c0.6,0,1.1-0.5,1.1-1
	c0-0.6-0.5-1.1-1-1.1c0,0,0,0,0,0h-1.1V22.7C42.2,22.1,41.7,21.6,41.1,21.6L41.1,21.6z M29.5,21.6c-0.3,0-0.5,0.1-0.7,0.3l-3.2,3.2
	c-0.4,0.4-0.4,1.1,0,1.5c0.4,0.4,1.1,0.4,1.5,0c0,0,0,0,0,0l1.4-1.4v9h-2.1c-0.6,0-1.1,0.5-1.1,1c0,0.6,0.5,1.1,1,1.1h0h3
	c0.1,0,0.2,0,0.3,0h1.9c0.6,0,1.1-0.5,1.1-1c0-0.6-0.5-1.1-1-1.1c0,0,0,0,0,0h-1.1V22.7C30.6,22.1,30.1,21.6,29.5,21.6L29.5,21.6z
	 M6.3,21.6c-0.3,0-0.5,0.1-0.7,0.3l-3.2,3.2c-0.4,0.4-0.4,1.1,0,1.5c0.4,0.4,1.1,0.4,1.5,0l1.4-1.4v9H3.1c-0.6,0-1.1,0.5-1.1,1
	c0,0.6,0.5,1.1,1,1.1h0h3c0.1,0,0.2,0,0.3,0h1.9c0.6,0,1.1-0.5,1.1-1c0-0.6-0.5-1.1-1-1.1c0,0,0,0,0,0H7.4V22.7
	C7.4,22.1,6.9,21.6,6.3,21.6L6.3,21.6z M52.2,4.8c0.9,0,1.6,0.7,1.6,1.6v7.4c0,0.9-0.7,1.6-1.6,1.6c-0.9,0-1.6-0.7-1.6-1.6V6.3
	C50.7,5.5,51.3,4.8,52.2,4.8 M40.6,4.8c0.9,0,1.6,0.7,1.6,1.6v7.4c0,0.9-0.7,1.6-1.6,1.6c-0.9,0-1.6-0.7-1.6-1.6V6.3
	C39,5.5,39.7,4.8,40.6,4.8 M5.8,4.8c0.9,0,1.6,0.7,1.6,1.6v7.4c0,0.9-0.7,1.6-1.6,1.6c-0.9,0-1.6-0.7-1.6-1.6V6.3
	C4.2,5.5,4.9,4.8,5.8,4.8 M52.2,2.7c-2,0-3.7,1.7-3.7,3.7v7.4c0,2,1.7,3.7,3.7,3.7c2,0,3.7-1.7,3.7-3.7V6.3
	C55.9,4.3,54.3,2.7,52.2,2.7 M40.6,2.7c-2,0-3.7,1.7-3.7,3.7v7.4c0,2,1.7,3.7,3.7,3.7c2,0,3.7-1.7,3.7-3.7V6.3
	C44.3,4.3,42.6,2.7,40.6,2.7 M5.8,2.7c-2,0-3.7,1.7-3.7,3.7v7.4c0,2,1.7,3.7,3.7,3.7c2,0,3.7-1.7,3.7-3.7V6.3
	C9.5,4.3,7.8,2.7,5.8,2.7 M29.5,2.7c-0.3,0-0.5,0.1-0.7,0.3l-3.2,3.2c-0.4,0.4-0.4,1.1,0,1.5C26,8,26.7,8,27.1,7.6c0,0,0,0,0,0
	l1.4-1.4v9h-2.1c-0.6,0-1.1,0.5-1.1,1c0,0.6,0.5,1.1,1,1.1h0h3c0.1,0,0.2,0,0.3,0h1.9c0.6,0,1.1-0.5,1.1-1c0-0.6-0.5-1.1-1-1.1
	c0,0,0,0,0,0h-1.1V3.7C30.6,3.1,30.1,2.7,29.5,2.7L29.5,2.7z M17.9,2.7c-0.3,0-0.5,0.1-0.7,0.3L14,6.1c-0.4,0.4-0.4,1.1,0,1.5
	s1.1,0.4,1.5,0c0,0,0,0,0,0l1.4-1.4v9h-2.1c-0.6,0-1.1,0.5-1.1,1c0,0.6,0.5,1.1,1,1.1h0h3c0.1,0,0.2,0,0.3,0H20c0.6,0,1.1-0.5,1.1-1
	c0-0.6-0.5-1.1-1-1.1c0,0,0,0,0,0H19V3.7C19,3.1,18.5,2.7,17.9,2.7L17.9,2.7z"/>
</svg>
