<?xml version="1.0" encoding="utf-8"?>
<!-- Generator: Adobe Illustrator 22.0.0, SVG Export Plug-In . SVG Version: 6.00 Build 0)  -->
<svg version="1.1" id="Laag_1" xmlns="http://www.w3.org/2000/svg" xmlns:xlink="http://www.w3.org/1999/xlink" x="0px" y="0px"
	 viewBox="200 200 600 600" style="enable-background:new 200 200 600 600;" xml:space="preserve">
<style type="text/css">
	.st0{fill:url(#SVGID_1_);}
	.st1{fill:url(#SVGID_2_);}
	.st2{fill:url(#SVGID_3_);}
	.st3{fill:url(#SVGID_4_);}
	.st4{fill:url(#SVGID_5_);}
	.st5{fill:url(#SVGID_6_);}
	.st6{fill:url(#SVGID_7_);}
	.st7{fill:#CDD6FF;}
	.st8{opacity:0.5;fill:#AEC3FF;}
</style>
<g>
	<g>
		<linearGradient id="SVGID_1_" gradientUnits="userSpaceOnUse" x1="516.0126" y1="538.1428" x2="452.394" y2="538.1428">
			<stop  offset="0" style="stop-color:#5347C2"/>
			<stop  offset="1" style="stop-color:#BAB5E7"/>
		</linearGradient>
		<polygon class="st0" points="452.5,540.7 452.4,572.5 515.9,535.6 516,503.8 		"/>
		<linearGradient id="SVGID_2_" gradientUnits="userSpaceOnUse" x1="547.3533" y1="563.0874" x2="452.394" y2="563.0874">
			<stop  offset="0" style="stop-color:#5347C2"/>
			<stop  offset="1" style="stop-color:#BAB5E7"/>
		</linearGradient>
		<polygon class="st1" points="515.9,535.6 452.4,572.5 483.8,590.6 547.4,553.7 		"/>
		<linearGradient id="SVGID_3_" gradientUnits="userSpaceOnUse" x1="508.2152" y1="500.3931" x2="438.0547" y2="516.6061">
			<stop  offset="0" style="stop-color:#5347C2"/>
			<stop  offset="1" style="stop-color:#BAB5E7"/>
		</linearGradient>
		<path class="st2" d="M516.8,471c0,0-65.1,36.1-65.2,36.1c-11.2,6.5-6.9,24.7,0.8,33.4c0.1,0.1,0.1,0.2,0.1,0.3
			c0,0,63.5-36.9,63.5-36.9C515.6,504.1,511.7,473.9,516.8,471z"/>
		
			<linearGradient id="SVGID_4_" gradientUnits="userSpaceOnUse" x1="753.6438" y1="560.0883" x2="197.7925" y2="489.2596" gradientTransform="matrix(1 3.350741e-03 -3.350741e-03 1 1.478 -1.6827)">
			<stop  offset="0" style="stop-color:#5347C2"/>
			<stop  offset="1" style="stop-color:#BAB5E7"/>
		</linearGradient>
		<path class="st3" d="M584.7,461.5c-18.8-10.9-118.3-68.8-122.5-71.3c-4.8-2.8-11.8-4.7-16.9-1.7c0,0-63.7,36.7-63.7,36.7
			c1.1-0.6,178.3,133.9,177,134.6l3.3-2.3c-0.6,26.2-2.8,109.5-7.2,112c0,0,63.6-36.7,63.7-36.7c5.3-3.1,7-9.6,7-15.3
			c0,0,0.4-104.5,0.4-104.5c0-0.4,0-0.7,0-1.1C625,486.2,604.5,473,584.7,461.5z"/>
		<linearGradient id="SVGID_5_" gradientUnits="userSpaceOnUse" x1="527.2969" y1="533.9532" x2="310.1927" y2="583.6898">
			<stop  offset="0" style="stop-color:#5347C2"/>
			<stop  offset="1" style="stop-color:#BAB5E7"/>
		</linearGradient>
		<path class="st4" d="M538.7,508.4l-140.5-81.1c-13.1-7.6-23.9-1.5-23.9,13.7v104.5c0,15.2,10.3,33.6,23.4,41.2l140.5,81.1
			c13.1,7.6,23.9,1.5,23.9-13.7V549.5C562.2,534.4,551.8,516,538.7,508.4z M483.9,558.9v31.7l-31.5-18.1l0.1-31.7
			c-3.4-6.2-5.4-13.1-5.4-19.3c0-13.4,9.5-18.8,21.2-12c11.7,6.7,21.1,23.1,21.1,36.5C489.4,552.1,487.3,556.5,483.9,558.9z"/>
		<g>
			
				<linearGradient id="SVGID_6_" gradientUnits="userSpaceOnUse" x1="943.8113" y1="408.6989" x2="976.4548" y2="408.6989" gradientTransform="matrix(-1 0 0 1 1432.307 0)">
				<stop  offset="0" style="stop-color:#5347C2"/>
				<stop  offset="1" style="stop-color:#BAB5E7"/>
			</linearGradient>
			<path class="st5" d="M468.1,374.3c-5.7,3.2-11.8,5.6-12.2,13c-0.3,4.5,1.1,56.2,1.1,59.1l31.5-18.2c0,0,0-56.1,0-56.1
				C488.5,370.8,475.8,370,468.1,374.3z"/>
			
				<linearGradient id="SVGID_7_" gradientUnits="userSpaceOnUse" x1="702.2766" y1="410.9033" x2="827.2259" y2="410.9033" gradientTransform="matrix(1 0 0 1 -258.2584 0)">
				<stop  offset="0" style="stop-color:#5347C2"/>
				<stop  offset="1" style="stop-color:#BAB5E7"/>
			</linearGradient>
			<path class="st6" d="M568.9,416.6c-0.2-8.4-2.3-16.7-5.4-24.6c-2.5-6.4-5.7-12.6-9.6-18.4c-3.1-4.7-6.9-9.5-11-13.7
				c-10.8-11-25.6-17.8-38.8-25.5c-0.4-0.2-0.9-0.5-1.3-0.7c-6.5-3.5-14.5-5.9-22-4.2c-0.8,0.2-1.5,0.4-2.3,0.6
				c-0.1,0-0.1,0.1-0.2,0.1c-1.1,0.4-2.1,0.9-3.1,1.4c0,0-31.4,18.2-31.4,18.2c12.1-7,93.6,69.7,93.6,86.8v56.1l31.4-18.2
				c0,0,0-56.1,0-56.1C569,417.9,569,417.2,568.9,416.6z"/>
			<path class="st7" d="M497.2,366.8l-24.4-14.1c-22.3-12.9-40.6-2.5-40.6,23.1V432l24.8,14.4v-56.1c0-9.8,7.1-13.8,15.8-8.9
				l24.4,14.1c8.6,5,15.5,17,15.5,26.9v56.1l25,14.4v-56.1C538.1,396.3,519.6,379.7,497.2,366.8z"/>
		</g>
	</g>
	<path class="st8" d="M535.6,651.6c-3,0-6.2-1-9.6-2.9l-119.6-67.9c-11.3-6.4-20.5-22.3-20.5-35.4v-87.4c0-6.5,2.3-11.3,6.4-13.7
		c4.2-2.4,9.7-2,15.5,1.3l119.6,67.9c11.3,6.4,20.5,22.3,20.5,35.4v87.4c0,6.5-2.3,11.3-6.4,13.7
		C539.8,651.1,537.8,651.6,535.6,651.6z M398.2,445c-1.8,0-3.4,0.4-4.9,1.2c-3.4,2-5.3,6.2-5.3,11.9v87.4c0,12.4,8.7,27.4,19.4,33.5
		l119.6,67.9c5.1,2.9,9.9,3.4,13.4,1.4c3.4-2,5.3-6.2,5.3-11.9V549c0-12.4-8.7-27.4-19.4-33.5l-119.6-67.9
		C403.7,445.9,400.8,445,398.2,445z"/>
</g>
</svg>
