<?xml version="1.0" encoding="UTF-8" standalone="no"?>
<!-- Generator: Adobe Illustrator 22.0.0, SVG Export Plug-In . SVG Version: 6.00 Build 0)  -->

<svg
   xmlns:dc="http://purl.org/dc/elements/1.1/"
   xmlns:cc="http://creativecommons.org/ns#"
   xmlns:rdf="http://www.w3.org/1999/02/22-rdf-syntax-ns#"
   xmlns:svg="http://www.w3.org/2000/svg"
   xmlns="http://www.w3.org/2000/svg"
   xmlns:sodipodi="http://sodipodi.sourceforge.net/DTD/sodipodi-0.dtd"
   xmlns:inkscape="http://www.inkscape.org/namespaces/inkscape"
   version="1.1"
   id="Laag_1"
   x="0px"
   y="0px"
   viewBox="200 200 600 600"
   style="enable-background:new 200 200 600 600;"
   xml:space="preserve"
   inkscape:version="0.48.2 r9819"
   width="100%"
   height="100%"
   sodipodi:docname="locknload--upload.svg"><metadata
   id="metadata7976"><rdf:RDF><cc:Work
       rdf:about=""><dc:format>image/svg+xml</dc:format><dc:type
         rdf:resource="http://purl.org/dc/dcmitype/StillImage" /></cc:Work></rdf:RDF></metadata><defs
   id="defs7974" /><sodipodi:namedview
   pagecolor="#ffffff"
   bordercolor="#666666"
   borderopacity="1"
   objecttolerance="10"
   gridtolerance="10"
   guidetolerance="10"
   inkscape:pageopacity="0"
   inkscape:pageshadow="2"
   inkscape:window-width="1327"
   inkscape:window-height="778"
   id="namedview7972"
   showgrid="false"
   inkscape:zoom="0.33714286"
   inkscape:cx="-151.27118"
   inkscape:cy="350"
   inkscape:window-x="1527"
   inkscape:window-y="88"
   inkscape:window-maximized="0"
   inkscape:current-layer="g7903" />
<style
   type="text/css"
   id="style7872">
	.st0{fill:url(#SVGID_1_);}
	.st1{fill:url(#SVGID_2_);}
	.st2{fill:url(#SVGID_3_);}
	.st3{fill:#CDD6FF;}
	.st4{fill:url(#SVGID_4_);}
	.st5{fill:url(#SVGID_5_);}
	.st6{fill:url(#SVGID_6_);}
	.st7{fill:#D9E1FF;}
	.st8{fill:url(#SVGID_7_);}
	.st9{fill:url(#SVGID_8_);}
	.st10{enable-background:new    ;}
	.st11{fill:url(#SVGID_9_);}
	.st12{fill:url(#SVGID_10_);}
</style>
<g
   id="g7874">
	<g
   id="g7876">
		<g
   id="g7878">
			<linearGradient
   id="SVGID_1_"
   gradientUnits="userSpaceOnUse"
   x1="159.3853"
   y1="290.2601"
   x2="547.2736"
   y2="559.8303">
				<stop
   offset="0"
   style="stop-color:#5347C2"
   id="stop7881" />
				<stop
   offset="1"
   style="stop-color:#BAB5E7"
   id="stop7883" />
			</linearGradient>
			<path
   class="st0"
   d="M310.6,389.8l-23.2,13.5c7.8-4.5,18.6-3.9,30.6,3c2.2,1.3,4.4,2.8,6.5,4.4l23.2-13.5     c-2.1-1.6-4.3-3.1-6.5-4.4C329.2,385.9,318.4,385.3,310.6,389.8z"
   id="path7885" />
			<linearGradient
   id="SVGID_2_"
   gradientUnits="userSpaceOnUse"
   x1="209.6922"
   y1="217.8727"
   x2="597.5806"
   y2="487.4429">
				<stop
   offset="0"
   style="stop-color:#5347C2"
   id="stop7888" />
				<stop
   offset="1"
   style="stop-color:#BAB5E7"
   id="stop7890" />
			</linearGradient>
			<path
   class="st1"
   d="M419,333.2c-20.4-11.8-38.8-12.8-52.1-5.1l-23.2,13.5c13.3-7.7,31.8-6.7,52.1,5.1     c10.2,5.9,19.9,13.9,28.7,23.3l23.2-13.5C438.9,347.1,429.2,339.1,419,333.2z"
   id="path7892" />
			<linearGradient
   id="SVGID_3_"
   gradientUnits="userSpaceOnUse"
   x1="325.1656"
   y1="303.3322"
   x2="713.054"
   y2="572.9025">
				<stop
   offset="0"
   style="stop-color:#5347C2"
   id="stop7895" />
				<stop
   offset="1"
   style="stop-color:#BAB5E7"
   id="stop7897" />
			</linearGradient>
			<path
   class="st2"
   d="M651.7,493.5c-2.6-64.3-47.6-140.2-102.8-172.1c-28.7-16.6-54.7-18.1-73.5-7.2l-23.2,13.5     c18.8-10.9,44.8-9.4,73.5,7.2c55.2,31.9,100.2,107.8,102.8,172.1c41,25.8,73.5,83.4,73.4,131.1c-0.1,24.3-8.7,41.4-22.5,49.5     l23.2-13.5c13.8-8,22.4-25.2,22.5-49.5C725.2,576.9,692.7,519.3,651.7,493.5z"
   id="path7899" />
		</g>
		<path
   class="st3"
   d="M525.7,334.9c55.2,31.9,100.2,107.8,102.8,172.1c41,25.8,73.5,83.4,73.4,131.1c-0.1,49-34.8,68.7-77.4,44.1    L322,507.5c-1.4-0.9-2.9-1.6-4.3-2.5c-23.7-13.7-42.9-46.9-42.8-74.2c0.1-27.2,19.3-38.3,43.1-24.5c2.2,1.3,4.4,2.8,6.5,4.4    c-1.5-7.5-2.2-14.9-2.2-22.1c0.1-46.5,33-65.2,73.5-41.9c10.2,5.9,19.9,13.9,28.7,23.3C434.8,322.5,476.2,306.4,525.7,334.9z"
   id="path7901"
   style="opacity:1" />
		<g
   id="g7903">
			<g
   id="g7905">
				<linearGradient
   id="SVGID_4_"
   gradientUnits="userSpaceOnUse"
   x1="380.2755"
   y1="435.96"
   x2="410.4186"
   y2="435.96">
					<stop
   offset="0"
   style="stop-color:#5347C2"
   id="stop7908" />
					<stop
   offset="1"
   style="stop-color:#BAB5E7"
   id="stop7910" />
				</linearGradient>
				<path
   class="st4"
   d="M391.9,431.5l-11.6,6.7c3.9-2.3,9.3-1.9,15.3,1.5c1.1,0.6,2.2,1.4,3.3,2.2l11.6-6.7      c-1.1-0.8-2.2-1.5-3.3-2.2C401.2,429.5,395.8,429.2,391.9,431.5z"
   id="path7912" />
				<linearGradient
   id="SVGID_5_"
   gradientUnits="userSpaceOnUse"
   x1="408.4135"
   y1="409.8563"
   x2="460.4344"
   y2="409.8563">
					<stop
   offset="0"
   style="stop-color:#5347C2"
   id="stop7915" />
					<stop
   offset="1"
   style="stop-color:#BAB5E7"
   id="stop7917" />
				</linearGradient>
				<path
   class="st5"
   d="M446.1,403.2c-10.2-5.9-19.4-6.4-26.1-2.6l-11.6,6.7c6.7-3.9,15.9-3.3,26.1,2.6c5.1,2.9,10,6.9,14.4,11.7      l11.6-6.7C456,410.1,451.2,406.1,446.1,403.2z"
   id="path7919" />
				<linearGradient
   id="SVGID_6_"
   gradientUnits="userSpaceOnUse"
   x1="462.693"
   y1="485.2807"
   x2="599.1532"
   y2="485.2807">
					<stop
   offset="0"
   style="stop-color:#5347C2"
   id="stop7922" />
					<stop
   offset="1"
   style="stop-color:#BAB5E7"
   id="stop7924" />
				</linearGradient>
				<path
   class="st6"
   d="M562.5,483.3c-1.3-32.2-23.8-70.1-51.4-86c-14.4-8.3-27.4-9.1-36.7-3.6l-11.6,6.7      c9.4-5.5,22.4-4.7,36.7,3.6c27.6,15.9,50.1,53.9,51.4,86c20.5,12.9,36.8,41.7,36.7,65.5c0,12.2-4.3,20.7-11.3,24.7l11.6-6.7      c6.9-4,11.2-12.6,11.3-24.7C599.2,525.1,582.9,496.2,562.5,483.3z"
   id="path7926" />
			</g>
			<path
   class="st7"
   d="M499.4,404c27.6,15.9,50.1,53.9,51.4,86c20.5,12.9,36.8,41.7,36.7,65.5c-0.1,24.5-17.4,34.4-38.7,22.1     l-151.3-87.4c-0.7-0.5-1.4-0.8-2.1-1.2c-11.9-6.9-21.4-23.4-21.4-37.1c0-13.6,9.7-19.1,21.5-12.3c1.1,0.6,2.2,1.4,3.3,2.2     c-0.7-3.8-1.1-7.5-1.1-11c0.1-23.2,16.5-32.6,36.7-20.9c5.1,2.9,10,6.9,14.4,11.7C454,397.8,474.7,389.7,499.4,404z"
   id="path7928"
   style="fill:#ebefff;fill-opacity:1" />
		</g>
	</g>
	<g
   id="g7930">
		<g
   id="g7932">
			<g
   id="g7934">
				<linearGradient
   id="SVGID_7_"
   gradientUnits="userSpaceOnUse"
   x1="502.6935"
   y1="617.4926"
   x2="449.0234"
   y2="524.7897">
					<stop
   offset="0"
   style="stop-color:#5347C2"
   id="stop7937" />
					<stop
   offset="1"
   style="stop-color:#BAB5E7"
   id="stop7939" />
				</linearGradient>
				<polygon
   class="st8"
   points="480,551.2 502.6,538 502.3,643.9 479.7,657     "
   id="polygon7941" />
			</g>
			<g
   id="g7943">
				<linearGradient
   id="SVGID_8_"
   gradientUnits="userSpaceOnUse"
   x1="442.678"
   y1="533.8398"
   x2="502.6105"
   y2="533.8398">
					<stop
   offset="0"
   style="stop-color:#5347C2"
   id="stop7946" />
					<stop
   offset="1"
   style="stop-color:#BAB5E7"
   id="stop7948" />
				</linearGradient>
				<polygon
   class="st9"
   points="442.7,529.7 465.3,516.5 502.6,538 480,551.2     "
   id="polygon7950" />
			</g>
		</g>
		<g
   class="st10"
   id="g7952">
			<g
   id="g7954">
				<linearGradient
   id="SVGID_9_"
   gradientUnits="userSpaceOnUse"
   x1="417.2907"
   y1="563.9193"
   x2="505.3402"
   y2="563.9193">
					<stop
   offset="0"
   style="stop-color:#5347C2"
   id="stop7957" />
					<stop
   offset="1"
   style="stop-color:#BAB5E7"
   id="stop7959" />
				</linearGradient>
				<polygon
   class="st11"
   points="505.3,565.8 480,551.2 479.7,657.1 442.4,635.5 442.7,529.7 417.3,515 461.5,470.8     "
   id="polygon7961" />
			</g>
			<g
   id="g7963">
				<linearGradient
   id="SVGID_10_"
   gradientUnits="userSpaceOnUse"
   x1="461.5209"
   y1="511.7319"
   x2="527.9872"
   y2="511.7319">
					<stop
   offset="4.438645e-02"
   style="stop-color:#5347C2"
   id="stop7966" />
					<stop
   offset="1"
   style="stop-color:#BAB5E7"
   id="stop7968" />
				</linearGradient>
				<polygon
   class="st12"
   points="461.5,470.8 484.2,457.6 528,552.7 505.3,565.8     "
   id="polygon7970" />
			</g>
		</g>
	</g>
</g>
</svg>