<?xml version="1.0" encoding="UTF-8" standalone="no"?>
<!-- Generator: Adobe Illustrator 22.0.0, SVG Export Plug-In . SVG Version: 6.00 Build 0)  -->

<svg
   xmlns:dc="http://purl.org/dc/elements/1.1/"
   xmlns:cc="http://creativecommons.org/ns#"
   xmlns:rdf="http://www.w3.org/1999/02/22-rdf-syntax-ns#"
   xmlns:svg="http://www.w3.org/2000/svg"
   xmlns="http://www.w3.org/2000/svg"
   xmlns:sodipodi="http://sodipodi.sourceforge.net/DTD/sodipodi-0.dtd"
   xmlns:inkscape="http://www.inkscape.org/namespaces/inkscape"
   version="1.1"
   id="Laag_1"
   x="0px"
   y="0px"
   viewBox="200 200 600 600"
   style="enable-background:new 200 200 600 600;"
   xml:space="preserve"
   inkscape:version="0.48.2 r9819"
   width="100%"
   height="100%"
   sodipodi:docname="locknload--unpin.svg"><metadata
   id="metadata7051"><rdf:RDF><cc:Work
       rdf:about=""><dc:format>image/svg+xml</dc:format><dc:type
         rdf:resource="http://purl.org/dc/dcmitype/StillImage" /></cc:Work></rdf:RDF></metadata><defs
   id="defs7049" /><sodipodi:namedview
   pagecolor="#ffffff"
   bordercolor="#666666"
   borderopacity="1"
   objecttolerance="10"
   gridtolerance="10"
   guidetolerance="10"
   inkscape:pageopacity="0"
   inkscape:pageshadow="2"
   inkscape:window-width="1413"
   inkscape:window-height="801"
   id="namedview7047"
   showgrid="false"
   inkscape:zoom="0.5065915"
   inkscape:cx="505.42814"
   inkscape:cy="512.52626"
   inkscape:window-x="1334"
   inkscape:window-y="94"
   inkscape:window-maximized="0"
   inkscape:current-layer="g6956" />
<style
   type="text/css"
   id="style6954">
	.st0{fill:#CDD6FF;}
	.st1{fill:#AEC3FF;}
	.st2{fill:url(#SVGID_1_);}
	.st3{fill:url(#SVGID_2_);}
	.st4{fill:url(#SVGID_3_);}
	.st5{fill:url(#SVGID_4_);}
	.st6{fill:url(#SVGID_5_);}
	.st7{fill-rule:evenodd;clip-rule:evenodd;fill:#CDD6FF;}
	.st8{opacity:0.5;}
	.st9{fill-rule:evenodd;clip-rule:evenodd;fill:#AEC3FF;}
	.st10{opacity:0.2;fill:#BDCBFF;}
	.st11{fill:#E1EAFF;}
</style>
<g
   id="g6956">
	<g
   id="g6958"
   transform="matrix(1.0442589,0,0,1.0959639,-28.434478,-21.457522)">
		<g
   id="g6960">
			<path
   class="st0"
   d="m 516.3,513.8 c 1.1,-0.9 2.2,-1.8 3.3,-2.8 V 388.1 c 0,7.2 -10.1,13.1 -22.6,13.1 -12.5,0 -22.6,-5.9 -22.6,-13.1 v 123 c 0.8,0.7 1.9,1.7 3.2,2.7 l 38.7,0 z"
   id="path6962"
   inkscape:connector-curvature="0"
   style="fill:#cdd6ff" />
			<path
   class="st0"
   d="m 497,401.2 c 12.5,0 22.6,-5.9 22.6,-13.1 0,-7.2 -10.1,-13.1 -22.6,-13.1 -12.5,0 -22.6,5.9 -22.6,13.1 -0.1,7.2 10.1,13.1 22.6,13.1 z"
   id="path6964"
   inkscape:connector-curvature="0"
   style="fill:#cdd6ff" />
			<path
   class="st0"
   d="m 497,526.9 c -9.3,0 -17.4,-3.3 -20.8,-7.9 L 497,577.9 517.8,519 c -3.4,4.6 -11.5,7.9 -20.8,7.9 z"
   id="path6966"
   inkscape:connector-curvature="0"
   style="fill:#cdd6ff" />
			<path
   class="st0"
   d="m 497.1,523.8 c -0.4,0 -0.7,0 -1.1,0 -9.4,-0.3 -16.9,-5.1 -21.2,-8.6 l 1.3,3.7 c 3.5,4.7 11.5,7.9 20.8,7.9 9.3,0 17.4,-3.3 20.8,-7.9 l 1.4,-3.9 c -7,5.9 -14.4,8.8 -22,8.8 z"
   id="path6968"
   inkscape:connector-curvature="0"
   style="fill:#cdd6ff" />
			<path
   class="st0"
   d="m 496.2,521.1 c 6.9,0.3 13.6,-2.2 20.2,-7.3 l -38.8,0 c 4.1,3.2 10.6,7 18.6,7.3 z"
   id="path6970"
   inkscape:connector-curvature="0"
   style="fill:#cdd6ff" />
			<path
   class="st1"
   d="M 519.6,513.8 V 511 c -1.1,1 -2.2,1.9 -3.3,2.8 h 3.3 z"
   id="path6972"
   inkscape:connector-curvature="0"
   style="fill:#aec3ff" />
			<path
   class="st1"
   d="m 477.5,513.8 c -1.3,-1 -2.4,-2 -3.2,-2.7 v 2.7 h 3.2 z"
   id="path6974"
   inkscape:connector-curvature="0"
   style="fill:#aec3ff" />
			<path
   class="st1"
   d="m 497.1,523.8 c 7.6,0 15,-3 22.1,-8.8 l 0.4,-1.2 h -3.3 c -6.5,5.1 -13.3,7.5 -20.2,7.3 -7.9,-0.3 -14.5,-4.1 -18.6,-7.3 h -3.2 l 0.5,1.4 c 4.3,3.5 11.8,8.3 21.2,8.6 0.4,0 0.8,0 1.1,0 z"
   id="path6976"
   inkscape:connector-curvature="0"
   style="fill:#aec3ff" />
		</g>
		<g
   id="g6978">
			<linearGradient
   id="SVGID_1_"
   gradientUnits="userSpaceOnUse"
   x1="336.23651"
   y1="414.28589"
   x2="527.91937"
   y2="414.28589">
				<stop
   offset="0"
   style="stop-color:#5347C2"
   id="stop6981" />
				<stop
   offset="1"
   style="stop-color:#BAB5E7"
   id="stop6983" />
			</linearGradient>
			<path
   class="st2"
   d="m 495.6,430.6 c -52.9,0 -95.8,-24.8 -95.8,-55.3 V 398 c 0,30.6 42.9,55.3 95.8,55.3 52.9,0 95.8,-24.8 95.8,-55.3 v -22.7 c 0,30.5 -42.9,55.3 -95.8,55.3 z"
   id="path6985"
   style="fill:url(#SVGID_1_)"
   inkscape:connector-curvature="0" />
			<linearGradient
   id="SVGID_2_"
   gradientUnits="userSpaceOnUse"
   x1="399.74371"
   y1="375.27881"
   x2="591.42657"
   y2="375.27881">
				<stop
   offset="0"
   style="stop-color:#5347C2"
   id="stop6988" />
				<stop
   offset="1"
   style="stop-color:#BAB5E7"
   id="stop6990" />
			</linearGradient>
			<path
   class="st3"
   d="m 495.6,430.6 c -52.9,0 -95.8,-24.8 -95.8,-55.3 0,-30.5 42.9,-55.3 95.8,-55.3 52.9,0 95.8,24.8 95.8,55.3 0,30.5 -42.9,55.3 -95.8,55.3 z"
   id="path6992"
   style="fill:url(#SVGID_2_)"
   inkscape:connector-curvature="0" />
		</g>
		<linearGradient
   id="SVGID_3_"
   gradientUnits="userSpaceOnUse"
   x1="447.06769"
   y1="334.69241"
   x2="544.10272"
   y2="334.69241">
			<stop
   offset="0"
   style="stop-color:#5347C2"
   id="stop6995" />
			<stop
   offset="1"
   style="stop-color:#BAB5E7"
   id="stop6997" />
		</linearGradient>
		<path
   class="st4"
   d="m 447.1,268.9 c 0,53.8 0,106.7 0,107.3 0,13.5 21.5,24.4 48.4,24.4 26.9,0 48.4,-10.9 48.4,-24.4 0,-0.3 0.1,-53.4 0.2,-107.3 h -97 z"
   id="path6999"
   style="fill:url(#SVGID_3_)"
   inkscape:connector-curvature="0" />
		<g
   id="g7001">
			<linearGradient
   id="SVGID_4_"
   gradientUnits="userSpaceOnUse"
   x1="380.47198"
   y1="305.40259"
   x2="540.05658"
   y2="305.40259">
				<stop
   offset="0"
   style="stop-color:#5347C2"
   id="stop7004" />
				<stop
   offset="1"
   style="stop-color:#BAB5E7"
   id="stop7006" />
			</linearGradient>
			<path
   class="st5"
   d="m 495.6,315.8 c -44.1,0 -79.8,-20.6 -79.8,-46.1 V 295 c 0,25.4 35.7,46.1 79.8,46.1 44.1,0 79.8,-20.6 79.8,-46.1 v -25.2 c 0,25.4 -35.7,46 -79.8,46 z"
   id="path7008"
   style="fill:url(#SVGID_4_)"
   inkscape:connector-curvature="0" />
			<linearGradient
   id="SVGID_5_"
   gradientUnits="userSpaceOnUse"
   x1="415.79221"
   y1="269.75339"
   x2="575.37817"
   y2="269.75339">
				<stop
   offset="0"
   style="stop-color:#5347C2"
   id="stop7011" />
				<stop
   offset="1"
   style="stop-color:#BAB5E7"
   id="stop7013" />
			</linearGradient>
			<path
   class="st6"
   d="m 495.6,315.8 c -44.1,0 -79.8,-20.6 -79.8,-46.1 0,-25.4 35.7,-46.1 79.8,-46.1 44.1,0 79.8,20.6 79.8,46.1 0,25.5 -35.7,46.1 -79.8,46.1 z"
   id="path7015"
   style="fill:url(#SVGID_5_)"
   inkscape:connector-curvature="0" />
		</g>
	</g>
	<g
   id="g7017"
   transform="translate(20,34)">
		<polygon
   class="st7"
   points="470.3,581.1 361.5,644.1 361.5,680.9 499.9,760.2 626.5,686.9 640.6,678.8 "
   id="polygon7019"
   style="fill:#ffffff;fill-opacity:1;fill-rule:evenodd;stroke:#5347c2;stroke-opacity:1" />
		<g
   class="st8"
   id="g7021"
   transform="translate(-2,6)"
   style="opacity:0.5">
			<polygon
   class="st9"
   points="497.5,703.9 504,707.6 572.3,668.4 566,664.8 "
   id="polygon7023"
   style="fill:#aec3ff;fill-rule:evenodd" />
			<polygon
   class="st9"
   points="417.2,654.4 423.6,658.1 492,619 485.5,615.3 "
   id="polygon7025"
   style="fill:#aec3ff;fill-rule:evenodd" />
			<polygon
   class="st9"
   points="434.4,664.4 440.8,668 509,628.9 502.8,625.2 "
   id="polygon7027"
   style="fill:#aec3ff;fill-rule:evenodd" />
			<polygon
   class="st9"
   points="464.1,684.6 470.5,688.3 538.9,649.1 532.5,645.5 "
   id="polygon7029"
   style="fill:#aec3ff;fill-rule:evenodd" />
			<polygon
   class="st9"
   points="448.4,675.1 454.8,678.9 523.1,639.7 516.7,636.1 "
   id="polygon7031"
   style="fill:#aec3ff;fill-rule:evenodd" />
			<polygon
   class="st9"
   points="480.4,694 486.9,697.7 555.1,658.5 548.7,654.9 "
   id="polygon7033"
   style="fill:#aec3ff;fill-rule:evenodd" />
			<polygon
   class="st9"
   points="469.2,605.9 401,645 407.4,648.7 475.6,609.6 "
   id="polygon7035"
   style="fill:#aec3ff;fill-rule:evenodd" />
			<polygon
   class="st9"
   points="514,714.1 520.5,717.8 588.7,678.6 582.4,675 "
   id="polygon7037"
   style="fill:#aec3ff;fill-rule:evenodd" />
		</g>
		<g
   id="g7039"
   style="fill:none">
			<polygon
   class="st10"
   points="354.2,676 499.8,759.4 631.2,683.5 394.4,652.5 "
   id="polygon7041"
   style="opacity:0.2;fill:none" />
			<polygon
   class="st10"
   points="631.2,683.5 499.8,759.4 354.2,676 354.2,692.9 499.8,776.3 645.8,691.9 "
   id="polygon7043"
   style="opacity:0.2;fill:none" />
		</g>
		<polygon
   class="st11"
   points="361.5,680.9 393.8,662.5 361.5,644.1 "
   id="polygon7045"
   style="opacity:0.5;fill:#cdd6ff;fill-opacity:1;stroke:#5347cf;stroke-opacity:0.94117647" />
	</g>
</g>
</svg>